G04 #@! TF.GenerationSoftware,KiCad,Pcbnew,9.0.6*
G04 #@! TF.CreationDate,2025-12-30T14:31:11-05:00*
G04 #@! TF.ProjectId,keyboard,6b657962-6f61-4726-942e-6b696361645f,rev?*
G04 #@! TF.SameCoordinates,Original*
G04 #@! TF.FileFunction,Copper,L2,Bot*
G04 #@! TF.FilePolarity,Positive*
%FSLAX46Y46*%
G04 Gerber Fmt 4.6, Leading zero omitted, Abs format (unit mm)*
G04 Created by KiCad (PCBNEW 9.0.6) date 2025-12-30 14:31:11*
%MOMM*%
%LPD*%
G01*
G04 APERTURE LIST*
G04 Aperture macros list*
%AMRoundRect*
0 Rectangle with rounded corners*
0 $1 Rounding radius*
0 $2 $3 $4 $5 $6 $7 $8 $9 X,Y pos of 4 corners*
0 Add a 4 corners polygon primitive as box body*
4,1,4,$2,$3,$4,$5,$6,$7,$8,$9,$2,$3,0*
0 Add four circle primitives for the rounded corners*
1,1,$1+$1,$2,$3*
1,1,$1+$1,$4,$5*
1,1,$1+$1,$6,$7*
1,1,$1+$1,$8,$9*
0 Add four rect primitives between the rounded corners*
20,1,$1+$1,$2,$3,$4,$5,0*
20,1,$1+$1,$4,$5,$6,$7,0*
20,1,$1+$1,$6,$7,$8,$9,0*
20,1,$1+$1,$8,$9,$2,$3,0*%
G04 Aperture macros list end*
G04 #@! TA.AperFunction,ComponentPad*
%ADD10RoundRect,0.250000X-0.550000X0.550000X-0.550000X-0.550000X0.550000X-0.550000X0.550000X0.550000X0*%
G04 #@! TD*
G04 #@! TA.AperFunction,ComponentPad*
%ADD11C,1.600000*%
G04 #@! TD*
G04 #@! TA.AperFunction,ComponentPad*
%ADD12C,2.200000*%
G04 #@! TD*
G04 #@! TA.AperFunction,ComponentPad*
%ADD13C,1.524000*%
G04 #@! TD*
G04 #@! TA.AperFunction,ComponentPad*
%ADD14R,2.000000X2.000000*%
G04 #@! TD*
G04 #@! TA.AperFunction,ComponentPad*
%ADD15C,2.000000*%
G04 #@! TD*
G04 #@! TA.AperFunction,ComponentPad*
%ADD16R,2.000000X3.200000*%
G04 #@! TD*
G04 #@! TA.AperFunction,ComponentPad*
%ADD17R,1.700000X1.700000*%
G04 #@! TD*
G04 #@! TA.AperFunction,ComponentPad*
%ADD18C,1.700000*%
G04 #@! TD*
G04 #@! TA.AperFunction,ViaPad*
%ADD19C,0.600000*%
G04 #@! TD*
G04 #@! TA.AperFunction,Conductor*
%ADD20C,0.200000*%
G04 #@! TD*
G04 APERTURE END LIST*
D10*
X48865711Y-72036936D03*
D11*
X48865711Y-79656936D03*
D12*
X61269472Y-109476368D03*
X54919472Y-112016368D03*
D10*
X53061558Y-72036936D03*
D11*
X53061558Y-79656936D03*
D13*
X70828732Y-50384484D03*
X70828732Y-52924484D03*
X70828732Y-55464484D03*
X70828732Y-58004484D03*
X70828732Y-60544484D03*
X70828732Y-63084484D03*
X70828732Y-65624484D03*
X86068732Y-65624484D03*
X86068732Y-63084484D03*
X86068732Y-60544484D03*
X86068732Y-58004484D03*
X86068732Y-55464484D03*
X86068732Y-52924484D03*
X86068732Y-50384484D03*
D11*
X74040792Y-82196936D03*
X74040792Y-72036936D03*
X46882324Y-65746108D03*
X31882324Y-65746108D03*
D12*
X80321932Y-109476368D03*
X73971932Y-112016368D03*
D10*
X65649098Y-72036936D03*
D11*
X65649098Y-79656936D03*
D10*
X32082324Y-72036936D03*
D11*
X32082324Y-79656936D03*
D12*
X42218324Y-128528828D03*
X35868324Y-131068828D03*
X61270456Y-128528172D03*
X54920456Y-131068172D03*
D14*
X75307436Y-101310684D03*
D15*
X80307436Y-101310684D03*
X77807436Y-101310684D03*
D16*
X72207436Y-93810684D03*
X83407436Y-93810684D03*
D15*
X80307436Y-86810684D03*
X75307436Y-86810684D03*
D12*
X61269472Y-90423908D03*
X54919472Y-92963908D03*
D10*
X36278171Y-72036936D03*
D11*
X36278171Y-79656936D03*
D12*
X42218324Y-90423908D03*
X35868324Y-92963908D03*
X80322096Y-128528828D03*
X73972096Y-131068828D03*
D11*
X69844945Y-82196936D03*
X69844945Y-72036936D03*
D12*
X42218324Y-109476368D03*
X35868324Y-112016368D03*
D10*
X44669864Y-72036936D03*
D11*
X44669864Y-79656936D03*
D10*
X40474018Y-72036936D03*
D11*
X40474018Y-79656936D03*
D10*
X57257405Y-72036936D03*
D11*
X57257405Y-79656936D03*
D17*
X32602324Y-52440120D03*
D18*
X32602324Y-54980120D03*
X32602324Y-57520120D03*
X32602324Y-60060120D03*
D10*
X61453252Y-72036936D03*
D11*
X61453252Y-79656936D03*
D19*
X50654644Y-91541827D03*
X69254180Y-98528436D03*
X46875100Y-67258208D03*
X55496088Y-124927684D03*
X55496088Y-105996192D03*
X69161436Y-134488192D03*
X58427544Y-124899460D03*
X33991516Y-52440120D03*
X50108976Y-119367192D03*
X69254180Y-95564720D03*
X32600876Y-50988012D03*
X79294524Y-121996228D03*
X56919480Y-125927688D03*
X88669544Y-52923500D03*
X46882324Y-64226784D03*
X70346928Y-116669600D03*
X48326716Y-65746108D03*
X70463860Y-97076820D03*
X39193632Y-106028452D03*
X50108976Y-95657464D03*
X69161436Y-118125252D03*
X36411368Y-105996192D03*
X50108976Y-116520408D03*
X50108976Y-98467952D03*
X79048552Y-103306672D03*
X37802500Y-107117164D03*
X45423484Y-65746108D03*
X39193632Y-124899460D03*
X51161392Y-97068748D03*
X80774364Y-123177684D03*
X69161436Y-115189760D03*
X70165476Y-135843028D03*
X77572748Y-104246192D03*
X37742016Y-126109140D03*
X77814684Y-123177684D03*
X51165428Y-136326900D03*
X36169432Y-124899460D03*
X80532428Y-104246192D03*
X56915444Y-106996196D03*
X50108976Y-137754328D03*
X84617116Y-52923500D03*
X50108976Y-134847060D03*
X69161436Y-137205936D03*
X31088284Y-52440120D03*
X51350916Y-117943800D03*
D20*
X31754100Y-88376854D02*
X40474018Y-79656936D01*
X42218324Y-126895924D02*
X31754100Y-116431700D01*
X42218324Y-128528828D02*
X42218324Y-126895924D01*
X31754100Y-116431700D02*
X31754100Y-88376854D01*
X51849888Y-90347996D02*
X59213836Y-82984048D01*
X59213836Y-69677568D02*
X63266920Y-65624484D01*
X50654644Y-91541827D02*
X51848475Y-90347996D01*
X51848475Y-90347996D02*
X51849888Y-90347996D01*
X63266920Y-65624484D02*
X70828732Y-65624484D01*
X59213836Y-82984048D02*
X59213836Y-69677568D01*
X85005732Y-71231996D02*
X85005732Y-56527484D01*
X74040792Y-82196936D02*
X85005732Y-71231996D01*
X85005732Y-56527484D02*
X86068732Y-55464484D01*
X81381058Y-127469866D02*
X80322096Y-128528828D01*
X61891682Y-77661456D02*
X60352252Y-79200886D01*
X81381058Y-114042418D02*
X81381058Y-127469866D01*
X66767482Y-99428842D02*
X81381058Y-114042418D01*
X63653618Y-77661456D02*
X61891682Y-77661456D01*
X65649098Y-79656936D02*
X63653618Y-77661456D01*
X66767482Y-87029622D02*
X66767482Y-99428842D01*
X60352252Y-79200886D02*
X60352252Y-80614392D01*
X60352252Y-80614392D02*
X66767482Y-87029622D01*
X77842908Y-106996196D02*
X77842908Y-106997344D01*
X77842908Y-106997344D02*
X80321932Y-109476368D01*
X77841760Y-106996196D02*
X77842908Y-106997344D01*
X75060644Y-106996196D02*
X77841760Y-106996196D01*
X67168482Y-99104034D02*
X75060644Y-106996196D01*
X79718240Y-109476368D02*
X80321932Y-109476368D01*
X67168482Y-85372166D02*
X67168482Y-99104034D01*
X61453252Y-79656936D02*
X67168482Y-85372166D01*
X76700748Y-84359472D02*
X77343684Y-85002408D01*
X70828732Y-58004484D02*
X72693732Y-59869484D01*
X77343684Y-85002408D02*
X84776180Y-85002408D01*
X73972096Y-136512552D02*
X73972096Y-131068828D01*
X40652140Y-131257828D02*
X38704508Y-131257828D01*
X41128464Y-131734152D02*
X40652140Y-131257828D01*
X38704508Y-131257828D02*
X38228184Y-131734152D01*
X54920456Y-131068172D02*
X54254476Y-131734152D01*
X72693732Y-59869484D02*
X72693732Y-82406926D01*
X72693732Y-82406926D02*
X74646278Y-84359472D01*
X86023956Y-86250184D02*
X86023956Y-135226516D01*
X74646278Y-84359472D02*
X76700748Y-84359472D01*
X38228184Y-131734152D02*
X36533648Y-131734152D01*
X75000160Y-137540616D02*
X73972096Y-136512552D01*
X54254476Y-131734152D02*
X41128464Y-131734152D01*
X84776180Y-85002408D02*
X86023956Y-86250184D01*
X36533648Y-131734152D02*
X35868324Y-131068828D01*
X73972096Y-131068828D02*
X54921112Y-131068828D01*
X54921112Y-131068828D02*
X54920456Y-131068172D01*
X83709856Y-137540616D02*
X75000160Y-137540616D01*
X86023956Y-135226516D02*
X83709856Y-137540616D01*
X85622956Y-135060416D02*
X83543756Y-137139616D01*
X72278380Y-61994132D02*
X72278380Y-63967032D01*
X73812868Y-84760472D02*
X76534648Y-84760472D01*
X72278380Y-63967032D02*
X72292732Y-63981384D01*
X73971932Y-112016368D02*
X54919472Y-112016368D01*
X84254212Y-85403408D02*
X85622956Y-86772152D01*
X70828732Y-60544484D02*
X71068700Y-60544484D01*
X83543756Y-137139616D02*
X76451776Y-137139616D01*
X75373096Y-136060936D02*
X75373096Y-129687728D01*
X77177584Y-85403408D02*
X84254212Y-85403408D01*
X76451776Y-137139616D02*
X75373096Y-136060936D01*
X76534648Y-84760472D02*
X77177584Y-85403408D01*
X70828732Y-60544484D02*
X72278380Y-61994132D01*
X73971932Y-128286564D02*
X73971932Y-112016368D01*
X85622956Y-86772152D02*
X85622956Y-135060416D01*
X54919472Y-112016368D02*
X35868324Y-112016368D01*
X75373096Y-129687728D02*
X73971932Y-128286564D01*
X72292732Y-63981384D02*
X72292732Y-83240336D01*
X72292732Y-83240336D02*
X73812868Y-84760472D01*
X58729964Y-69594340D02*
X58729964Y-82617977D01*
X49475912Y-92963908D02*
X49959784Y-92963908D01*
X76133212Y-85161472D02*
X73185640Y-85161472D01*
X73185640Y-85161472D02*
X71891732Y-83867564D01*
X49959784Y-92963908D02*
X51169464Y-92963908D01*
X71891732Y-64147484D02*
X70828732Y-63084484D01*
X49838816Y-92842940D02*
X49959784Y-92963908D01*
X77782424Y-86810684D02*
X76133212Y-85161472D01*
X65239820Y-63084484D02*
X58729964Y-69594340D01*
X49475912Y-92963908D02*
X49717848Y-92963908D01*
X70828732Y-63084484D02*
X65239820Y-63084484D01*
X49717848Y-92963908D02*
X49838816Y-92842940D01*
X58729964Y-82617977D02*
X49838816Y-91509125D01*
X80307436Y-86810684D02*
X77782424Y-86810684D01*
X35868324Y-92963908D02*
X49475912Y-92963908D01*
X49838816Y-91509125D02*
X49838816Y-92842940D01*
X51169464Y-92963908D02*
X54919472Y-92963908D01*
X71891732Y-83867564D02*
X71891732Y-64147484D01*
G04 #@! TA.AperFunction,Conductor*
G36*
X89194866Y-47910999D02*
G01*
X89224238Y-47917024D01*
X89228046Y-47920742D01*
X89233149Y-47922241D01*
X89252773Y-47944888D01*
X89274227Y-47965838D01*
X89275420Y-47971024D01*
X89278904Y-47975045D01*
X89283169Y-48004712D01*
X89289891Y-48033930D01*
X89288090Y-48038937D01*
X89288848Y-48044203D01*
X89276394Y-48071471D01*
X89266254Y-48099680D01*
X89261103Y-48104954D01*
X89259823Y-48107759D01*
X89241596Y-48124932D01*
X89140359Y-48202613D01*
X89140352Y-48202619D01*
X88968835Y-48374136D01*
X88968829Y-48374143D01*
X88821163Y-48566586D01*
X88699873Y-48776665D01*
X88699869Y-48776674D01*
X88607043Y-49000775D01*
X88544257Y-49235094D01*
X88512596Y-49475591D01*
X88512596Y-49718168D01*
X88544257Y-49958665D01*
X88607043Y-50192984D01*
X88687936Y-50388277D01*
X88699872Y-50417092D01*
X88821160Y-50627169D01*
X88821162Y-50627172D01*
X88821163Y-50627173D01*
X88968829Y-50819616D01*
X88968835Y-50819623D01*
X89140352Y-50991140D01*
X89140359Y-50991146D01*
X89253417Y-51077898D01*
X89332807Y-51138816D01*
X89542884Y-51260104D01*
X89766996Y-51352934D01*
X90001307Y-51415718D01*
X90181682Y-51439464D01*
X90241807Y-51447380D01*
X90241808Y-51447380D01*
X90484385Y-51447380D01*
X90532484Y-51441047D01*
X90724885Y-51415718D01*
X90959196Y-51352934D01*
X91183308Y-51260104D01*
X91393385Y-51138816D01*
X91585834Y-50991145D01*
X91757361Y-50819618D01*
X91905032Y-50627169D01*
X92007485Y-50449714D01*
X92058052Y-50401499D01*
X92126659Y-50388277D01*
X92191524Y-50414245D01*
X92232052Y-50471159D01*
X92238872Y-50511715D01*
X92238872Y-141645952D01*
X92219187Y-141712991D01*
X92166383Y-141758746D01*
X92097225Y-141768690D01*
X92033669Y-141739665D01*
X92007485Y-141707952D01*
X91971689Y-141645952D01*
X91905032Y-141530499D01*
X91757361Y-141338050D01*
X91757356Y-141338044D01*
X91585839Y-141166527D01*
X91585832Y-141166521D01*
X91393389Y-141018855D01*
X91393388Y-141018854D01*
X91393385Y-141018852D01*
X91183308Y-140897564D01*
X91183301Y-140897561D01*
X90959200Y-140804735D01*
X90724881Y-140741949D01*
X90484385Y-140710288D01*
X90484384Y-140710288D01*
X90241808Y-140710288D01*
X90241807Y-140710288D01*
X90001310Y-140741949D01*
X89766991Y-140804735D01*
X89542890Y-140897561D01*
X89542881Y-140897565D01*
X89332802Y-141018855D01*
X89140359Y-141166521D01*
X89140352Y-141166527D01*
X88968835Y-141338044D01*
X88968829Y-141338051D01*
X88821163Y-141530494D01*
X88699873Y-141740573D01*
X88699869Y-141740582D01*
X88607043Y-141964683D01*
X88544257Y-142199002D01*
X88512596Y-142439499D01*
X88512596Y-142682076D01*
X88544257Y-142922573D01*
X88607043Y-143156892D01*
X88687936Y-143352185D01*
X88699872Y-143381000D01*
X88821160Y-143591077D01*
X88821162Y-143591080D01*
X88821163Y-143591081D01*
X88968829Y-143783524D01*
X88968835Y-143783531D01*
X89140352Y-143955048D01*
X89140359Y-143955054D01*
X89241596Y-144032736D01*
X89282799Y-144089164D01*
X89286954Y-144158910D01*
X89252742Y-144219830D01*
X89191025Y-144252583D01*
X89166110Y-144255112D01*
X28414786Y-144255112D01*
X28347747Y-144235427D01*
X28301992Y-144182623D01*
X28292048Y-144113465D01*
X28321073Y-144049909D01*
X28339300Y-144032736D01*
X28388934Y-143994650D01*
X28440538Y-143955053D01*
X28612065Y-143783526D01*
X28759736Y-143591077D01*
X28881024Y-143381000D01*
X28973854Y-143156888D01*
X29036638Y-142922577D01*
X29068300Y-142682076D01*
X29068300Y-142439500D01*
X29036638Y-142198999D01*
X28973854Y-141964688D01*
X28881024Y-141740576D01*
X28759736Y-141530499D01*
X28612065Y-141338050D01*
X28612060Y-141338044D01*
X28440543Y-141166527D01*
X28440536Y-141166521D01*
X28248093Y-141018855D01*
X28248092Y-141018854D01*
X28248089Y-141018852D01*
X28038012Y-140897564D01*
X28038005Y-140897561D01*
X27813904Y-140804735D01*
X27579585Y-140741949D01*
X27339089Y-140710288D01*
X27339088Y-140710288D01*
X27096512Y-140710288D01*
X27096511Y-140710288D01*
X26856014Y-140741949D01*
X26621695Y-140804735D01*
X26397594Y-140897561D01*
X26397585Y-140897565D01*
X26187506Y-141018855D01*
X25995063Y-141166521D01*
X25995056Y-141166527D01*
X25823539Y-141338044D01*
X25823533Y-141338051D01*
X25675867Y-141530494D01*
X25573411Y-141707952D01*
X25522844Y-141756168D01*
X25454236Y-141769390D01*
X25389372Y-141743422D01*
X25348844Y-141686508D01*
X25342024Y-141645952D01*
X25342024Y-116510754D01*
X31153598Y-116510754D01*
X31194523Y-116663485D01*
X31223458Y-116713600D01*
X31223459Y-116713604D01*
X31223460Y-116713604D01*
X31273579Y-116800414D01*
X31273581Y-116800417D01*
X31392449Y-116919285D01*
X31392455Y-116919290D01*
X41426824Y-126953660D01*
X41460309Y-127014983D01*
X41455325Y-127084675D01*
X41413453Y-127140608D01*
X41395441Y-127151824D01*
X41379477Y-127159958D01*
X41175674Y-127308029D01*
X41175669Y-127308033D01*
X40997529Y-127486173D01*
X40997525Y-127486178D01*
X40849456Y-127689979D01*
X40735084Y-127914444D01*
X40657234Y-128154042D01*
X40617824Y-128402866D01*
X40617824Y-128654789D01*
X40657234Y-128903613D01*
X40735084Y-129143211D01*
X40792883Y-129256647D01*
X40849121Y-129367020D01*
X40849456Y-129367676D01*
X40997525Y-129571477D01*
X40997529Y-129571482D01*
X41175669Y-129749622D01*
X41175674Y-129749626D01*
X41353441Y-129878780D01*
X41379479Y-129897698D01*
X41522508Y-129970575D01*
X41603940Y-130012067D01*
X41603942Y-130012067D01*
X41603945Y-130012069D01*
X41843539Y-130089918D01*
X42092362Y-130129328D01*
X42092363Y-130129328D01*
X42344285Y-130129328D01*
X42344286Y-130129328D01*
X42593109Y-130089918D01*
X42832703Y-130012069D01*
X42833991Y-130011413D01*
X42838372Y-130009180D01*
X43057169Y-129897698D01*
X43260980Y-129749621D01*
X43439117Y-129571484D01*
X43587194Y-129367673D01*
X43701565Y-129143207D01*
X43779414Y-128903613D01*
X43818824Y-128654790D01*
X43818824Y-128402866D01*
X43818720Y-128402210D01*
X59669956Y-128402210D01*
X59669956Y-128654134D01*
X59709366Y-128902957D01*
X59787216Y-129142555D01*
X59901588Y-129367020D01*
X60049657Y-129570821D01*
X60049661Y-129570826D01*
X60227801Y-129748966D01*
X60227806Y-129748970D01*
X60364150Y-129848029D01*
X60431611Y-129897042D01*
X60574640Y-129969919D01*
X60656072Y-130011411D01*
X60656074Y-130011411D01*
X60656077Y-130011413D01*
X60895671Y-130089262D01*
X61144494Y-130128672D01*
X61144495Y-130128672D01*
X61396417Y-130128672D01*
X61396418Y-130128672D01*
X61645241Y-130089262D01*
X61884835Y-130011413D01*
X62109301Y-129897042D01*
X62313112Y-129748965D01*
X62491249Y-129570828D01*
X62639326Y-129367017D01*
X62753697Y-129142551D01*
X62831546Y-128902957D01*
X62870956Y-128654134D01*
X62870956Y-128402210D01*
X62831546Y-128153387D01*
X62753697Y-127913793D01*
X62753695Y-127913790D01*
X62753695Y-127913788D01*
X62712203Y-127832356D01*
X62639326Y-127689327D01*
X62556263Y-127575000D01*
X62491254Y-127485522D01*
X62491250Y-127485517D01*
X62313110Y-127307377D01*
X62313105Y-127307373D01*
X62109304Y-127159304D01*
X62109303Y-127159303D01*
X62109301Y-127159302D01*
X62039203Y-127123585D01*
X61884839Y-127044932D01*
X61645241Y-126967082D01*
X61560498Y-126953660D01*
X61396418Y-126927672D01*
X61144494Y-126927672D01*
X61020082Y-126947377D01*
X60895670Y-126967082D01*
X60656072Y-127044932D01*
X60431607Y-127159304D01*
X60227806Y-127307373D01*
X60227801Y-127307377D01*
X60049661Y-127485517D01*
X60049657Y-127485522D01*
X59901588Y-127689323D01*
X59787216Y-127913788D01*
X59755037Y-128012825D01*
X59709366Y-128153387D01*
X59669956Y-128402210D01*
X43818720Y-128402210D01*
X43779414Y-128154043D01*
X43701565Y-127914449D01*
X43701563Y-127914446D01*
X43701563Y-127914444D01*
X43660071Y-127833012D01*
X43587194Y-127689983D01*
X43484709Y-127548924D01*
X43439122Y-127486178D01*
X43439118Y-127486173D01*
X43260978Y-127308033D01*
X43260973Y-127308029D01*
X43057172Y-127159960D01*
X43057171Y-127159959D01*
X43057169Y-127159958D01*
X42886530Y-127073013D01*
X42835734Y-127025038D01*
X42818825Y-126962528D01*
X42818825Y-126816868D01*
X42777900Y-126664138D01*
X42777897Y-126664133D01*
X42698848Y-126527214D01*
X42698842Y-126527206D01*
X32390919Y-116219283D01*
X32357434Y-116157960D01*
X32354600Y-116131602D01*
X32354600Y-109350406D01*
X40617824Y-109350406D01*
X40617824Y-109602329D01*
X40657234Y-109851153D01*
X40735084Y-110090751D01*
X40849456Y-110315216D01*
X40997525Y-110519017D01*
X40997529Y-110519022D01*
X41175669Y-110697162D01*
X41175674Y-110697166D01*
X41353441Y-110826320D01*
X41379479Y-110845238D01*
X41522508Y-110918115D01*
X41603940Y-110959607D01*
X41603942Y-110959607D01*
X41603945Y-110959609D01*
X41843539Y-111037458D01*
X42092362Y-111076868D01*
X42092363Y-111076868D01*
X42344285Y-111076868D01*
X42344286Y-111076868D01*
X42593109Y-111037458D01*
X42832703Y-110959609D01*
X43057169Y-110845238D01*
X43260980Y-110697161D01*
X43439117Y-110519024D01*
X43587194Y-110315213D01*
X43701565Y-110090747D01*
X43779414Y-109851153D01*
X43818824Y-109602330D01*
X43818824Y-109350406D01*
X59668972Y-109350406D01*
X59668972Y-109602329D01*
X59708382Y-109851153D01*
X59786232Y-110090751D01*
X59900604Y-110315216D01*
X60048673Y-110519017D01*
X60048677Y-110519022D01*
X60226817Y-110697162D01*
X60226822Y-110697166D01*
X60404589Y-110826320D01*
X60430627Y-110845238D01*
X60573656Y-110918115D01*
X60655088Y-110959607D01*
X60655090Y-110959607D01*
X60655093Y-110959609D01*
X60894687Y-111037458D01*
X61143510Y-111076868D01*
X61143511Y-111076868D01*
X61395433Y-111076868D01*
X61395434Y-111076868D01*
X61644257Y-111037458D01*
X61883851Y-110959609D01*
X62108317Y-110845238D01*
X62312128Y-110697161D01*
X62490265Y-110519024D01*
X62638342Y-110315213D01*
X62752713Y-110090747D01*
X62830562Y-109851153D01*
X62869972Y-109602330D01*
X62869972Y-109350406D01*
X62830562Y-109101583D01*
X62752713Y-108861989D01*
X62752711Y-108861986D01*
X62752711Y-108861984D01*
X62711219Y-108780552D01*
X62638342Y-108637523D01*
X62619424Y-108611485D01*
X62490270Y-108433718D01*
X62490266Y-108433713D01*
X62312126Y-108255573D01*
X62312121Y-108255569D01*
X62108320Y-108107500D01*
X62108319Y-108107499D01*
X62108317Y-108107498D01*
X62038219Y-108071781D01*
X61883855Y-107993128D01*
X61644257Y-107915278D01*
X61395434Y-107875868D01*
X61143510Y-107875868D01*
X61019098Y-107895573D01*
X60894686Y-107915278D01*
X60655088Y-107993128D01*
X60430623Y-108107500D01*
X60226822Y-108255569D01*
X60226817Y-108255573D01*
X60048677Y-108433713D01*
X60048673Y-108433718D01*
X59900604Y-108637519D01*
X59786232Y-108861984D01*
X59708382Y-109101582D01*
X59668972Y-109350406D01*
X43818824Y-109350406D01*
X43779414Y-109101583D01*
X43701565Y-108861989D01*
X43701563Y-108861986D01*
X43701563Y-108861984D01*
X43660071Y-108780552D01*
X43587194Y-108637523D01*
X43568276Y-108611485D01*
X43439122Y-108433718D01*
X43439118Y-108433713D01*
X43260978Y-108255573D01*
X43260973Y-108255569D01*
X43057172Y-108107500D01*
X43057171Y-108107499D01*
X43057169Y-108107498D01*
X42987071Y-108071781D01*
X42832707Y-107993128D01*
X42593109Y-107915278D01*
X42344286Y-107875868D01*
X42092362Y-107875868D01*
X41967950Y-107895573D01*
X41843538Y-107915278D01*
X41603940Y-107993128D01*
X41379475Y-108107500D01*
X41175674Y-108255569D01*
X41175669Y-108255573D01*
X40997529Y-108433713D01*
X40997525Y-108433718D01*
X40849456Y-108637519D01*
X40735084Y-108861984D01*
X40657234Y-109101582D01*
X40617824Y-109350406D01*
X32354600Y-109350406D01*
X32354600Y-95417297D01*
X33497824Y-95417297D01*
X33497824Y-95590518D01*
X33516615Y-95709164D01*
X33524922Y-95761609D01*
X33578451Y-95926353D01*
X33657092Y-96080696D01*
X33758910Y-96220836D01*
X33881396Y-96343322D01*
X34021536Y-96445140D01*
X34175879Y-96523781D01*
X34340623Y-96577310D01*
X34511713Y-96604408D01*
X34511714Y-96604408D01*
X34684934Y-96604408D01*
X34684935Y-96604408D01*
X34856025Y-96577310D01*
X35020769Y-96523781D01*
X35175112Y-96445140D01*
X35315252Y-96343322D01*
X35437738Y-96220836D01*
X35539556Y-96080696D01*
X35618197Y-95926353D01*
X35671726Y-95761609D01*
X35698824Y-95590519D01*
X35698824Y-95417297D01*
X35671726Y-95246207D01*
X35618197Y-95081463D01*
X35539556Y-94927120D01*
X35437738Y-94786980D01*
X35385806Y-94735048D01*
X35352321Y-94673725D01*
X35357305Y-94604033D01*
X35399177Y-94548100D01*
X35464641Y-94523683D01*
X35492885Y-94524894D01*
X35493536Y-94524997D01*
X35493539Y-94524998D01*
X35742362Y-94564408D01*
X35742363Y-94564408D01*
X35994285Y-94564408D01*
X35994286Y-94564408D01*
X36243109Y-94524998D01*
X36482703Y-94447149D01*
X36707169Y-94332778D01*
X36910980Y-94184701D01*
X37089117Y-94006564D01*
X37237194Y-93802753D01*
X37324139Y-93632112D01*
X37372113Y-93581317D01*
X37434624Y-93564408D01*
X38143786Y-93564408D01*
X38210825Y-93584093D01*
X38256580Y-93636897D01*
X38266524Y-93706055D01*
X38237499Y-93769611D01*
X38219272Y-93786784D01*
X38191283Y-93808260D01*
X38191276Y-93808266D01*
X37982682Y-94016860D01*
X37982676Y-94016867D01*
X37803085Y-94250914D01*
X37655582Y-94506397D01*
X37655578Y-94506407D01*
X37542688Y-94778946D01*
X37542685Y-94778956D01*
X37466332Y-95063912D01*
X37466330Y-95063923D01*
X37427824Y-95356394D01*
X37427824Y-95651421D01*
X37459895Y-95895021D01*
X37466331Y-95943901D01*
X37540536Y-96220838D01*
X37542685Y-96228859D01*
X37542688Y-96228869D01*
X37655578Y-96501408D01*
X37655582Y-96501418D01*
X37803085Y-96756901D01*
X37982676Y-96990948D01*
X37982682Y-96990955D01*
X38191276Y-97199549D01*
X38191283Y-97199555D01*
X38425330Y-97379146D01*
X38680813Y-97526649D01*
X38680814Y-97526649D01*
X38680817Y-97526651D01*
X38953372Y-97639547D01*
X39238331Y-97715901D01*
X39530818Y-97754408D01*
X39530825Y-97754408D01*
X39825823Y-97754408D01*
X39825830Y-97754408D01*
X40118317Y-97715901D01*
X40403276Y-97639547D01*
X40675831Y-97526651D01*
X40931318Y-97379146D01*
X41165366Y-97199554D01*
X41373970Y-96990950D01*
X41553562Y-96756902D01*
X41701067Y-96501415D01*
X41813963Y-96228860D01*
X41890317Y-95943901D01*
X41928824Y-95651414D01*
X41928824Y-95417297D01*
X43657824Y-95417297D01*
X43657824Y-95590518D01*
X43676615Y-95709164D01*
X43684922Y-95761609D01*
X43738451Y-95926353D01*
X43817092Y-96080696D01*
X43918910Y-96220836D01*
X44041396Y-96343322D01*
X44181536Y-96445140D01*
X44335879Y-96523781D01*
X44500623Y-96577310D01*
X44671713Y-96604408D01*
X44671714Y-96604408D01*
X44844934Y-96604408D01*
X44844935Y-96604408D01*
X45016025Y-96577310D01*
X45180769Y-96523781D01*
X45335112Y-96445140D01*
X45475252Y-96343322D01*
X45597738Y-96220836D01*
X45699556Y-96080696D01*
X45778197Y-95926353D01*
X45831726Y-95761609D01*
X45858824Y-95590519D01*
X45858824Y-95417297D01*
X45831726Y-95246207D01*
X45778197Y-95081463D01*
X45699556Y-94927120D01*
X45597738Y-94786980D01*
X45475252Y-94664494D01*
X45335112Y-94562676D01*
X45180769Y-94484035D01*
X45016025Y-94430506D01*
X45016023Y-94430505D01*
X45016022Y-94430505D01*
X44884595Y-94409689D01*
X44844935Y-94403408D01*
X44671713Y-94403408D01*
X44632052Y-94409689D01*
X44500626Y-94430505D01*
X44335876Y-94484036D01*
X44181535Y-94562676D01*
X44124613Y-94604033D01*
X44041396Y-94664494D01*
X44041394Y-94664496D01*
X44041393Y-94664496D01*
X43918912Y-94786977D01*
X43918912Y-94786978D01*
X43918910Y-94786980D01*
X43875183Y-94847164D01*
X43817092Y-94927119D01*
X43738452Y-95081460D01*
X43684921Y-95246210D01*
X43657824Y-95417297D01*
X41928824Y-95417297D01*
X41928824Y-95356402D01*
X41890317Y-95063915D01*
X41813963Y-94778956D01*
X41701067Y-94506401D01*
X41645633Y-94410387D01*
X41553562Y-94250914D01*
X41373971Y-94016867D01*
X41373965Y-94016860D01*
X41165371Y-93808266D01*
X41165364Y-93808260D01*
X41137376Y-93786784D01*
X41096173Y-93730356D01*
X41092018Y-93660610D01*
X41126230Y-93599690D01*
X41187948Y-93566937D01*
X41212862Y-93564408D01*
X49396855Y-93564408D01*
X49638787Y-93564408D01*
X49638791Y-93564409D01*
X49796905Y-93564409D01*
X49796909Y-93564408D01*
X49873115Y-93564408D01*
X49873131Y-93564409D01*
X49880727Y-93564409D01*
X50046438Y-93564409D01*
X50046454Y-93564408D01*
X51090407Y-93564408D01*
X53353172Y-93564408D01*
X53420211Y-93584093D01*
X53463656Y-93632112D01*
X53542465Y-93786784D01*
X53550604Y-93802756D01*
X53698673Y-94006557D01*
X53698677Y-94006562D01*
X53698679Y-94006564D01*
X53876816Y-94184701D01*
X53876817Y-94184702D01*
X53876816Y-94184702D01*
X53883133Y-94189291D01*
X53925799Y-94244622D01*
X53931777Y-94314235D01*
X53899171Y-94376030D01*
X53838332Y-94410387D01*
X53790850Y-94412082D01*
X53736083Y-94403408D01*
X53562861Y-94403408D01*
X53523200Y-94409689D01*
X53391774Y-94430505D01*
X53227024Y-94484036D01*
X53072683Y-94562676D01*
X53015761Y-94604033D01*
X52932544Y-94664494D01*
X52932542Y-94664496D01*
X52932541Y-94664496D01*
X52810060Y-94786977D01*
X52810060Y-94786978D01*
X52810058Y-94786980D01*
X52766331Y-94847164D01*
X52708240Y-94927119D01*
X52629600Y-95081460D01*
X52576069Y-95246210D01*
X52548972Y-95417297D01*
X52548972Y-95590518D01*
X52567763Y-95709164D01*
X52576070Y-95761609D01*
X52629599Y-95926353D01*
X52708240Y-96080696D01*
X52810058Y-96220836D01*
X52932544Y-96343322D01*
X53072684Y-96445140D01*
X53227027Y-96523781D01*
X53391771Y-96577310D01*
X53562861Y-96604408D01*
X53562862Y-96604408D01*
X53736082Y-96604408D01*
X53736083Y-96604408D01*
X53907173Y-96577310D01*
X54071917Y-96523781D01*
X54226260Y-96445140D01*
X54366400Y-96343322D01*
X54488886Y-96220836D01*
X54590704Y-96080696D01*
X54669345Y-95926353D01*
X54722874Y-95761609D01*
X54749972Y-95590519D01*
X54749972Y-95417297D01*
X54740326Y-95356394D01*
X56478972Y-95356394D01*
X56478972Y-95651421D01*
X56511043Y-95895021D01*
X56517479Y-95943901D01*
X56591684Y-96220838D01*
X56593833Y-96228859D01*
X56593836Y-96228869D01*
X56706726Y-96501408D01*
X56706730Y-96501418D01*
X56854233Y-96756901D01*
X57033824Y-96990948D01*
X57033830Y-96990955D01*
X57242424Y-97199549D01*
X57242431Y-97199555D01*
X57476478Y-97379146D01*
X57731961Y-97526649D01*
X57731962Y-97526649D01*
X57731965Y-97526651D01*
X58004520Y-97639547D01*
X58289479Y-97715901D01*
X58581966Y-97754408D01*
X58581973Y-97754408D01*
X58876971Y-97754408D01*
X58876978Y-97754408D01*
X59169465Y-97715901D01*
X59454424Y-97639547D01*
X59726979Y-97526651D01*
X59982466Y-97379146D01*
X60216514Y-97199554D01*
X60425118Y-96990950D01*
X60604710Y-96756902D01*
X60752215Y-96501415D01*
X60865111Y-96228860D01*
X60941465Y-95943901D01*
X60979972Y-95651414D01*
X60979972Y-95417297D01*
X62708972Y-95417297D01*
X62708972Y-95590518D01*
X62727763Y-95709164D01*
X62736070Y-95761609D01*
X62789599Y-95926353D01*
X62868240Y-96080696D01*
X62970058Y-96220836D01*
X63092544Y-96343322D01*
X63232684Y-96445140D01*
X63387027Y-96523781D01*
X63551771Y-96577310D01*
X63722861Y-96604408D01*
X63722862Y-96604408D01*
X63896082Y-96604408D01*
X63896083Y-96604408D01*
X64067173Y-96577310D01*
X64231917Y-96523781D01*
X64386260Y-96445140D01*
X64526400Y-96343322D01*
X64648886Y-96220836D01*
X64750704Y-96080696D01*
X64829345Y-95926353D01*
X64882874Y-95761609D01*
X64909972Y-95590519D01*
X64909972Y-95417297D01*
X64882874Y-95246207D01*
X64829345Y-95081463D01*
X64750704Y-94927120D01*
X64648886Y-94786980D01*
X64526400Y-94664494D01*
X64386260Y-94562676D01*
X64231917Y-94484035D01*
X64067173Y-94430506D01*
X64067171Y-94430505D01*
X64067170Y-94430505D01*
X63935743Y-94409689D01*
X63896083Y-94403408D01*
X63722861Y-94403408D01*
X63683200Y-94409689D01*
X63551774Y-94430505D01*
X63387024Y-94484036D01*
X63232683Y-94562676D01*
X63175761Y-94604033D01*
X63092544Y-94664494D01*
X63092542Y-94664496D01*
X63092541Y-94664496D01*
X62970060Y-94786977D01*
X62970060Y-94786978D01*
X62970058Y-94786980D01*
X62926331Y-94847164D01*
X62868240Y-94927119D01*
X62789600Y-95081460D01*
X62736069Y-95246210D01*
X62708972Y-95417297D01*
X60979972Y-95417297D01*
X60979972Y-95356402D01*
X60941465Y-95063915D01*
X60865111Y-94778956D01*
X60752215Y-94506401D01*
X60696781Y-94410387D01*
X60604710Y-94250914D01*
X60425119Y-94016867D01*
X60425113Y-94016860D01*
X60216519Y-93808266D01*
X60216512Y-93808260D01*
X59982465Y-93628669D01*
X59726982Y-93481166D01*
X59726972Y-93481162D01*
X59454433Y-93368272D01*
X59454426Y-93368270D01*
X59454424Y-93368269D01*
X59169465Y-93291915D01*
X59120585Y-93285479D01*
X58876985Y-93253408D01*
X58876978Y-93253408D01*
X58581966Y-93253408D01*
X58581958Y-93253408D01*
X58303557Y-93290061D01*
X58289479Y-93291915D01*
X58114900Y-93338693D01*
X58004520Y-93368269D01*
X58004510Y-93368272D01*
X57731971Y-93481162D01*
X57731961Y-93481166D01*
X57476478Y-93628669D01*
X57242431Y-93808260D01*
X57242424Y-93808266D01*
X57033830Y-94016860D01*
X57033824Y-94016867D01*
X56854233Y-94250914D01*
X56706730Y-94506397D01*
X56706726Y-94506407D01*
X56593836Y-94778946D01*
X56593833Y-94778956D01*
X56517480Y-95063912D01*
X56517478Y-95063923D01*
X56478972Y-95356394D01*
X54740326Y-95356394D01*
X54722874Y-95246207D01*
X54669345Y-95081463D01*
X54590704Y-94927120D01*
X54488886Y-94786980D01*
X54436954Y-94735048D01*
X54403469Y-94673725D01*
X54408453Y-94604033D01*
X54450325Y-94548100D01*
X54515789Y-94523683D01*
X54544033Y-94524894D01*
X54544684Y-94524997D01*
X54544687Y-94524998D01*
X54793510Y-94564408D01*
X54793511Y-94564408D01*
X55045433Y-94564408D01*
X55045434Y-94564408D01*
X55294257Y-94524998D01*
X55533851Y-94447149D01*
X55758317Y-94332778D01*
X55962128Y-94184701D01*
X56140265Y-94006564D01*
X56288342Y-93802753D01*
X56402713Y-93578287D01*
X56480562Y-93338693D01*
X56519972Y-93089870D01*
X56519972Y-92837946D01*
X56480562Y-92589123D01*
X56402713Y-92349529D01*
X56402711Y-92349526D01*
X56402711Y-92349524D01*
X56352623Y-92251221D01*
X56288342Y-92125063D01*
X56186579Y-91984998D01*
X56140270Y-91921258D01*
X56140266Y-91921253D01*
X55962126Y-91743113D01*
X55962121Y-91743109D01*
X55758320Y-91595040D01*
X55758319Y-91595039D01*
X55758317Y-91595038D01*
X55682656Y-91556487D01*
X55533855Y-91480668D01*
X55294257Y-91402818D01*
X55045434Y-91363408D01*
X54793510Y-91363408D01*
X54669098Y-91383113D01*
X54544686Y-91402818D01*
X54305088Y-91480668D01*
X54080623Y-91595040D01*
X53876822Y-91743109D01*
X53876817Y-91743113D01*
X53698677Y-91921253D01*
X53698673Y-91921258D01*
X53550604Y-92125059D01*
X53550602Y-92125063D01*
X53466095Y-92290919D01*
X53463657Y-92295703D01*
X53415683Y-92346499D01*
X53353172Y-92363408D01*
X51264504Y-92363408D01*
X51197465Y-92343723D01*
X51151710Y-92290919D01*
X51141766Y-92221761D01*
X51170791Y-92158205D01*
X51176823Y-92151727D01*
X51276430Y-92052119D01*
X51276433Y-92052116D01*
X51364038Y-91921006D01*
X51424381Y-91775324D01*
X51455144Y-91620669D01*
X51455282Y-91619977D01*
X51487667Y-91558066D01*
X51489165Y-91556540D01*
X52207009Y-90838695D01*
X52207240Y-90838466D01*
X52215465Y-90830327D01*
X52218604Y-90828516D01*
X52330408Y-90716712D01*
X52330409Y-90716709D01*
X52749172Y-90297946D01*
X59668972Y-90297946D01*
X59668972Y-90549869D01*
X59708382Y-90798693D01*
X59786232Y-91038291D01*
X59900604Y-91262756D01*
X60048673Y-91466557D01*
X60048677Y-91466562D01*
X60226817Y-91644702D01*
X60226822Y-91644706D01*
X60394990Y-91766886D01*
X60430627Y-91792778D01*
X60573656Y-91865655D01*
X60655088Y-91907147D01*
X60655090Y-91907147D01*
X60655093Y-91907149D01*
X60894687Y-91984998D01*
X61143510Y-92024408D01*
X61143511Y-92024408D01*
X61395433Y-92024408D01*
X61395434Y-92024408D01*
X61644257Y-91984998D01*
X61883851Y-91907149D01*
X62108317Y-91792778D01*
X62312128Y-91644701D01*
X62490265Y-91466564D01*
X62638342Y-91262753D01*
X62752713Y-91038287D01*
X62830562Y-90798693D01*
X62869972Y-90549870D01*
X62869972Y-90297946D01*
X62830562Y-90049123D01*
X62752713Y-89809529D01*
X62752711Y-89809526D01*
X62752711Y-89809524D01*
X62711219Y-89728092D01*
X62638342Y-89585063D01*
X62619424Y-89559025D01*
X62490270Y-89381258D01*
X62490266Y-89381253D01*
X62312126Y-89203113D01*
X62312121Y-89203109D01*
X62108320Y-89055040D01*
X62108319Y-89055039D01*
X62108317Y-89055038D01*
X62038219Y-89019321D01*
X61883855Y-88940668D01*
X61644257Y-88862818D01*
X61395434Y-88823408D01*
X61143510Y-88823408D01*
X61019098Y-88843113D01*
X60894686Y-88862818D01*
X60655088Y-88940668D01*
X60430623Y-89055040D01*
X60226822Y-89203109D01*
X60226817Y-89203113D01*
X60048677Y-89381253D01*
X60048673Y-89381258D01*
X59900604Y-89585059D01*
X59786232Y-89809524D01*
X59708382Y-90049122D01*
X59668972Y-90297946D01*
X52749172Y-90297946D01*
X59572342Y-83474776D01*
X59572347Y-83474772D01*
X59582550Y-83464568D01*
X59582552Y-83464568D01*
X59694356Y-83352764D01*
X59771880Y-83218487D01*
X59771882Y-83218485D01*
X59772529Y-83217363D01*
X59773413Y-83215833D01*
X59814336Y-83063105D01*
X59814336Y-82904991D01*
X59814336Y-81225073D01*
X59834021Y-81158034D01*
X59886825Y-81112279D01*
X59955983Y-81102335D01*
X60019539Y-81131360D01*
X60026017Y-81137392D01*
X66130663Y-87242038D01*
X66164148Y-87303361D01*
X66166982Y-87329719D01*
X66166982Y-99342172D01*
X66166981Y-99342190D01*
X66166981Y-99507896D01*
X66166980Y-99507896D01*
X66207904Y-99660626D01*
X66207905Y-99660627D01*
X66209620Y-99663598D01*
X66209624Y-99663612D01*
X66209628Y-99663611D01*
X66286959Y-99797554D01*
X66286963Y-99797559D01*
X66405831Y-99916427D01*
X66405837Y-99916432D01*
X78754471Y-112265066D01*
X78787956Y-112326389D01*
X78782972Y-112396081D01*
X78741100Y-112452014D01*
X78675636Y-112476431D01*
X78619337Y-112467308D01*
X78506893Y-112420732D01*
X78506886Y-112420730D01*
X78506884Y-112420729D01*
X78221925Y-112344375D01*
X78173045Y-112337939D01*
X77929445Y-112305868D01*
X77929438Y-112305868D01*
X77634426Y-112305868D01*
X77634418Y-112305868D01*
X77356017Y-112342521D01*
X77341939Y-112344375D01*
X77167360Y-112391153D01*
X77056980Y-112420729D01*
X77056970Y-112420732D01*
X76784431Y-112533622D01*
X76784421Y-112533626D01*
X76528938Y-112681129D01*
X76294891Y-112860720D01*
X76294884Y-112860726D01*
X76086290Y-113069320D01*
X76086284Y-113069327D01*
X75906693Y-113303374D01*
X75759190Y-113558857D01*
X75759186Y-113558867D01*
X75646296Y-113831406D01*
X75646293Y-113831416D01*
X75569940Y-114116372D01*
X75569938Y-114116383D01*
X75531432Y-114408854D01*
X75531432Y-114703881D01*
X75563503Y-114947481D01*
X75569939Y-114996361D01*
X75644144Y-115273298D01*
X75646293Y-115281319D01*
X75646296Y-115281329D01*
X75759186Y-115553868D01*
X75759190Y-115553878D01*
X75906693Y-115809361D01*
X76086284Y-116043408D01*
X76086290Y-116043415D01*
X76294884Y-116252009D01*
X76294891Y-116252015D01*
X76528938Y-116431606D01*
X76784421Y-116579109D01*
X76784422Y-116579109D01*
X76784425Y-116579111D01*
X77056980Y-116692007D01*
X77341939Y-116768361D01*
X77634426Y-116806868D01*
X77634433Y-116806868D01*
X77929431Y-116806868D01*
X77929438Y-116806868D01*
X78221925Y-116768361D01*
X78506884Y-116692007D01*
X78779439Y-116579111D01*
X79034926Y-116431606D01*
X79268974Y-116252014D01*
X79477578Y-116043410D01*
X79657170Y-115809362D01*
X79804675Y-115553875D01*
X79917571Y-115281320D01*
X79993925Y-114996361D01*
X80032432Y-114703874D01*
X80032432Y-114408862D01*
X79993925Y-114116375D01*
X79917571Y-113831416D01*
X79890698Y-113766540D01*
X79870991Y-113718962D01*
X79863522Y-113649493D01*
X79894797Y-113587013D01*
X79954886Y-113551361D01*
X80024711Y-113553854D01*
X80073233Y-113583828D01*
X80744239Y-114254834D01*
X80777724Y-114316157D01*
X80780558Y-114342515D01*
X80780558Y-126835805D01*
X80760873Y-126902844D01*
X80708069Y-126948599D01*
X80638911Y-126958543D01*
X80637161Y-126958278D01*
X80448058Y-126928328D01*
X80196134Y-126928328D01*
X80071722Y-126948033D01*
X79947310Y-126967738D01*
X79707712Y-127045588D01*
X79483247Y-127159960D01*
X79279446Y-127308029D01*
X79279441Y-127308033D01*
X79101301Y-127486173D01*
X79101297Y-127486178D01*
X78953228Y-127689979D01*
X78838856Y-127914444D01*
X78761006Y-128154042D01*
X78721596Y-128402866D01*
X78721596Y-128654789D01*
X78761006Y-128903613D01*
X78838856Y-129143211D01*
X78896655Y-129256647D01*
X78952893Y-129367020D01*
X78953228Y-129367676D01*
X79101297Y-129571477D01*
X79101301Y-129571482D01*
X79279441Y-129749622D01*
X79279446Y-129749626D01*
X79457213Y-129878780D01*
X79483251Y-129897698D01*
X79626280Y-129970575D01*
X79707712Y-130012067D01*
X79707714Y-130012067D01*
X79707717Y-130012069D01*
X79947311Y-130089918D01*
X80196134Y-130129328D01*
X80196135Y-130129328D01*
X80448057Y-130129328D01*
X80448058Y-130129328D01*
X80696881Y-130089918D01*
X80936475Y-130012069D01*
X80937763Y-130011413D01*
X80942144Y-130009180D01*
X81160941Y-129897698D01*
X81364752Y-129749621D01*
X81542889Y-129571484D01*
X81690966Y-129367673D01*
X81805337Y-129143207D01*
X81883186Y-128903613D01*
X81922596Y-128654790D01*
X81922596Y-128402866D01*
X81883186Y-128154043D01*
X81824004Y-127971902D01*
X81822010Y-127902064D01*
X81854256Y-127845903D01*
X81861578Y-127838582D01*
X81940635Y-127701650D01*
X81974571Y-127575000D01*
X81981558Y-127548924D01*
X81981558Y-127390809D01*
X81981558Y-115520395D01*
X82001243Y-115453356D01*
X82054047Y-115407601D01*
X82123205Y-115397657D01*
X82178441Y-115420076D01*
X82285144Y-115497600D01*
X82439487Y-115576241D01*
X82604231Y-115629770D01*
X82775321Y-115656868D01*
X82775322Y-115656868D01*
X82948542Y-115656868D01*
X82948543Y-115656868D01*
X83119633Y-115629770D01*
X83284377Y-115576241D01*
X83438720Y-115497600D01*
X83578860Y-115395782D01*
X83701346Y-115273296D01*
X83803164Y-115133156D01*
X83881805Y-114978813D01*
X83935334Y-114814069D01*
X83962432Y-114642979D01*
X83962432Y-114469757D01*
X83935334Y-114298667D01*
X83881805Y-114133923D01*
X83803164Y-113979580D01*
X83701346Y-113839440D01*
X83578860Y-113716954D01*
X83438720Y-113615136D01*
X83328265Y-113558857D01*
X83284379Y-113536496D01*
X83284378Y-113536495D01*
X83284377Y-113536495D01*
X83119633Y-113482966D01*
X83119631Y-113482965D01*
X83119630Y-113482965D01*
X82988203Y-113462149D01*
X82948543Y-113455868D01*
X82775321Y-113455868D01*
X82735660Y-113462149D01*
X82604234Y-113482965D01*
X82439484Y-113536496D01*
X82285143Y-113615136D01*
X82228221Y-113656493D01*
X82145004Y-113716954D01*
X82145002Y-113716956D01*
X82145000Y-113716957D01*
X82095417Y-113766540D01*
X82034094Y-113800024D01*
X81964402Y-113795039D01*
X81908469Y-113753167D01*
X81900353Y-113740864D01*
X81861578Y-113673702D01*
X81749774Y-113561898D01*
X81745443Y-113557567D01*
X81745432Y-113557557D01*
X75996252Y-107808377D01*
X75962767Y-107747054D01*
X75967751Y-107677362D01*
X76009623Y-107621429D01*
X76075087Y-107597012D01*
X76083933Y-107596696D01*
X77541663Y-107596696D01*
X77608702Y-107616381D01*
X77629344Y-107633015D01*
X78789773Y-108793444D01*
X78823258Y-108854767D01*
X78820023Y-108919444D01*
X78760842Y-109101582D01*
X78721432Y-109350406D01*
X78721432Y-109602329D01*
X78760842Y-109851153D01*
X78838692Y-110090751D01*
X78953064Y-110315216D01*
X79101133Y-110519017D01*
X79101137Y-110519022D01*
X79279277Y-110697162D01*
X79279282Y-110697166D01*
X79457049Y-110826320D01*
X79483087Y-110845238D01*
X79626116Y-110918115D01*
X79707548Y-110959607D01*
X79707550Y-110959607D01*
X79707553Y-110959609D01*
X79947147Y-111037458D01*
X80195970Y-111076868D01*
X80195971Y-111076868D01*
X80447893Y-111076868D01*
X80447894Y-111076868D01*
X80696717Y-111037458D01*
X80936311Y-110959609D01*
X81160777Y-110845238D01*
X81364588Y-110697161D01*
X81542725Y-110519024D01*
X81690802Y-110315213D01*
X81805173Y-110090747D01*
X81883022Y-109851153D01*
X81922432Y-109602330D01*
X81922432Y-109350406D01*
X81883022Y-109101583D01*
X81805173Y-108861989D01*
X81805171Y-108861986D01*
X81805171Y-108861984D01*
X81763679Y-108780552D01*
X81690802Y-108637523D01*
X81671884Y-108611485D01*
X81542730Y-108433718D01*
X81542726Y-108433713D01*
X81364586Y-108255573D01*
X81364581Y-108255569D01*
X81160780Y-108107500D01*
X81160779Y-108107499D01*
X81160777Y-108107498D01*
X81090679Y-108071781D01*
X80936315Y-107993128D01*
X80696717Y-107915278D01*
X80447894Y-107875868D01*
X80195970Y-107875868D01*
X80071558Y-107895573D01*
X79947146Y-107915278D01*
X79858107Y-107944209D01*
X79765006Y-107974459D01*
X79695166Y-107976454D01*
X79639008Y-107944209D01*
X78332968Y-106638169D01*
X78324779Y-106628831D01*
X78323428Y-106627480D01*
X78211624Y-106515676D01*
X78211621Y-106515674D01*
X78211617Y-106515671D01*
X78074698Y-106436622D01*
X78074694Y-106436620D01*
X78074692Y-106436619D01*
X77921965Y-106395696D01*
X77921964Y-106395696D01*
X77920821Y-106395696D01*
X77920817Y-106395695D01*
X77762703Y-106395695D01*
X77762699Y-106395696D01*
X75360742Y-106395696D01*
X75293703Y-106376011D01*
X75273061Y-106359377D01*
X69176503Y-100262819D01*
X73806936Y-100262819D01*
X73806936Y-102358554D01*
X73806937Y-102358560D01*
X73813344Y-102418167D01*
X73863638Y-102553012D01*
X73863642Y-102553019D01*
X73949888Y-102668228D01*
X73949891Y-102668231D01*
X74065100Y-102754477D01*
X74065107Y-102754481D01*
X74199953Y-102804775D01*
X74199952Y-102804775D01*
X74206880Y-102805519D01*
X74259563Y-102811184D01*
X76355308Y-102811183D01*
X76414919Y-102804775D01*
X76549767Y-102754480D01*
X76664982Y-102668230D01*
X76751232Y-102553015D01*
X76751232Y-102553013D01*
X76753425Y-102550085D01*
X76809359Y-102508214D01*
X76879051Y-102503230D01*
X76925578Y-102524078D01*
X77021264Y-102593598D01*
X77231633Y-102700786D01*
X77456188Y-102773749D01*
X77456187Y-102773749D01*
X77689384Y-102810684D01*
X77925488Y-102810684D01*
X78158683Y-102773749D01*
X78383238Y-102700786D01*
X78593599Y-102593602D01*
X78593605Y-102593598D01*
X78676540Y-102533342D01*
X78676541Y-102533342D01*
X77936845Y-101793646D01*
X78000429Y-101776609D01*
X78114443Y-101710783D01*
X78207535Y-101617691D01*
X78273361Y-101503677D01*
X78290398Y-101440093D01*
X79036706Y-102186401D01*
X79080379Y-102195575D01*
X79122050Y-102231943D01*
X79162919Y-102288194D01*
X79329926Y-102455201D01*
X79521003Y-102594027D01*
X79620427Y-102644686D01*
X79731439Y-102701250D01*
X79731441Y-102701250D01*
X79731444Y-102701252D01*
X79851848Y-102740373D01*
X79956067Y-102774237D01*
X80189339Y-102811184D01*
X80189344Y-102811184D01*
X80425533Y-102811184D01*
X80658804Y-102774237D01*
X80660306Y-102773749D01*
X80883428Y-102701252D01*
X81093869Y-102594027D01*
X81284946Y-102455201D01*
X81451953Y-102288194D01*
X81590779Y-102097117D01*
X81698004Y-101886676D01*
X81770989Y-101662052D01*
X81778015Y-101617691D01*
X81807936Y-101428781D01*
X81807936Y-101192586D01*
X81770989Y-100959315D01*
X81698002Y-100734687D01*
X81590778Y-100524250D01*
X81523818Y-100432088D01*
X81451953Y-100333174D01*
X81284946Y-100166167D01*
X81093869Y-100027341D01*
X80883432Y-99920117D01*
X80658804Y-99847130D01*
X80425533Y-99810184D01*
X80425528Y-99810184D01*
X80189344Y-99810184D01*
X80189339Y-99810184D01*
X79956067Y-99847130D01*
X79731439Y-99920117D01*
X79521002Y-100027341D01*
X79464555Y-100068353D01*
X79329926Y-100166167D01*
X79329924Y-100166169D01*
X79329923Y-100166169D01*
X79162918Y-100333174D01*
X79122051Y-100389423D01*
X79066721Y-100432088D01*
X79034891Y-100436780D01*
X78290398Y-101181274D01*
X78273361Y-101117691D01*
X78207535Y-101003677D01*
X78114443Y-100910585D01*
X78000429Y-100844759D01*
X77936844Y-100827721D01*
X78676541Y-100088024D01*
X78676540Y-100088022D01*
X78593610Y-100027771D01*
X78383238Y-99920581D01*
X78158683Y-99847618D01*
X78158684Y-99847618D01*
X77925488Y-99810684D01*
X77689384Y-99810684D01*
X77456188Y-99847618D01*
X77231633Y-99920581D01*
X77021260Y-100027771D01*
X76925577Y-100097289D01*
X76859770Y-100120769D01*
X76791717Y-100104943D01*
X76753426Y-100071283D01*
X76705279Y-100006968D01*
X76664982Y-99953138D01*
X76664980Y-99953137D01*
X76664980Y-99953136D01*
X76549771Y-99866890D01*
X76549764Y-99866886D01*
X76414918Y-99816592D01*
X76414919Y-99816592D01*
X76355319Y-99810185D01*
X76355317Y-99810184D01*
X76355309Y-99810184D01*
X76355300Y-99810184D01*
X74259565Y-99810184D01*
X74259559Y-99810185D01*
X74199952Y-99816592D01*
X74065107Y-99866886D01*
X74065100Y-99866890D01*
X73949891Y-99953136D01*
X73949888Y-99953139D01*
X73863642Y-100068348D01*
X73863638Y-100068355D01*
X73813344Y-100203201D01*
X73806937Y-100262800D01*
X73806936Y-100262819D01*
X69176503Y-100262819D01*
X67805301Y-98891617D01*
X67771816Y-98830294D01*
X67768982Y-98803936D01*
X67768982Y-92162819D01*
X70706936Y-92162819D01*
X70706936Y-95458554D01*
X70706937Y-95458560D01*
X70713344Y-95518167D01*
X70763638Y-95653012D01*
X70763642Y-95653019D01*
X70849888Y-95768228D01*
X70849891Y-95768231D01*
X70965100Y-95854477D01*
X70965107Y-95854481D01*
X71099953Y-95904775D01*
X71099952Y-95904775D01*
X71106880Y-95905519D01*
X71159563Y-95911184D01*
X73255308Y-95911183D01*
X73314919Y-95904775D01*
X73449767Y-95854480D01*
X73564982Y-95768230D01*
X73651232Y-95653015D01*
X73701527Y-95518167D01*
X73707936Y-95458557D01*
X73707935Y-92162812D01*
X73701527Y-92103201D01*
X73682473Y-92052115D01*
X73651233Y-91968355D01*
X73651229Y-91968348D01*
X73564983Y-91853139D01*
X73564980Y-91853136D01*
X73449771Y-91766890D01*
X73449764Y-91766886D01*
X73314918Y-91716592D01*
X73314919Y-91716592D01*
X73255319Y-91710185D01*
X73255317Y-91710184D01*
X73255309Y-91710184D01*
X73255300Y-91710184D01*
X71159565Y-91710184D01*
X71159559Y-91710185D01*
X71099952Y-91716592D01*
X70965107Y-91766886D01*
X70965100Y-91766890D01*
X70849891Y-91853136D01*
X70849888Y-91853139D01*
X70763642Y-91968348D01*
X70763638Y-91968355D01*
X70713344Y-92103201D01*
X70707431Y-92158205D01*
X70706937Y-92162807D01*
X70706936Y-92162819D01*
X67768982Y-92162819D01*
X67768982Y-85461226D01*
X67768983Y-85461213D01*
X67768983Y-85293110D01*
X67728058Y-85140380D01*
X67728055Y-85140375D01*
X67649006Y-85003456D01*
X67649000Y-85003448D01*
X62747329Y-80101778D01*
X62713844Y-80040455D01*
X62717080Y-79975777D01*
X62721729Y-79961470D01*
X62753752Y-79759288D01*
X62753752Y-79554584D01*
X62721729Y-79352402D01*
X62658472Y-79157717D01*
X62658470Y-79157714D01*
X62658470Y-79157712D01*
X62624755Y-79091543D01*
X62565539Y-78975326D01*
X62533758Y-78931583D01*
X62445223Y-78809722D01*
X62300465Y-78664964D01*
X62134866Y-78544651D01*
X62131365Y-78542867D01*
X62103337Y-78528586D01*
X62082882Y-78509267D01*
X62060365Y-78492411D01*
X62057826Y-78485603D01*
X62052542Y-78480613D01*
X62045778Y-78453301D01*
X62035949Y-78426946D01*
X62037493Y-78419845D01*
X62035747Y-78412792D01*
X62044821Y-78386162D01*
X62050802Y-78358673D01*
X62057019Y-78350367D01*
X62058284Y-78346657D01*
X62071944Y-78330429D01*
X62104101Y-78298272D01*
X62165424Y-78264789D01*
X62191780Y-78261956D01*
X63353521Y-78261956D01*
X63420560Y-78281641D01*
X63441202Y-78298275D01*
X64355020Y-79212093D01*
X64388505Y-79273416D01*
X64385271Y-79338091D01*
X64380620Y-79352404D01*
X64348598Y-79554584D01*
X64348598Y-79759287D01*
X64380620Y-79961470D01*
X64443879Y-80156159D01*
X64536813Y-80338549D01*
X64657126Y-80504149D01*
X64801884Y-80648907D01*
X64940976Y-80749961D01*
X64967488Y-80769223D01*
X65083705Y-80828439D01*
X65149874Y-80862154D01*
X65149876Y-80862154D01*
X65149879Y-80862156D01*
X65254235Y-80896063D01*
X65344563Y-80925413D01*
X65413566Y-80936342D01*
X65546746Y-80957436D01*
X65546747Y-80957436D01*
X65751449Y-80957436D01*
X65751450Y-80957436D01*
X65953632Y-80925413D01*
X66148317Y-80862156D01*
X66330708Y-80769223D01*
X66423688Y-80701668D01*
X66496311Y-80648907D01*
X66496313Y-80648904D01*
X66496317Y-80648902D01*
X66641064Y-80504155D01*
X66641066Y-80504151D01*
X66641069Y-80504149D01*
X66693830Y-80431526D01*
X66761385Y-80338546D01*
X66854318Y-80156155D01*
X66917575Y-79961470D01*
X66949598Y-79759288D01*
X66949598Y-79554584D01*
X66917575Y-79352402D01*
X66854318Y-79157717D01*
X66854316Y-79157714D01*
X66854316Y-79157712D01*
X66820601Y-79091543D01*
X66761385Y-78975326D01*
X66729604Y-78931583D01*
X66641069Y-78809722D01*
X66496311Y-78664964D01*
X66330711Y-78544651D01*
X66330710Y-78544650D01*
X66330708Y-78544649D01*
X66256773Y-78506977D01*
X66148321Y-78451717D01*
X65953632Y-78388458D01*
X65779093Y-78360814D01*
X65751450Y-78356436D01*
X65546746Y-78356436D01*
X65508697Y-78362462D01*
X65344566Y-78388458D01*
X65335815Y-78391301D01*
X65330252Y-78393109D01*
X65260411Y-78395103D01*
X65204255Y-78362858D01*
X64141208Y-77299811D01*
X64141206Y-77299808D01*
X64022335Y-77180937D01*
X64022334Y-77180936D01*
X63935522Y-77130816D01*
X63935522Y-77130815D01*
X63935518Y-77130814D01*
X63885403Y-77101879D01*
X63732675Y-77060955D01*
X63574561Y-77060955D01*
X63566965Y-77060955D01*
X63566949Y-77060956D01*
X61978352Y-77060956D01*
X61978336Y-77060955D01*
X61970740Y-77060955D01*
X61812625Y-77060955D01*
X61659897Y-77101879D01*
X61659895Y-77101879D01*
X61659895Y-77101880D01*
X61522963Y-77180938D01*
X60026017Y-78677885D01*
X59964694Y-78711370D01*
X59895002Y-78706386D01*
X59839069Y-78664514D01*
X59814652Y-78599050D01*
X59814336Y-78590204D01*
X59814336Y-71436919D01*
X60152752Y-71436919D01*
X60152752Y-72636937D01*
X60152753Y-72636954D01*
X60163252Y-72739732D01*
X60163253Y-72739735D01*
X60211108Y-72884149D01*
X60218438Y-72906270D01*
X60310540Y-73055592D01*
X60434596Y-73179648D01*
X60583918Y-73271750D01*
X60750455Y-73326935D01*
X60853243Y-73337436D01*
X62053260Y-73337435D01*
X62156049Y-73326935D01*
X62322586Y-73271750D01*
X62471908Y-73179648D01*
X62595964Y-73055592D01*
X62688066Y-72906270D01*
X62743251Y-72739733D01*
X62753752Y-72636945D01*
X62753751Y-71436928D01*
X62753750Y-71436919D01*
X64348598Y-71436919D01*
X64348598Y-72636937D01*
X64348599Y-72636954D01*
X64359098Y-72739732D01*
X64359099Y-72739735D01*
X64406954Y-72884149D01*
X64414284Y-72906270D01*
X64506386Y-73055592D01*
X64630442Y-73179648D01*
X64779764Y-73271750D01*
X64946301Y-73326935D01*
X65049089Y-73337436D01*
X66249106Y-73337435D01*
X66351895Y-73326935D01*
X66518432Y-73271750D01*
X66667754Y-73179648D01*
X66791810Y-73055592D01*
X66883912Y-72906270D01*
X66939097Y-72739733D01*
X66949598Y-72636945D01*
X66949597Y-71436928D01*
X66939097Y-71334139D01*
X66883912Y-71167602D01*
X66791810Y-71018280D01*
X66667754Y-70894224D01*
X66518432Y-70802122D01*
X66351895Y-70746937D01*
X66351893Y-70746936D01*
X66249108Y-70736436D01*
X65049096Y-70736436D01*
X65049079Y-70736437D01*
X64946301Y-70746936D01*
X64946298Y-70746937D01*
X64779766Y-70802121D01*
X64779761Y-70802123D01*
X64630440Y-70894225D01*
X64506387Y-71018278D01*
X64414285Y-71167599D01*
X64414284Y-71167602D01*
X64359099Y-71334139D01*
X64359099Y-71334140D01*
X64359098Y-71334140D01*
X64348598Y-71436919D01*
X62753750Y-71436919D01*
X62743251Y-71334139D01*
X62688066Y-71167602D01*
X62595964Y-71018280D01*
X62471908Y-70894224D01*
X62322586Y-70802122D01*
X62156049Y-70746937D01*
X62156047Y-70746936D01*
X62053262Y-70736436D01*
X60853250Y-70736436D01*
X60853233Y-70736437D01*
X60750455Y-70746936D01*
X60750452Y-70746937D01*
X60583920Y-70802121D01*
X60583915Y-70802123D01*
X60434594Y-70894225D01*
X60310541Y-71018278D01*
X60218439Y-71167599D01*
X60218438Y-71167602D01*
X60163253Y-71334139D01*
X60163253Y-71334140D01*
X60163252Y-71334140D01*
X60152752Y-71436919D01*
X59814336Y-71436919D01*
X59814336Y-69977665D01*
X59834021Y-69910626D01*
X59850655Y-69889984D01*
X63479336Y-66261303D01*
X63540659Y-66227818D01*
X63567017Y-66224984D01*
X69642002Y-66224984D01*
X69709041Y-66244669D01*
X69745923Y-66282350D01*
X69746081Y-66282236D01*
X69746859Y-66283307D01*
X69747732Y-66284199D01*
X69748942Y-66286174D01*
X69748945Y-66286178D01*
X69865751Y-66446948D01*
X70006268Y-66587465D01*
X70167038Y-66704271D01*
X70233380Y-66738074D01*
X70344099Y-66794489D01*
X70344102Y-66794490D01*
X70438598Y-66825193D01*
X70533096Y-66855897D01*
X70729371Y-66886984D01*
X70729372Y-66886984D01*
X70928092Y-66886984D01*
X70928093Y-66886984D01*
X71124368Y-66855897D01*
X71128911Y-66854421D01*
X71198752Y-66852424D01*
X71258586Y-66888503D01*
X71289415Y-66951203D01*
X71291232Y-66972351D01*
X71291232Y-71496740D01*
X71271547Y-71563779D01*
X71218743Y-71609534D01*
X71149585Y-71619478D01*
X71086029Y-71590453D01*
X71053604Y-71541556D01*
X71052026Y-71542210D01*
X71050166Y-71537718D01*
X70998810Y-71436927D01*
X70957232Y-71355326D01*
X70925064Y-71311050D01*
X70836916Y-71189722D01*
X70692158Y-71044964D01*
X70526558Y-70924651D01*
X70526557Y-70924650D01*
X70526555Y-70924649D01*
X70466843Y-70894224D01*
X70344168Y-70831717D01*
X70149479Y-70768458D01*
X69974940Y-70740814D01*
X69947297Y-70736436D01*
X69742593Y-70736436D01*
X69718274Y-70740287D01*
X69540410Y-70768458D01*
X69345721Y-70831717D01*
X69163331Y-70924651D01*
X68997731Y-71044964D01*
X68852973Y-71189722D01*
X68732660Y-71355322D01*
X68639726Y-71537712D01*
X68576467Y-71732401D01*
X68544445Y-71934584D01*
X68544445Y-72139287D01*
X68576467Y-72341470D01*
X68639726Y-72536159D01*
X68732660Y-72718549D01*
X68852973Y-72884149D01*
X68997731Y-73028907D01*
X69098384Y-73102034D01*
X69163335Y-73149223D01*
X69254632Y-73195741D01*
X69345721Y-73242154D01*
X69345723Y-73242154D01*
X69345726Y-73242156D01*
X69436801Y-73271748D01*
X69540410Y-73305413D01*
X69622905Y-73318479D01*
X69742593Y-73337436D01*
X69742594Y-73337436D01*
X69947296Y-73337436D01*
X69947297Y-73337436D01*
X70149479Y-73305413D01*
X70344164Y-73242156D01*
X70526555Y-73149223D01*
X70655427Y-73055593D01*
X70692158Y-73028907D01*
X70692160Y-73028904D01*
X70692164Y-73028902D01*
X70836911Y-72884155D01*
X70836913Y-72884151D01*
X70836916Y-72884149D01*
X70941837Y-72739735D01*
X70957232Y-72718546D01*
X71050165Y-72536155D01*
X71050166Y-72536153D01*
X71052026Y-72531662D01*
X71053713Y-72532360D01*
X71088737Y-72481139D01*
X71153095Y-72453940D01*
X71221941Y-72465853D01*
X71273418Y-72513096D01*
X71291232Y-72577131D01*
X71291232Y-81656740D01*
X71271547Y-81723779D01*
X71218743Y-81769534D01*
X71149585Y-81779478D01*
X71086029Y-81750453D01*
X71053604Y-81701556D01*
X71052026Y-81702210D01*
X71050166Y-81697718D01*
X71018780Y-81636121D01*
X70957232Y-81515326D01*
X70949501Y-81504685D01*
X70836916Y-81349722D01*
X70692158Y-81204964D01*
X70526558Y-81084651D01*
X70526557Y-81084650D01*
X70526555Y-81084649D01*
X70469598Y-81055627D01*
X70344168Y-80991717D01*
X70149479Y-80928458D01*
X69952638Y-80897282D01*
X69947297Y-80896436D01*
X69742593Y-80896436D01*
X69737252Y-80897282D01*
X69540410Y-80928458D01*
X69345721Y-80991717D01*
X69163331Y-81084651D01*
X68997731Y-81204964D01*
X68852973Y-81349722D01*
X68732660Y-81515322D01*
X68639726Y-81697712D01*
X68576467Y-81892401D01*
X68544445Y-82094584D01*
X68544445Y-82299287D01*
X68576467Y-82501470D01*
X68639726Y-82696159D01*
X68732660Y-82878549D01*
X68852973Y-83044149D01*
X68997731Y-83188907D01*
X69152694Y-83301492D01*
X69163335Y-83309223D01*
X69248787Y-83352763D01*
X69345721Y-83402154D01*
X69345723Y-83402154D01*
X69345726Y-83402156D01*
X69450082Y-83436063D01*
X69540410Y-83465413D01*
X69599500Y-83474772D01*
X69742593Y-83497436D01*
X69742594Y-83497436D01*
X69947296Y-83497436D01*
X69947297Y-83497436D01*
X70149479Y-83465413D01*
X70344164Y-83402156D01*
X70526555Y-83309223D01*
X70651437Y-83218492D01*
X70692158Y-83188907D01*
X70692160Y-83188904D01*
X70692164Y-83188902D01*
X70836911Y-83044155D01*
X70836913Y-83044151D01*
X70836916Y-83044149D01*
X70889677Y-82971526D01*
X70957232Y-82878546D01*
X71050165Y-82696155D01*
X71050166Y-82696153D01*
X71052026Y-82691662D01*
X71053713Y-82692360D01*
X71088737Y-82641139D01*
X71153095Y-82613940D01*
X71221941Y-82625853D01*
X71273418Y-82673096D01*
X71291232Y-82737131D01*
X71291232Y-83780894D01*
X71291231Y-83780912D01*
X71291231Y-83946618D01*
X71291230Y-83946618D01*
X71332156Y-84099353D01*
X71332157Y-84099354D01*
X71348515Y-84127686D01*
X71348516Y-84127687D01*
X71411209Y-84236276D01*
X71411213Y-84236281D01*
X71530081Y-84355149D01*
X71530087Y-84355154D01*
X72700779Y-85525846D01*
X72700789Y-85525857D01*
X72705119Y-85530187D01*
X72705120Y-85530188D01*
X72816924Y-85641992D01*
X72816926Y-85641993D01*
X72816930Y-85641996D01*
X72901127Y-85690607D01*
X72901128Y-85690607D01*
X72953855Y-85721049D01*
X73106582Y-85761972D01*
X73106583Y-85761972D01*
X73971286Y-85761972D01*
X74038325Y-85781657D01*
X74084080Y-85834461D01*
X74094024Y-85903619D01*
X74071604Y-85958858D01*
X74024093Y-86024250D01*
X73916869Y-86234687D01*
X73843882Y-86459315D01*
X73806936Y-86692586D01*
X73806936Y-86928781D01*
X73843882Y-87162052D01*
X73916869Y-87386680D01*
X74024093Y-87597117D01*
X74162919Y-87788194D01*
X74329926Y-87955201D01*
X74521003Y-88094027D01*
X74620427Y-88144686D01*
X74731439Y-88201250D01*
X74731441Y-88201250D01*
X74731444Y-88201252D01*
X74851848Y-88240373D01*
X74956067Y-88274237D01*
X75189339Y-88311184D01*
X75189344Y-88311184D01*
X75425533Y-88311184D01*
X75658804Y-88274237D01*
X75883428Y-88201252D01*
X76093869Y-88094027D01*
X76284946Y-87955201D01*
X76451953Y-87788194D01*
X76590779Y-87597117D01*
X76698004Y-87386676D01*
X76770989Y-87162052D01*
X76803138Y-86959070D01*
X76833067Y-86895936D01*
X76892378Y-86859004D01*
X76962241Y-86860002D01*
X77013292Y-86890787D01*
X77297563Y-87175058D01*
X77297573Y-87175069D01*
X77301903Y-87179399D01*
X77301904Y-87179400D01*
X77413708Y-87291204D01*
X77480420Y-87329719D01*
X77500519Y-87341323D01*
X77500521Y-87341325D01*
X77538575Y-87363295D01*
X77550639Y-87370261D01*
X77703367Y-87411185D01*
X77703370Y-87411185D01*
X77869077Y-87411185D01*
X77869093Y-87411184D01*
X78853368Y-87411184D01*
X78920407Y-87430869D01*
X78963852Y-87478887D01*
X79024093Y-87597117D01*
X79162919Y-87788194D01*
X79329926Y-87955201D01*
X79521003Y-88094027D01*
X79620427Y-88144686D01*
X79731439Y-88201250D01*
X79731441Y-88201250D01*
X79731444Y-88201252D01*
X79851848Y-88240373D01*
X79956067Y-88274237D01*
X80189339Y-88311184D01*
X80189344Y-88311184D01*
X80425533Y-88311184D01*
X80658804Y-88274237D01*
X80883428Y-88201252D01*
X81093869Y-88094027D01*
X81284946Y-87955201D01*
X81451953Y-87788194D01*
X81590779Y-87597117D01*
X81698004Y-87386676D01*
X81770989Y-87162052D01*
X81807936Y-86928781D01*
X81807936Y-86692586D01*
X81770989Y-86459315D01*
X81698001Y-86234684D01*
X81672279Y-86184202D01*
X81659383Y-86115533D01*
X81685660Y-86050793D01*
X81742766Y-86010536D01*
X81782764Y-86003908D01*
X83954115Y-86003908D01*
X84021154Y-86023593D01*
X84041796Y-86040227D01*
X84986137Y-86984568D01*
X85019622Y-87045891D01*
X85022456Y-87072249D01*
X85022456Y-91824522D01*
X85002771Y-91891561D01*
X84949967Y-91937316D01*
X84880809Y-91947260D01*
X84817253Y-91918235D01*
X84799190Y-91898834D01*
X84793745Y-91891561D01*
X84764982Y-91853138D01*
X84764980Y-91853137D01*
X84764980Y-91853136D01*
X84649771Y-91766890D01*
X84649764Y-91766886D01*
X84514918Y-91716592D01*
X84514919Y-91716592D01*
X84455319Y-91710185D01*
X84455317Y-91710184D01*
X84455309Y-91710184D01*
X84455300Y-91710184D01*
X82359565Y-91710184D01*
X82359559Y-91710185D01*
X82299952Y-91716592D01*
X82165107Y-91766886D01*
X82165100Y-91766890D01*
X82049891Y-91853136D01*
X82049888Y-91853139D01*
X81963642Y-91968348D01*
X81963638Y-91968355D01*
X81913344Y-92103201D01*
X81907431Y-92158205D01*
X81906937Y-92162807D01*
X81906936Y-92162819D01*
X81906936Y-95458554D01*
X81906937Y-95458560D01*
X81913344Y-95518167D01*
X81963638Y-95653012D01*
X81963642Y-95653019D01*
X82049888Y-95768228D01*
X82049891Y-95768231D01*
X82165100Y-95854477D01*
X82165107Y-95854481D01*
X82299953Y-95904775D01*
X82299952Y-95904775D01*
X82306880Y-95905519D01*
X82359563Y-95911184D01*
X84455308Y-95911183D01*
X84514919Y-95904775D01*
X84649767Y-95854480D01*
X84764982Y-95768230D01*
X84799191Y-95722532D01*
X84855123Y-95680663D01*
X84924814Y-95675679D01*
X84986137Y-95709164D01*
X85019622Y-95770487D01*
X85022456Y-95796845D01*
X85022456Y-134760319D01*
X85002771Y-134827358D01*
X84986137Y-134848000D01*
X83331340Y-136502797D01*
X83270017Y-136536282D01*
X83243659Y-136539116D01*
X76751873Y-136539116D01*
X76684834Y-136519431D01*
X76664192Y-136502797D01*
X76009915Y-135848520D01*
X75976430Y-135787197D01*
X75973596Y-135760839D01*
X75973596Y-135282379D01*
X75993281Y-135215340D01*
X76046085Y-135169585D01*
X76115243Y-135159641D01*
X76178799Y-135188666D01*
X76185277Y-135194698D01*
X76295048Y-135304469D01*
X76295055Y-135304475D01*
X76529102Y-135484066D01*
X76784585Y-135631569D01*
X76784586Y-135631569D01*
X76784589Y-135631571D01*
X76995392Y-135718888D01*
X77055550Y-135743807D01*
X77057144Y-135744467D01*
X77342103Y-135820821D01*
X77620511Y-135857474D01*
X77629599Y-135858671D01*
X77634590Y-135859328D01*
X77634597Y-135859328D01*
X77929595Y-135859328D01*
X77929602Y-135859328D01*
X78222089Y-135820821D01*
X78507048Y-135744467D01*
X78779603Y-135631571D01*
X79035090Y-135484066D01*
X79269138Y-135304474D01*
X79477742Y-135095870D01*
X79657334Y-134861822D01*
X79804839Y-134606335D01*
X79917735Y-134333780D01*
X79994089Y-134048821D01*
X80032596Y-133756334D01*
X80032596Y-133522217D01*
X81761596Y-133522217D01*
X81761596Y-133695439D01*
X81788694Y-133866529D01*
X81842223Y-134031273D01*
X81920864Y-134185616D01*
X82022682Y-134325756D01*
X82145168Y-134448242D01*
X82285308Y-134550060D01*
X82439651Y-134628701D01*
X82604395Y-134682230D01*
X82775485Y-134709328D01*
X82775486Y-134709328D01*
X82948706Y-134709328D01*
X82948707Y-134709328D01*
X83119797Y-134682230D01*
X83284541Y-134628701D01*
X83438884Y-134550060D01*
X83579024Y-134448242D01*
X83701510Y-134325756D01*
X83803328Y-134185616D01*
X83881969Y-134031273D01*
X83935498Y-133866529D01*
X83962596Y-133695439D01*
X83962596Y-133522217D01*
X83935498Y-133351127D01*
X83881969Y-133186383D01*
X83803328Y-133032040D01*
X83701510Y-132891900D01*
X83579024Y-132769414D01*
X83438884Y-132667596D01*
X83284541Y-132588955D01*
X83119797Y-132535426D01*
X83119795Y-132535425D01*
X83119794Y-132535425D01*
X82988367Y-132514609D01*
X82948707Y-132508328D01*
X82775485Y-132508328D01*
X82735824Y-132514609D01*
X82604398Y-132535425D01*
X82439648Y-132588956D01*
X82285307Y-132667596D01*
X82229288Y-132708297D01*
X82145168Y-132769414D01*
X82145166Y-132769416D01*
X82145165Y-132769416D01*
X82022684Y-132891897D01*
X82022684Y-132891898D01*
X82022682Y-132891900D01*
X81978955Y-132952084D01*
X81920864Y-133032039D01*
X81842224Y-133186380D01*
X81788693Y-133351130D01*
X81771346Y-133460658D01*
X81761596Y-133522217D01*
X80032596Y-133522217D01*
X80032596Y-133461322D01*
X79994089Y-133168835D01*
X79917735Y-132883876D01*
X79804839Y-132611321D01*
X79804460Y-132610665D01*
X79657334Y-132355834D01*
X79477743Y-132121787D01*
X79477737Y-132121780D01*
X79269143Y-131913186D01*
X79269136Y-131913180D01*
X79035089Y-131733589D01*
X78779606Y-131586086D01*
X78779596Y-131586082D01*
X78507057Y-131473192D01*
X78507050Y-131473190D01*
X78507048Y-131473189D01*
X78222089Y-131396835D01*
X78173209Y-131390399D01*
X77929609Y-131358328D01*
X77929602Y-131358328D01*
X77634590Y-131358328D01*
X77634582Y-131358328D01*
X77356181Y-131394981D01*
X77342103Y-131396835D01*
X77167524Y-131443613D01*
X77057144Y-131473189D01*
X77057134Y-131473192D01*
X76784595Y-131586082D01*
X76784585Y-131586086D01*
X76529102Y-131733589D01*
X76295055Y-131913180D01*
X76295048Y-131913186D01*
X76185277Y-132022958D01*
X76123954Y-132056443D01*
X76054262Y-132051459D01*
X75998329Y-132009587D01*
X75973912Y-131944123D01*
X75973596Y-131935277D01*
X75973596Y-129608673D01*
X75973596Y-129608671D01*
X75946551Y-129507738D01*
X75932673Y-129455943D01*
X75881331Y-129367017D01*
X75853616Y-129319012D01*
X75741812Y-129207208D01*
X75741811Y-129207207D01*
X75737481Y-129202877D01*
X75737470Y-129202867D01*
X74608751Y-128074148D01*
X74575266Y-128012825D01*
X74572432Y-127986467D01*
X74572432Y-113582668D01*
X74592117Y-113515629D01*
X74640136Y-113472183D01*
X74810777Y-113385238D01*
X75014588Y-113237161D01*
X75192725Y-113059024D01*
X75340802Y-112855213D01*
X75455173Y-112630747D01*
X75533022Y-112391153D01*
X75572432Y-112142330D01*
X75572432Y-111890406D01*
X75533022Y-111641583D01*
X75455173Y-111401989D01*
X75455171Y-111401986D01*
X75455171Y-111401984D01*
X75413679Y-111320552D01*
X75340802Y-111177523D01*
X75239039Y-111037458D01*
X75192730Y-110973718D01*
X75192726Y-110973713D01*
X75014586Y-110795573D01*
X75014581Y-110795569D01*
X74810780Y-110647500D01*
X74810779Y-110647499D01*
X74810777Y-110647498D01*
X74740679Y-110611781D01*
X74586315Y-110533128D01*
X74346717Y-110455278D01*
X74097894Y-110415868D01*
X73845970Y-110415868D01*
X73721558Y-110435573D01*
X73597146Y-110455278D01*
X73357548Y-110533128D01*
X73133083Y-110647500D01*
X72929282Y-110795569D01*
X72929277Y-110795573D01*
X72751137Y-110973713D01*
X72751133Y-110973718D01*
X72603064Y-111177519D01*
X72516117Y-111348163D01*
X72468143Y-111398959D01*
X72405632Y-111415868D01*
X56485772Y-111415868D01*
X56418733Y-111396183D01*
X56375287Y-111348163D01*
X56288342Y-111177523D01*
X56186579Y-111037458D01*
X56140270Y-110973718D01*
X56140266Y-110973713D01*
X55962126Y-110795573D01*
X55962121Y-110795569D01*
X55758320Y-110647500D01*
X55758319Y-110647499D01*
X55758317Y-110647498D01*
X55688219Y-110611781D01*
X55533855Y-110533128D01*
X55294257Y-110455278D01*
X55045434Y-110415868D01*
X54793510Y-110415868D01*
X54669098Y-110435573D01*
X54544686Y-110455278D01*
X54305088Y-110533128D01*
X54080623Y-110647500D01*
X53876822Y-110795569D01*
X53876817Y-110795573D01*
X53698677Y-110973713D01*
X53698673Y-110973718D01*
X53550604Y-111177519D01*
X53463657Y-111348163D01*
X53415683Y-111398959D01*
X53353172Y-111415868D01*
X37434624Y-111415868D01*
X37367585Y-111396183D01*
X37324139Y-111348163D01*
X37237194Y-111177523D01*
X37135431Y-111037458D01*
X37089122Y-110973718D01*
X37089118Y-110973713D01*
X36910978Y-110795573D01*
X36910973Y-110795569D01*
X36707172Y-110647500D01*
X36707171Y-110647499D01*
X36707169Y-110647498D01*
X36637071Y-110611781D01*
X36482707Y-110533128D01*
X36243109Y-110455278D01*
X35994286Y-110415868D01*
X35742362Y-110415868D01*
X35617950Y-110435573D01*
X35493538Y-110455278D01*
X35253940Y-110533128D01*
X35029475Y-110647500D01*
X34825674Y-110795569D01*
X34825669Y-110795573D01*
X34647529Y-110973713D01*
X34647525Y-110973718D01*
X34499456Y-111177519D01*
X34385084Y-111401984D01*
X34307234Y-111641582D01*
X34267824Y-111890406D01*
X34267824Y-112142329D01*
X34307234Y-112391153D01*
X34385084Y-112630751D01*
X34450184Y-112758515D01*
X34491317Y-112839244D01*
X34499456Y-112855216D01*
X34647525Y-113059017D01*
X34647529Y-113059022D01*
X34647531Y-113059024D01*
X34825668Y-113237161D01*
X34825669Y-113237162D01*
X34825668Y-113237162D01*
X34831985Y-113241751D01*
X34874651Y-113297082D01*
X34880629Y-113366695D01*
X34848023Y-113428490D01*
X34787184Y-113462847D01*
X34739702Y-113464542D01*
X34684935Y-113455868D01*
X34511713Y-113455868D01*
X34472052Y-113462149D01*
X34340626Y-113482965D01*
X34175876Y-113536496D01*
X34021535Y-113615136D01*
X33964613Y-113656493D01*
X33881396Y-113716954D01*
X33881394Y-113716956D01*
X33881393Y-113716956D01*
X33758912Y-113839437D01*
X33758912Y-113839438D01*
X33758910Y-113839440D01*
X33715183Y-113899624D01*
X33657092Y-113979579D01*
X33578452Y-114133920D01*
X33524921Y-114298670D01*
X33517977Y-114342515D01*
X33497824Y-114469757D01*
X33497824Y-114642979D01*
X33524922Y-114814069D01*
X33578451Y-114978813D01*
X33657092Y-115133156D01*
X33758910Y-115273296D01*
X33881396Y-115395782D01*
X34021536Y-115497600D01*
X34175879Y-115576241D01*
X34340623Y-115629770D01*
X34511713Y-115656868D01*
X34511714Y-115656868D01*
X34684934Y-115656868D01*
X34684935Y-115656868D01*
X34856025Y-115629770D01*
X35020769Y-115576241D01*
X35175112Y-115497600D01*
X35315252Y-115395782D01*
X35437738Y-115273296D01*
X35539556Y-115133156D01*
X35618197Y-114978813D01*
X35671726Y-114814069D01*
X35698824Y-114642979D01*
X35698824Y-114469757D01*
X35671726Y-114298667D01*
X35618197Y-114133923D01*
X35539556Y-113979580D01*
X35437738Y-113839440D01*
X35385806Y-113787508D01*
X35352321Y-113726185D01*
X35357305Y-113656493D01*
X35399177Y-113600560D01*
X35464641Y-113576143D01*
X35492885Y-113577354D01*
X35493536Y-113577457D01*
X35493539Y-113577458D01*
X35742362Y-113616868D01*
X35742363Y-113616868D01*
X35994285Y-113616868D01*
X35994286Y-113616868D01*
X36243109Y-113577458D01*
X36482703Y-113499609D01*
X36707169Y-113385238D01*
X36910980Y-113237161D01*
X37089117Y-113059024D01*
X37237194Y-112855213D01*
X37324139Y-112684572D01*
X37372113Y-112633777D01*
X37434624Y-112616868D01*
X38143786Y-112616868D01*
X38210825Y-112636553D01*
X38256580Y-112689357D01*
X38266524Y-112758515D01*
X38237499Y-112822071D01*
X38219272Y-112839244D01*
X38191283Y-112860720D01*
X38191276Y-112860726D01*
X37982682Y-113069320D01*
X37982676Y-113069327D01*
X37803085Y-113303374D01*
X37655582Y-113558857D01*
X37655578Y-113558867D01*
X37542688Y-113831406D01*
X37542685Y-113831416D01*
X37466332Y-114116372D01*
X37466330Y-114116383D01*
X37427824Y-114408854D01*
X37427824Y-114703881D01*
X37459895Y-114947481D01*
X37466331Y-114996361D01*
X37540536Y-115273298D01*
X37542685Y-115281319D01*
X37542688Y-115281329D01*
X37655578Y-115553868D01*
X37655582Y-115553878D01*
X37803085Y-115809361D01*
X37982676Y-116043408D01*
X37982682Y-116043415D01*
X38191276Y-116252009D01*
X38191283Y-116252015D01*
X38425330Y-116431606D01*
X38680813Y-116579109D01*
X38680814Y-116579109D01*
X38680817Y-116579111D01*
X38953372Y-116692007D01*
X39238331Y-116768361D01*
X39530818Y-116806868D01*
X39530825Y-116806868D01*
X39825823Y-116806868D01*
X39825830Y-116806868D01*
X40118317Y-116768361D01*
X40403276Y-116692007D01*
X40675831Y-116579111D01*
X40931318Y-116431606D01*
X41165366Y-116252014D01*
X41373970Y-116043410D01*
X41553562Y-115809362D01*
X41701067Y-115553875D01*
X41813963Y-115281320D01*
X41890317Y-114996361D01*
X41928824Y-114703874D01*
X41928824Y-114469757D01*
X43657824Y-114469757D01*
X43657824Y-114642979D01*
X43684922Y-114814069D01*
X43738451Y-114978813D01*
X43817092Y-115133156D01*
X43918910Y-115273296D01*
X44041396Y-115395782D01*
X44181536Y-115497600D01*
X44335879Y-115576241D01*
X44500623Y-115629770D01*
X44671713Y-115656868D01*
X44671714Y-115656868D01*
X44844934Y-115656868D01*
X44844935Y-115656868D01*
X45016025Y-115629770D01*
X45180769Y-115576241D01*
X45335112Y-115497600D01*
X45475252Y-115395782D01*
X45597738Y-115273296D01*
X45699556Y-115133156D01*
X45778197Y-114978813D01*
X45831726Y-114814069D01*
X45858824Y-114642979D01*
X45858824Y-114469757D01*
X45831726Y-114298667D01*
X45778197Y-114133923D01*
X45699556Y-113979580D01*
X45597738Y-113839440D01*
X45475252Y-113716954D01*
X45335112Y-113615136D01*
X45224657Y-113558857D01*
X45180771Y-113536496D01*
X45180770Y-113536495D01*
X45180769Y-113536495D01*
X45016025Y-113482966D01*
X45016023Y-113482965D01*
X45016022Y-113482965D01*
X44884595Y-113462149D01*
X44844935Y-113455868D01*
X44671713Y-113455868D01*
X44632052Y-113462149D01*
X44500626Y-113482965D01*
X44335876Y-113536496D01*
X44181535Y-113615136D01*
X44124613Y-113656493D01*
X44041396Y-113716954D01*
X44041394Y-113716956D01*
X44041393Y-113716956D01*
X43918912Y-113839437D01*
X43918912Y-113839438D01*
X43918910Y-113839440D01*
X43875183Y-113899624D01*
X43817092Y-113979579D01*
X43738452Y-114133920D01*
X43684921Y-114298670D01*
X43677977Y-114342515D01*
X43657824Y-114469757D01*
X41928824Y-114469757D01*
X41928824Y-114408862D01*
X41890317Y-114116375D01*
X41813963Y-113831416D01*
X41701067Y-113558861D01*
X41698176Y-113553854D01*
X41553562Y-113303374D01*
X41373971Y-113069327D01*
X41373965Y-113069320D01*
X41165371Y-112860726D01*
X41165364Y-112860720D01*
X41137376Y-112839244D01*
X41096173Y-112782816D01*
X41092018Y-112713070D01*
X41126230Y-112652150D01*
X41187948Y-112619397D01*
X41212862Y-112616868D01*
X53353172Y-112616868D01*
X53420211Y-112636553D01*
X53463656Y-112684572D01*
X53542465Y-112839244D01*
X53550604Y-112855216D01*
X53698673Y-113059017D01*
X53698677Y-113059022D01*
X53698679Y-113059024D01*
X53876816Y-113237161D01*
X53876817Y-113237162D01*
X53876816Y-113237162D01*
X53883133Y-113241751D01*
X53925799Y-113297082D01*
X53931777Y-113366695D01*
X53899171Y-113428490D01*
X53838332Y-113462847D01*
X53790850Y-113464542D01*
X53736083Y-113455868D01*
X53562861Y-113455868D01*
X53523200Y-113462149D01*
X53391774Y-113482965D01*
X53227024Y-113536496D01*
X53072683Y-113615136D01*
X53015761Y-113656493D01*
X52932544Y-113716954D01*
X52932542Y-113716956D01*
X52932541Y-113716956D01*
X52810060Y-113839437D01*
X52810060Y-113839438D01*
X52810058Y-113839440D01*
X52766331Y-113899624D01*
X52708240Y-113979579D01*
X52629600Y-114133920D01*
X52576069Y-114298670D01*
X52569125Y-114342515D01*
X52548972Y-114469757D01*
X52548972Y-114642979D01*
X52576070Y-114814069D01*
X52629599Y-114978813D01*
X52708240Y-115133156D01*
X52810058Y-115273296D01*
X52932544Y-115395782D01*
X53072684Y-115497600D01*
X53227027Y-115576241D01*
X53391771Y-115629770D01*
X53562861Y-115656868D01*
X53562862Y-115656868D01*
X53736082Y-115656868D01*
X53736083Y-115656868D01*
X53907173Y-115629770D01*
X54071917Y-115576241D01*
X54226260Y-115497600D01*
X54366400Y-115395782D01*
X54488886Y-115273296D01*
X54590704Y-115133156D01*
X54669345Y-114978813D01*
X54722874Y-114814069D01*
X54749972Y-114642979D01*
X54749972Y-114469757D01*
X54722874Y-114298667D01*
X54669345Y-114133923D01*
X54590704Y-113979580D01*
X54488886Y-113839440D01*
X54436954Y-113787508D01*
X54403469Y-113726185D01*
X54408453Y-113656493D01*
X54450325Y-113600560D01*
X54515789Y-113576143D01*
X54544033Y-113577354D01*
X54544684Y-113577457D01*
X54544687Y-113577458D01*
X54793510Y-113616868D01*
X54793511Y-113616868D01*
X55045433Y-113616868D01*
X55045434Y-113616868D01*
X55294257Y-113577458D01*
X55533851Y-113499609D01*
X55758317Y-113385238D01*
X55962128Y-113237161D01*
X56140265Y-113059024D01*
X56288342Y-112855213D01*
X56375287Y-112684572D01*
X56423261Y-112633777D01*
X56485772Y-112616868D01*
X57194934Y-112616868D01*
X57261973Y-112636553D01*
X57307728Y-112689357D01*
X57317672Y-112758515D01*
X57288647Y-112822071D01*
X57270420Y-112839244D01*
X57242431Y-112860720D01*
X57242424Y-112860726D01*
X57033830Y-113069320D01*
X57033824Y-113069327D01*
X56854233Y-113303374D01*
X56706730Y-113558857D01*
X56706726Y-113558867D01*
X56593836Y-113831406D01*
X56593833Y-113831416D01*
X56517480Y-114116372D01*
X56517478Y-114116383D01*
X56478972Y-114408854D01*
X56478972Y-114703881D01*
X56511043Y-114947481D01*
X56517479Y-114996361D01*
X56591684Y-115273298D01*
X56593833Y-115281319D01*
X56593836Y-115281329D01*
X56706726Y-115553868D01*
X56706730Y-115553878D01*
X56854233Y-115809361D01*
X57033824Y-116043408D01*
X57033830Y-116043415D01*
X57242424Y-116252009D01*
X57242431Y-116252015D01*
X57476478Y-116431606D01*
X57731961Y-116579109D01*
X57731962Y-116579109D01*
X57731965Y-116579111D01*
X58004520Y-116692007D01*
X58289479Y-116768361D01*
X58581966Y-116806868D01*
X58581973Y-116806868D01*
X58876971Y-116806868D01*
X58876978Y-116806868D01*
X59169465Y-116768361D01*
X59454424Y-116692007D01*
X59726979Y-116579111D01*
X59982466Y-116431606D01*
X60216514Y-116252014D01*
X60425118Y-116043410D01*
X60604710Y-115809362D01*
X60752215Y-115553875D01*
X60865111Y-115281320D01*
X60941465Y-114996361D01*
X60979972Y-114703874D01*
X60979972Y-114469757D01*
X62708972Y-114469757D01*
X62708972Y-114642979D01*
X62736070Y-114814069D01*
X62789599Y-114978813D01*
X62868240Y-115133156D01*
X62970058Y-115273296D01*
X63092544Y-115395782D01*
X63232684Y-115497600D01*
X63387027Y-115576241D01*
X63551771Y-115629770D01*
X63722861Y-115656868D01*
X63722862Y-115656868D01*
X63896082Y-115656868D01*
X63896083Y-115656868D01*
X64067173Y-115629770D01*
X64231917Y-115576241D01*
X64386260Y-115497600D01*
X64526400Y-115395782D01*
X64648886Y-115273296D01*
X64750704Y-115133156D01*
X64829345Y-114978813D01*
X64882874Y-114814069D01*
X64909972Y-114642979D01*
X64909972Y-114469757D01*
X64882874Y-114298667D01*
X64829345Y-114133923D01*
X64750704Y-113979580D01*
X64648886Y-113839440D01*
X64526400Y-113716954D01*
X64386260Y-113615136D01*
X64275805Y-113558857D01*
X64231919Y-113536496D01*
X64231918Y-113536495D01*
X64231917Y-113536495D01*
X64067173Y-113482966D01*
X64067171Y-113482965D01*
X64067170Y-113482965D01*
X63935743Y-113462149D01*
X63896083Y-113455868D01*
X63722861Y-113455868D01*
X63683200Y-113462149D01*
X63551774Y-113482965D01*
X63387024Y-113536496D01*
X63232683Y-113615136D01*
X63175761Y-113656493D01*
X63092544Y-113716954D01*
X63092542Y-113716956D01*
X63092541Y-113716956D01*
X62970060Y-113839437D01*
X62970060Y-113839438D01*
X62970058Y-113839440D01*
X62926331Y-113899624D01*
X62868240Y-113979579D01*
X62789600Y-114133920D01*
X62736069Y-114298670D01*
X62729125Y-114342515D01*
X62708972Y-114469757D01*
X60979972Y-114469757D01*
X60979972Y-114408862D01*
X60941465Y-114116375D01*
X60865111Y-113831416D01*
X60752215Y-113558861D01*
X60749324Y-113553854D01*
X60604710Y-113303374D01*
X60425119Y-113069327D01*
X60425113Y-113069320D01*
X60216519Y-112860726D01*
X60216512Y-112860720D01*
X60188524Y-112839244D01*
X60147321Y-112782816D01*
X60143166Y-112713070D01*
X60177378Y-112652150D01*
X60239096Y-112619397D01*
X60264010Y-112616868D01*
X72405632Y-112616868D01*
X72472671Y-112636553D01*
X72516116Y-112684572D01*
X72594925Y-112839244D01*
X72603064Y-112855216D01*
X72751133Y-113059017D01*
X72751137Y-113059022D01*
X72751139Y-113059024D01*
X72929276Y-113237161D01*
X72929277Y-113237162D01*
X72929276Y-113237162D01*
X72935593Y-113241751D01*
X72978259Y-113297082D01*
X72984237Y-113366695D01*
X72951631Y-113428490D01*
X72890792Y-113462847D01*
X72843310Y-113464542D01*
X72788543Y-113455868D01*
X72615321Y-113455868D01*
X72575660Y-113462149D01*
X72444234Y-113482965D01*
X72279484Y-113536496D01*
X72125143Y-113615136D01*
X72068221Y-113656493D01*
X71985004Y-113716954D01*
X71985002Y-113716956D01*
X71985001Y-113716956D01*
X71862520Y-113839437D01*
X71862520Y-113839438D01*
X71862518Y-113839440D01*
X71818791Y-113899624D01*
X71760700Y-113979579D01*
X71682060Y-114133920D01*
X71628529Y-114298670D01*
X71621585Y-114342515D01*
X71601432Y-114469757D01*
X71601432Y-114642979D01*
X71628530Y-114814069D01*
X71682059Y-114978813D01*
X71760700Y-115133156D01*
X71862518Y-115273296D01*
X71985004Y-115395782D01*
X72125144Y-115497600D01*
X72279487Y-115576241D01*
X72444231Y-115629770D01*
X72615321Y-115656868D01*
X72615322Y-115656868D01*
X72788542Y-115656868D01*
X72788543Y-115656868D01*
X72959633Y-115629770D01*
X73124377Y-115576241D01*
X73191138Y-115542224D01*
X73259806Y-115529329D01*
X73324547Y-115555605D01*
X73364804Y-115612712D01*
X73371432Y-115652710D01*
X73371432Y-128199894D01*
X73371431Y-128199912D01*
X73371431Y-128365618D01*
X73371430Y-128365618D01*
X73412355Y-128518349D01*
X73441290Y-128568464D01*
X73441291Y-128568468D01*
X73441292Y-128568468D01*
X73490750Y-128654134D01*
X73491411Y-128655278D01*
X73491413Y-128655281D01*
X73610281Y-128774149D01*
X73610287Y-128774154D01*
X74092780Y-129256647D01*
X74126265Y-129317970D01*
X74121281Y-129387662D01*
X74079409Y-129443595D01*
X74013945Y-129468012D01*
X74005099Y-129468328D01*
X73846134Y-129468328D01*
X73721722Y-129488033D01*
X73597310Y-129507738D01*
X73357712Y-129585588D01*
X73133247Y-129699960D01*
X72929446Y-129848029D01*
X72929441Y-129848033D01*
X72751301Y-130026173D01*
X72751297Y-130026178D01*
X72603228Y-130229979D01*
X72516281Y-130400623D01*
X72468307Y-130451419D01*
X72405796Y-130468328D01*
X56487090Y-130468328D01*
X56420051Y-130448643D01*
X56376606Y-130400624D01*
X56289326Y-130229327D01*
X56289324Y-130229324D01*
X56289323Y-130229322D01*
X56141254Y-130025522D01*
X56141250Y-130025517D01*
X55963110Y-129847377D01*
X55963105Y-129847373D01*
X55759304Y-129699304D01*
X55759303Y-129699303D01*
X55759301Y-129699302D01*
X55689203Y-129663585D01*
X55534839Y-129584932D01*
X55295241Y-129507082D01*
X55046418Y-129467672D01*
X54794494Y-129467672D01*
X54670082Y-129487377D01*
X54545670Y-129507082D01*
X54306072Y-129584932D01*
X54081607Y-129699304D01*
X53877806Y-129847373D01*
X53877801Y-129847377D01*
X53699661Y-130025517D01*
X53699657Y-130025522D01*
X53551588Y-130229323D01*
X53437216Y-130453788D01*
X53359366Y-130693386D01*
X53319956Y-130942210D01*
X53319956Y-131009652D01*
X53300271Y-131076691D01*
X53247467Y-131122446D01*
X53195956Y-131133652D01*
X41428561Y-131133652D01*
X41361522Y-131113967D01*
X41340880Y-131097333D01*
X41139730Y-130896183D01*
X41139728Y-130896180D01*
X41020857Y-130777309D01*
X41020856Y-130777308D01*
X40934044Y-130727188D01*
X40934044Y-130727187D01*
X40934040Y-130727186D01*
X40883925Y-130698251D01*
X40731197Y-130657327D01*
X40573083Y-130657327D01*
X40565487Y-130657327D01*
X40565471Y-130657328D01*
X38791177Y-130657328D01*
X38791161Y-130657327D01*
X38783565Y-130657327D01*
X38625451Y-130657327D01*
X38518095Y-130686093D01*
X38472718Y-130698252D01*
X38472717Y-130698253D01*
X38422604Y-130727187D01*
X38422603Y-130727188D01*
X38379197Y-130752248D01*
X38335793Y-130777307D01*
X38335790Y-130777309D01*
X38223988Y-130889112D01*
X38223986Y-130889114D01*
X38103449Y-131009652D01*
X38015768Y-131097333D01*
X37954445Y-131130818D01*
X37928087Y-131133652D01*
X37592824Y-131133652D01*
X37525785Y-131113967D01*
X37480030Y-131061163D01*
X37468824Y-131009652D01*
X37468824Y-130942866D01*
X37461430Y-130896183D01*
X37429414Y-130694043D01*
X37351565Y-130454449D01*
X37351563Y-130454446D01*
X37351563Y-130454444D01*
X37310071Y-130373012D01*
X37237194Y-130229983D01*
X37164064Y-130129328D01*
X37089122Y-130026178D01*
X37089118Y-130026173D01*
X36910978Y-129848033D01*
X36910973Y-129848029D01*
X36707172Y-129699960D01*
X36707171Y-129699959D01*
X36707169Y-129699958D01*
X36637071Y-129664241D01*
X36482707Y-129585588D01*
X36243109Y-129507738D01*
X36238967Y-129507082D01*
X35994286Y-129468328D01*
X35742362Y-129468328D01*
X35617950Y-129488033D01*
X35493538Y-129507738D01*
X35253940Y-129585588D01*
X35029475Y-129699960D01*
X34825674Y-129848029D01*
X34825669Y-129848033D01*
X34647529Y-130026173D01*
X34647525Y-130026178D01*
X34499456Y-130229979D01*
X34385084Y-130454444D01*
X34307234Y-130694042D01*
X34267824Y-130942866D01*
X34267824Y-131194789D01*
X34307234Y-131443613D01*
X34385084Y-131683211D01*
X34450184Y-131810975D01*
X34499121Y-131907020D01*
X34499456Y-131907676D01*
X34647525Y-132111477D01*
X34647529Y-132111482D01*
X34647531Y-132111484D01*
X34825668Y-132289621D01*
X34825669Y-132289622D01*
X34825668Y-132289622D01*
X34831985Y-132294211D01*
X34874651Y-132349542D01*
X34880629Y-132419155D01*
X34848023Y-132480950D01*
X34787184Y-132515307D01*
X34739702Y-132517002D01*
X34684935Y-132508328D01*
X34511713Y-132508328D01*
X34472052Y-132514609D01*
X34340626Y-132535425D01*
X34175876Y-132588956D01*
X34021535Y-132667596D01*
X33965516Y-132708297D01*
X33881396Y-132769414D01*
X33881394Y-132769416D01*
X33881393Y-132769416D01*
X33758912Y-132891897D01*
X33758912Y-132891898D01*
X33758910Y-132891900D01*
X33715183Y-132952084D01*
X33657092Y-133032039D01*
X33578452Y-133186380D01*
X33524921Y-133351130D01*
X33507574Y-133460658D01*
X33497824Y-133522217D01*
X33497824Y-133695439D01*
X33524922Y-133866529D01*
X33578451Y-134031273D01*
X33657092Y-134185616D01*
X33758910Y-134325756D01*
X33881396Y-134448242D01*
X34021536Y-134550060D01*
X34175879Y-134628701D01*
X34340623Y-134682230D01*
X34511713Y-134709328D01*
X34511714Y-134709328D01*
X34684934Y-134709328D01*
X34684935Y-134709328D01*
X34856025Y-134682230D01*
X35020769Y-134628701D01*
X35175112Y-134550060D01*
X35315252Y-134448242D01*
X35437738Y-134325756D01*
X35539556Y-134185616D01*
X35618197Y-134031273D01*
X35671726Y-133866529D01*
X35698824Y-133695439D01*
X35698824Y-133522217D01*
X35671726Y-133351127D01*
X35618197Y-133186383D01*
X35539556Y-133032040D01*
X35437738Y-132891900D01*
X35385806Y-132839968D01*
X35352321Y-132778645D01*
X35357305Y-132708953D01*
X35399177Y-132653020D01*
X35464641Y-132628603D01*
X35492885Y-132629814D01*
X35493536Y-132629917D01*
X35493539Y-132629918D01*
X35742362Y-132669328D01*
X35742363Y-132669328D01*
X35994285Y-132669328D01*
X35994286Y-132669328D01*
X36243109Y-132629918D01*
X36482703Y-132552069D01*
X36483991Y-132551413D01*
X36511993Y-132537145D01*
X36707169Y-132437698D01*
X36780331Y-132384542D01*
X36816405Y-132358334D01*
X36882211Y-132334854D01*
X36889290Y-132334652D01*
X37600542Y-132334652D01*
X37667581Y-132354337D01*
X37713336Y-132407141D01*
X37723280Y-132476299D01*
X37707929Y-132520650D01*
X37696842Y-132539855D01*
X37655582Y-132611318D01*
X37655578Y-132611327D01*
X37542688Y-132883866D01*
X37542685Y-132883876D01*
X37466332Y-133168832D01*
X37466330Y-133168843D01*
X37427824Y-133461314D01*
X37427824Y-133756341D01*
X37459895Y-133999941D01*
X37466331Y-134048821D01*
X37540536Y-134325758D01*
X37542685Y-134333779D01*
X37542688Y-134333789D01*
X37655578Y-134606328D01*
X37655582Y-134606338D01*
X37803085Y-134861821D01*
X37982676Y-135095868D01*
X37982682Y-135095875D01*
X38191276Y-135304469D01*
X38191283Y-135304475D01*
X38425330Y-135484066D01*
X38680813Y-135631569D01*
X38680814Y-135631569D01*
X38680817Y-135631571D01*
X38891620Y-135718888D01*
X38951778Y-135743807D01*
X38953372Y-135744467D01*
X39238331Y-135820821D01*
X39516739Y-135857474D01*
X39525827Y-135858671D01*
X39530818Y-135859328D01*
X39530825Y-135859328D01*
X39825823Y-135859328D01*
X39825830Y-135859328D01*
X40118317Y-135820821D01*
X40403276Y-135744467D01*
X40675831Y-135631571D01*
X40931318Y-135484066D01*
X41165366Y-135304474D01*
X41373970Y-135095870D01*
X41553562Y-134861822D01*
X41701067Y-134606335D01*
X41813963Y-134333780D01*
X41890317Y-134048821D01*
X41928824Y-133756334D01*
X41928824Y-133461322D01*
X41890317Y-133168835D01*
X41813963Y-132883876D01*
X41701067Y-132611321D01*
X41648718Y-132520650D01*
X41632246Y-132452752D01*
X41655098Y-132386725D01*
X41710020Y-132343534D01*
X41756106Y-132334652D01*
X44335639Y-132334652D01*
X44402678Y-132354337D01*
X44448433Y-132407141D01*
X44458377Y-132476299D01*
X44429352Y-132539855D01*
X44373958Y-132576582D01*
X44337898Y-132588299D01*
X44335876Y-132588956D01*
X44181535Y-132667596D01*
X44125516Y-132708297D01*
X44041396Y-132769414D01*
X44041394Y-132769416D01*
X44041393Y-132769416D01*
X43918912Y-132891897D01*
X43918912Y-132891898D01*
X43918910Y-132891900D01*
X43875183Y-132952084D01*
X43817092Y-133032039D01*
X43738452Y-133186380D01*
X43684921Y-133351130D01*
X43667574Y-133460658D01*
X43657824Y-133522217D01*
X43657824Y-133695439D01*
X43684922Y-133866529D01*
X43738451Y-134031273D01*
X43817092Y-134185616D01*
X43918910Y-134325756D01*
X44041396Y-134448242D01*
X44181536Y-134550060D01*
X44335879Y-134628701D01*
X44500623Y-134682230D01*
X44671713Y-134709328D01*
X44671714Y-134709328D01*
X44844934Y-134709328D01*
X44844935Y-134709328D01*
X45016025Y-134682230D01*
X45180769Y-134628701D01*
X45335112Y-134550060D01*
X45475252Y-134448242D01*
X45597738Y-134325756D01*
X45699556Y-134185616D01*
X45778197Y-134031273D01*
X45831726Y-133866529D01*
X45858824Y-133695439D01*
X45858824Y-133522217D01*
X45831726Y-133351127D01*
X45778197Y-133186383D01*
X45699556Y-133032040D01*
X45597738Y-132891900D01*
X45475252Y-132769414D01*
X45335112Y-132667596D01*
X45180769Y-132588955D01*
X45142689Y-132576582D01*
X45085015Y-132537145D01*
X45057817Y-132472787D01*
X45069732Y-132403941D01*
X45116976Y-132352465D01*
X45181009Y-132334652D01*
X53225752Y-132334652D01*
X53292791Y-132354337D01*
X53338546Y-132407141D01*
X53348490Y-132476299D01*
X53319465Y-132539855D01*
X53264071Y-132576582D01*
X53228011Y-132588299D01*
X53228008Y-132588300D01*
X53073667Y-132666940D01*
X53016745Y-132708297D01*
X52933528Y-132768758D01*
X52933526Y-132768760D01*
X52933525Y-132768760D01*
X52811044Y-132891241D01*
X52811044Y-132891242D01*
X52811042Y-132891244D01*
X52767315Y-132951428D01*
X52709224Y-133031383D01*
X52630584Y-133185724D01*
X52577053Y-133350474D01*
X52559602Y-133460658D01*
X52549956Y-133521561D01*
X52549956Y-133694783D01*
X52577054Y-133865873D01*
X52630583Y-134030617D01*
X52709224Y-134184960D01*
X52811042Y-134325100D01*
X52933528Y-134447586D01*
X53073668Y-134549404D01*
X53228011Y-134628045D01*
X53392755Y-134681574D01*
X53563845Y-134708672D01*
X53563846Y-134708672D01*
X53737066Y-134708672D01*
X53737067Y-134708672D01*
X53908157Y-134681574D01*
X54072901Y-134628045D01*
X54227244Y-134549404D01*
X54367384Y-134447586D01*
X54489870Y-134325100D01*
X54591688Y-134184960D01*
X54670329Y-134030617D01*
X54723858Y-133865873D01*
X54750956Y-133694783D01*
X54750956Y-133521561D01*
X54723858Y-133350471D01*
X54670329Y-133185727D01*
X54591688Y-133031384D01*
X54489870Y-132891244D01*
X54437938Y-132839312D01*
X54404453Y-132777989D01*
X54409437Y-132708297D01*
X54451309Y-132652364D01*
X54516773Y-132627947D01*
X54545017Y-132629158D01*
X54545668Y-132629261D01*
X54545671Y-132629262D01*
X54794494Y-132668672D01*
X54794495Y-132668672D01*
X55046417Y-132668672D01*
X55046418Y-132668672D01*
X55295241Y-132629262D01*
X55534835Y-132551413D01*
X55759301Y-132437042D01*
X55963112Y-132288965D01*
X56141249Y-132110828D01*
X56289326Y-131907017D01*
X56375937Y-131737032D01*
X56423912Y-131686237D01*
X56486422Y-131669328D01*
X57195063Y-131669328D01*
X57262102Y-131689013D01*
X57307857Y-131741817D01*
X57317801Y-131810975D01*
X57288776Y-131874531D01*
X57270549Y-131891704D01*
X57243415Y-131912524D01*
X57243408Y-131912530D01*
X57034814Y-132121124D01*
X57034808Y-132121131D01*
X56855217Y-132355178D01*
X56707714Y-132610661D01*
X56707710Y-132610671D01*
X56594820Y-132883210D01*
X56594817Y-132883220D01*
X56518464Y-133168176D01*
X56518462Y-133168187D01*
X56479956Y-133460658D01*
X56479956Y-133755685D01*
X56512027Y-133999285D01*
X56518463Y-134048165D01*
X56594817Y-134333123D01*
X56594820Y-134333133D01*
X56707710Y-134605672D01*
X56707714Y-134605682D01*
X56855217Y-134861165D01*
X57034808Y-135095212D01*
X57034814Y-135095219D01*
X57243408Y-135303813D01*
X57243415Y-135303819D01*
X57477462Y-135483410D01*
X57732945Y-135630913D01*
X57732946Y-135630913D01*
X57732949Y-135630915D01*
X58005504Y-135743811D01*
X58290463Y-135820165D01*
X58582950Y-135858672D01*
X58582957Y-135858672D01*
X58877955Y-135858672D01*
X58877962Y-135858672D01*
X59170449Y-135820165D01*
X59455408Y-135743811D01*
X59727963Y-135630915D01*
X59983450Y-135483410D01*
X60217498Y-135303818D01*
X60426102Y-135095214D01*
X60605694Y-134861166D01*
X60753199Y-134605679D01*
X60866095Y-134333124D01*
X60942449Y-134048165D01*
X60980956Y-133755678D01*
X60980956Y-133521561D01*
X62709956Y-133521561D01*
X62709956Y-133694783D01*
X62737054Y-133865873D01*
X62790583Y-134030617D01*
X62869224Y-134184960D01*
X62971042Y-134325100D01*
X63093528Y-134447586D01*
X63233668Y-134549404D01*
X63388011Y-134628045D01*
X63552755Y-134681574D01*
X63723845Y-134708672D01*
X63723846Y-134708672D01*
X63897066Y-134708672D01*
X63897067Y-134708672D01*
X64068157Y-134681574D01*
X64232901Y-134628045D01*
X64387244Y-134549404D01*
X64527384Y-134447586D01*
X64649870Y-134325100D01*
X64751688Y-134184960D01*
X64830329Y-134030617D01*
X64883858Y-133865873D01*
X64910956Y-133694783D01*
X64910956Y-133521561D01*
X64883858Y-133350471D01*
X64830329Y-133185727D01*
X64751688Y-133031384D01*
X64649870Y-132891244D01*
X64527384Y-132768758D01*
X64387244Y-132666940D01*
X64314582Y-132629917D01*
X64232903Y-132588300D01*
X64232902Y-132588299D01*
X64232901Y-132588299D01*
X64068157Y-132534770D01*
X64068155Y-132534769D01*
X64068154Y-132534769D01*
X63936727Y-132513953D01*
X63897067Y-132507672D01*
X63723845Y-132507672D01*
X63684184Y-132513953D01*
X63552758Y-132534769D01*
X63388008Y-132588300D01*
X63233667Y-132666940D01*
X63176745Y-132708297D01*
X63093528Y-132768758D01*
X63093526Y-132768760D01*
X63093525Y-132768760D01*
X62971044Y-132891241D01*
X62971044Y-132891242D01*
X62971042Y-132891244D01*
X62927315Y-132951428D01*
X62869224Y-133031383D01*
X62790584Y-133185724D01*
X62737053Y-133350474D01*
X62719602Y-133460658D01*
X62709956Y-133521561D01*
X60980956Y-133521561D01*
X60980956Y-133460666D01*
X60942449Y-133168179D01*
X60866095Y-132883220D01*
X60753199Y-132610665D01*
X60740665Y-132588956D01*
X60605694Y-132355178D01*
X60426103Y-132121131D01*
X60426097Y-132121124D01*
X60217503Y-131912530D01*
X60217496Y-131912524D01*
X60190363Y-131891704D01*
X60149160Y-131835276D01*
X60145005Y-131765530D01*
X60179217Y-131704610D01*
X60240935Y-131671857D01*
X60265849Y-131669328D01*
X72405796Y-131669328D01*
X72472835Y-131689013D01*
X72516280Y-131737032D01*
X72602893Y-131907020D01*
X72603228Y-131907676D01*
X72751297Y-132111477D01*
X72751301Y-132111482D01*
X72751303Y-132111484D01*
X72929440Y-132289621D01*
X72929441Y-132289622D01*
X72929440Y-132289622D01*
X72935757Y-132294211D01*
X72978423Y-132349542D01*
X72984401Y-132419155D01*
X72951795Y-132480950D01*
X72890956Y-132515307D01*
X72843474Y-132517002D01*
X72788707Y-132508328D01*
X72615485Y-132508328D01*
X72575824Y-132514609D01*
X72444398Y-132535425D01*
X72279648Y-132588956D01*
X72125307Y-132667596D01*
X72069288Y-132708297D01*
X71985168Y-132769414D01*
X71985166Y-132769416D01*
X71985165Y-132769416D01*
X71862684Y-132891897D01*
X71862684Y-132891898D01*
X71862682Y-132891900D01*
X71818955Y-132952084D01*
X71760864Y-133032039D01*
X71682224Y-133186380D01*
X71628693Y-133351130D01*
X71611346Y-133460658D01*
X71601596Y-133522217D01*
X71601596Y-133695439D01*
X71628694Y-133866529D01*
X71682223Y-134031273D01*
X71760864Y-134185616D01*
X71862682Y-134325756D01*
X71985168Y-134448242D01*
X72125308Y-134550060D01*
X72279651Y-134628701D01*
X72444395Y-134682230D01*
X72615485Y-134709328D01*
X72615486Y-134709328D01*
X72788706Y-134709328D01*
X72788707Y-134709328D01*
X72959797Y-134682230D01*
X73124541Y-134628701D01*
X73191302Y-134594684D01*
X73259970Y-134581789D01*
X73324711Y-134608065D01*
X73364968Y-134665172D01*
X73371596Y-134705170D01*
X73371596Y-136425882D01*
X73371595Y-136425900D01*
X73371595Y-136591606D01*
X73371594Y-136591606D01*
X73412519Y-136744337D01*
X73441454Y-136794452D01*
X73441455Y-136794456D01*
X73441456Y-136794456D01*
X73491575Y-136881266D01*
X73491577Y-136881269D01*
X73610445Y-137000137D01*
X73610451Y-137000142D01*
X74515299Y-137904990D01*
X74515309Y-137905001D01*
X74519639Y-137909331D01*
X74519640Y-137909332D01*
X74631444Y-138021136D01*
X74718255Y-138071255D01*
X74718257Y-138071257D01*
X74756311Y-138093227D01*
X74768375Y-138100193D01*
X74921103Y-138141116D01*
X83623187Y-138141116D01*
X83623203Y-138141117D01*
X83630799Y-138141117D01*
X83788910Y-138141117D01*
X83788913Y-138141117D01*
X83941641Y-138100193D01*
X83991760Y-138071255D01*
X84078572Y-138021136D01*
X84190376Y-137909332D01*
X84190376Y-137909330D01*
X84200584Y-137899123D01*
X84200585Y-137899120D01*
X86504476Y-135595232D01*
X86583533Y-135458300D01*
X86624457Y-135305573D01*
X86624457Y-135147458D01*
X86624457Y-135139863D01*
X86624456Y-135139845D01*
X86624456Y-86339244D01*
X86624457Y-86339231D01*
X86624457Y-86171128D01*
X86609560Y-86115533D01*
X86583533Y-86018400D01*
X86517265Y-85903619D01*
X86504480Y-85881474D01*
X86504474Y-85881466D01*
X85263770Y-84640763D01*
X85263768Y-84640760D01*
X85144897Y-84521889D01*
X85144896Y-84521888D01*
X85051669Y-84468064D01*
X85051668Y-84468063D01*
X85007963Y-84442830D01*
X84952061Y-84427851D01*
X84855237Y-84401907D01*
X84697123Y-84401907D01*
X84689527Y-84401907D01*
X84689511Y-84401908D01*
X77643781Y-84401908D01*
X77576742Y-84382223D01*
X77556100Y-84365589D01*
X77188338Y-83997827D01*
X77188336Y-83997824D01*
X77069465Y-83878953D01*
X77069464Y-83878952D01*
X76982652Y-83828832D01*
X76982652Y-83828831D01*
X76982648Y-83828830D01*
X76932533Y-83799895D01*
X76779805Y-83758971D01*
X76621691Y-83758971D01*
X76614095Y-83758971D01*
X76614079Y-83758972D01*
X74946375Y-83758972D01*
X74879336Y-83739287D01*
X74858694Y-83722653D01*
X74659492Y-83523451D01*
X74626007Y-83462128D01*
X74630991Y-83392436D01*
X74672863Y-83336503D01*
X74690875Y-83325286D01*
X74722402Y-83309223D01*
X74847284Y-83218492D01*
X74888005Y-83188907D01*
X74888007Y-83188904D01*
X74888011Y-83188902D01*
X75032758Y-83044155D01*
X75032760Y-83044151D01*
X75032763Y-83044149D01*
X75085524Y-82971526D01*
X75153079Y-82878546D01*
X75246012Y-82696155D01*
X75309269Y-82501470D01*
X75341292Y-82299288D01*
X75341292Y-82094584D01*
X75309269Y-81892402D01*
X75304617Y-81878087D01*
X75302624Y-81808248D01*
X75334867Y-81752094D01*
X85374445Y-71712517D01*
X85374448Y-71712516D01*
X85486252Y-71600712D01*
X85536371Y-71513900D01*
X85565309Y-71463781D01*
X85606233Y-71311053D01*
X85606233Y-71152939D01*
X85606233Y-71145344D01*
X85606232Y-71145326D01*
X85606232Y-66972351D01*
X85625917Y-66905312D01*
X85678721Y-66859557D01*
X85747879Y-66849613D01*
X85768553Y-66854421D01*
X85773095Y-66855897D01*
X85871233Y-66871440D01*
X85969371Y-66886984D01*
X85969372Y-66886984D01*
X86168092Y-66886984D01*
X86168093Y-66886984D01*
X86364368Y-66855897D01*
X86553364Y-66794489D01*
X86730426Y-66704271D01*
X86891196Y-66587465D01*
X87031713Y-66446948D01*
X87148519Y-66286178D01*
X87238737Y-66109116D01*
X87300145Y-65920120D01*
X87331232Y-65723845D01*
X87331232Y-65525123D01*
X87300145Y-65328848D01*
X87238737Y-65139852D01*
X87238737Y-65139851D01*
X87169669Y-65004299D01*
X87148519Y-64962790D01*
X87031713Y-64802020D01*
X86891196Y-64661503D01*
X86730426Y-64544697D01*
X86573950Y-64464968D01*
X86523155Y-64416994D01*
X86506360Y-64349173D01*
X86528897Y-64283038D01*
X86573950Y-64243999D01*
X86730426Y-64164271D01*
X86891196Y-64047465D01*
X87031713Y-63906948D01*
X87148519Y-63746178D01*
X87238737Y-63569116D01*
X87300145Y-63380120D01*
X87331232Y-63183845D01*
X87331232Y-62985123D01*
X87300145Y-62788848D01*
X87269441Y-62694350D01*
X87238738Y-62599854D01*
X87238737Y-62599851D01*
X87179699Y-62483984D01*
X87148519Y-62422790D01*
X87031713Y-62262020D01*
X86891196Y-62121503D01*
X86730426Y-62004697D01*
X86573950Y-61924968D01*
X86523155Y-61876994D01*
X86506360Y-61809173D01*
X86528897Y-61743038D01*
X86573950Y-61703999D01*
X86730426Y-61624271D01*
X86891196Y-61507465D01*
X87031713Y-61366948D01*
X87148519Y-61206178D01*
X87238737Y-61029116D01*
X87300145Y-60840120D01*
X87331232Y-60643845D01*
X87331232Y-60445123D01*
X87300145Y-60248848D01*
X87269441Y-60154350D01*
X87238738Y-60059854D01*
X87238737Y-60059851D01*
X87148518Y-59882789D01*
X87031713Y-59722020D01*
X86891196Y-59581503D01*
X86730426Y-59464697D01*
X86573950Y-59384968D01*
X86523155Y-59336994D01*
X86506360Y-59269173D01*
X86528897Y-59203038D01*
X86573950Y-59163999D01*
X86730426Y-59084271D01*
X86891196Y-58967465D01*
X87031713Y-58826948D01*
X87148519Y-58666178D01*
X87238737Y-58489116D01*
X87300145Y-58300120D01*
X87331232Y-58103845D01*
X87331232Y-57905123D01*
X87300145Y-57708848D01*
X87238737Y-57519852D01*
X87238737Y-57519851D01*
X87148518Y-57342789D01*
X87031713Y-57182020D01*
X86891196Y-57041503D01*
X86730426Y-56924697D01*
X86573950Y-56844968D01*
X86523155Y-56796994D01*
X86506360Y-56729173D01*
X86528897Y-56663038D01*
X86573950Y-56623999D01*
X86730426Y-56544271D01*
X86891196Y-56427465D01*
X87031713Y-56286948D01*
X87148519Y-56126178D01*
X87238737Y-55949116D01*
X87300145Y-55760120D01*
X87331232Y-55563845D01*
X87331232Y-55365123D01*
X87300145Y-55168848D01*
X87238737Y-54979852D01*
X87238737Y-54979851D01*
X87148518Y-54802789D01*
X87031713Y-54642020D01*
X86891196Y-54501503D01*
X86730426Y-54384697D01*
X86573399Y-54304687D01*
X86522604Y-54256713D01*
X86505809Y-54188892D01*
X86528346Y-54122757D01*
X86573401Y-54083718D01*
X86730154Y-54003848D01*
X86767448Y-53976752D01*
X86152827Y-53362131D01*
X86240303Y-53338692D01*
X86341662Y-53280173D01*
X86424421Y-53197414D01*
X86482940Y-53096055D01*
X86506379Y-53008578D01*
X87121000Y-53623199D01*
X87148094Y-53585909D01*
X87238274Y-53408921D01*
X87299656Y-53220007D01*
X87299656Y-53220004D01*
X87330732Y-53023805D01*
X87330732Y-52825162D01*
X87299656Y-52628963D01*
X87299656Y-52628960D01*
X87238274Y-52440046D01*
X87148090Y-52263051D01*
X87121000Y-52225767D01*
X86506379Y-52840388D01*
X86482940Y-52752913D01*
X86424421Y-52651554D01*
X86341662Y-52568795D01*
X86240303Y-52510276D01*
X86152826Y-52486836D01*
X86767448Y-51872215D01*
X86767447Y-51872214D01*
X86730164Y-51845125D01*
X86573400Y-51765249D01*
X86522604Y-51717274D01*
X86505809Y-51649453D01*
X86528347Y-51583318D01*
X86573399Y-51544280D01*
X86730426Y-51464271D01*
X86891196Y-51347465D01*
X87031713Y-51206948D01*
X87148519Y-51046178D01*
X87238737Y-50869116D01*
X87300145Y-50680120D01*
X87331232Y-50483845D01*
X87331232Y-50285123D01*
X87300145Y-50088848D01*
X87238737Y-49899852D01*
X87238737Y-49899851D01*
X87148518Y-49722789D01*
X87145161Y-49718168D01*
X87031713Y-49562020D01*
X86891196Y-49421503D01*
X86730426Y-49304697D01*
X86553364Y-49214478D01*
X86553361Y-49214477D01*
X86364369Y-49153071D01*
X86266230Y-49137527D01*
X86168093Y-49121984D01*
X85969371Y-49121984D01*
X85903946Y-49132346D01*
X85773094Y-49153071D01*
X85584102Y-49214477D01*
X85584099Y-49214478D01*
X85407037Y-49304697D01*
X85246265Y-49421505D01*
X85105753Y-49562017D01*
X84988945Y-49722789D01*
X84898726Y-49899851D01*
X84898725Y-49899854D01*
X84837319Y-50088846D01*
X84806232Y-50285123D01*
X84806232Y-50483844D01*
X84837319Y-50680121D01*
X84898725Y-50869113D01*
X84898726Y-50869116D01*
X84988945Y-51046178D01*
X85105751Y-51206948D01*
X85246268Y-51347465D01*
X85407038Y-51464271D01*
X85564064Y-51544280D01*
X85614859Y-51592253D01*
X85631654Y-51660074D01*
X85609117Y-51726209D01*
X85564064Y-51765248D01*
X85407298Y-51845125D01*
X85370015Y-51872213D01*
X85370014Y-51872214D01*
X85984638Y-52486836D01*
X85897161Y-52510276D01*
X85795802Y-52568795D01*
X85713043Y-52651554D01*
X85654524Y-52752913D01*
X85631084Y-52840389D01*
X85016462Y-52225766D01*
X85016461Y-52225767D01*
X84989375Y-52263048D01*
X84899189Y-52440046D01*
X84837807Y-52628960D01*
X84837807Y-52628963D01*
X84806732Y-52825162D01*
X84806732Y-53023805D01*
X84837807Y-53220004D01*
X84837807Y-53220007D01*
X84899189Y-53408921D01*
X84989373Y-53585916D01*
X85016462Y-53623199D01*
X85016463Y-53623200D01*
X85631084Y-53008578D01*
X85654524Y-53096055D01*
X85713043Y-53197414D01*
X85795802Y-53280173D01*
X85897161Y-53338692D01*
X85984637Y-53362131D01*
X85370015Y-53976752D01*
X85370015Y-53976753D01*
X85407299Y-54003842D01*
X85564063Y-54083718D01*
X85614859Y-54131693D01*
X85631654Y-54199514D01*
X85609116Y-54265649D01*
X85564063Y-54304688D01*
X85407037Y-54384697D01*
X85246265Y-54501505D01*
X85105753Y-54642017D01*
X84988945Y-54802789D01*
X84898726Y-54979851D01*
X84898725Y-54979854D01*
X84837319Y-55168846D01*
X84806232Y-55365123D01*
X84806232Y-55563844D01*
X84837318Y-55760120D01*
X84837863Y-55762387D01*
X84837818Y-55763274D01*
X84838081Y-55764932D01*
X84837732Y-55764987D01*
X84837343Y-55772755D01*
X84840972Y-55782483D01*
X84835627Y-55807052D01*
X84834370Y-55832169D01*
X84827932Y-55842426D01*
X84826120Y-55850756D01*
X84804970Y-55879010D01*
X84637018Y-56046962D01*
X84637017Y-56046962D01*
X84637016Y-56046963D01*
X84525213Y-56158766D01*
X84525211Y-56158769D01*
X84500152Y-56202173D01*
X84483119Y-56231677D01*
X84475093Y-56245578D01*
X84475091Y-56245580D01*
X84446157Y-56295693D01*
X84446156Y-56295694D01*
X84430276Y-56354956D01*
X84405231Y-56448427D01*
X84405231Y-56448429D01*
X84405231Y-56616530D01*
X84405232Y-56616543D01*
X84405232Y-70931898D01*
X84385547Y-70998937D01*
X84368913Y-71019579D01*
X74485634Y-80902857D01*
X74424311Y-80936342D01*
X74359640Y-80933109D01*
X74345326Y-80928458D01*
X74148485Y-80897282D01*
X74143144Y-80896436D01*
X73938440Y-80896436D01*
X73933099Y-80897282D01*
X73736257Y-80928458D01*
X73541565Y-80991718D01*
X73474526Y-81025877D01*
X73405857Y-81038773D01*
X73341117Y-81012496D01*
X73300860Y-80955390D01*
X73294232Y-80915392D01*
X73294232Y-73318479D01*
X73313917Y-73251440D01*
X73366721Y-73205685D01*
X73435879Y-73195741D01*
X73474527Y-73207995D01*
X73541563Y-73242152D01*
X73541568Y-73242153D01*
X73541573Y-73242156D01*
X73677450Y-73286305D01*
X73736257Y-73305413D01*
X73818752Y-73318479D01*
X73938440Y-73337436D01*
X73938441Y-73337436D01*
X74143143Y-73337436D01*
X74143144Y-73337436D01*
X74345326Y-73305413D01*
X74540011Y-73242156D01*
X74722402Y-73149223D01*
X74851274Y-73055593D01*
X74888005Y-73028907D01*
X74888007Y-73028904D01*
X74888011Y-73028902D01*
X75032758Y-72884155D01*
X75032760Y-72884151D01*
X75032763Y-72884149D01*
X75137684Y-72739735D01*
X75153079Y-72718546D01*
X75246012Y-72536155D01*
X75309269Y-72341470D01*
X75341292Y-72139288D01*
X75341292Y-71934584D01*
X75309269Y-71732402D01*
X75246012Y-71537717D01*
X75246010Y-71537714D01*
X75246010Y-71537712D01*
X75194657Y-71436927D01*
X75153079Y-71355326D01*
X75120911Y-71311050D01*
X75032763Y-71189722D01*
X74888005Y-71044964D01*
X74722405Y-70924651D01*
X74722404Y-70924650D01*
X74722402Y-70924649D01*
X74662690Y-70894224D01*
X74540015Y-70831717D01*
X74345326Y-70768458D01*
X74170787Y-70740814D01*
X74143144Y-70736436D01*
X73938440Y-70736436D01*
X73914121Y-70740287D01*
X73736257Y-70768458D01*
X73541565Y-70831718D01*
X73474526Y-70865877D01*
X73405857Y-70878773D01*
X73341117Y-70852496D01*
X73300860Y-70795390D01*
X73294232Y-70755392D01*
X73294232Y-59790430D01*
X73294232Y-59790427D01*
X73275903Y-59722020D01*
X73253309Y-59637699D01*
X73220864Y-59581503D01*
X73174252Y-59500768D01*
X73062448Y-59388964D01*
X73062447Y-59388963D01*
X73058117Y-59384633D01*
X73058106Y-59384623D01*
X72092494Y-58419011D01*
X72059009Y-58357688D01*
X72059575Y-58304962D01*
X72059383Y-58304932D01*
X72059589Y-58303627D01*
X72059603Y-58302375D01*
X72060141Y-58300130D01*
X72060145Y-58300120D01*
X72091232Y-58103845D01*
X72091232Y-57905123D01*
X72060145Y-57708848D01*
X71998737Y-57519852D01*
X71998737Y-57519851D01*
X71908518Y-57342789D01*
X71791713Y-57182020D01*
X71651196Y-57041503D01*
X71490426Y-56924697D01*
X71333950Y-56844968D01*
X71283155Y-56796994D01*
X71266360Y-56729173D01*
X71288897Y-56663038D01*
X71333950Y-56623999D01*
X71490426Y-56544271D01*
X71651196Y-56427465D01*
X71791713Y-56286948D01*
X71908519Y-56126178D01*
X71998737Y-55949116D01*
X72060145Y-55760120D01*
X72091232Y-55563845D01*
X72091232Y-55365123D01*
X72060145Y-55168848D01*
X71998737Y-54979852D01*
X71998737Y-54979851D01*
X71908518Y-54802789D01*
X71791713Y-54642020D01*
X71651196Y-54501503D01*
X71490426Y-54384697D01*
X71333950Y-54304968D01*
X71283155Y-54256994D01*
X71266360Y-54189173D01*
X71288897Y-54123038D01*
X71333950Y-54083999D01*
X71490426Y-54004271D01*
X71651196Y-53887465D01*
X71791713Y-53746948D01*
X71908519Y-53586178D01*
X71998737Y-53409116D01*
X72060145Y-53220120D01*
X72091232Y-53023845D01*
X72091232Y-52825123D01*
X72060145Y-52628848D01*
X71998737Y-52439852D01*
X71998737Y-52439851D01*
X71952767Y-52349633D01*
X71908519Y-52262790D01*
X71791713Y-52102020D01*
X71651196Y-51961503D01*
X71490426Y-51844697D01*
X71333950Y-51764968D01*
X71283155Y-51716994D01*
X71266360Y-51649173D01*
X71288897Y-51583038D01*
X71333950Y-51543999D01*
X71490426Y-51464271D01*
X71651196Y-51347465D01*
X71791713Y-51206948D01*
X71908519Y-51046178D01*
X71998737Y-50869116D01*
X72060145Y-50680120D01*
X72091232Y-50483845D01*
X72091232Y-50285123D01*
X72060145Y-50088848D01*
X71998737Y-49899852D01*
X71998737Y-49899851D01*
X71908518Y-49722789D01*
X71905161Y-49718168D01*
X71791713Y-49562020D01*
X71651196Y-49421503D01*
X71490426Y-49304697D01*
X71313364Y-49214478D01*
X71313361Y-49214477D01*
X71124369Y-49153071D01*
X71026230Y-49137527D01*
X70928093Y-49121984D01*
X70729371Y-49121984D01*
X70663946Y-49132346D01*
X70533094Y-49153071D01*
X70344102Y-49214477D01*
X70344099Y-49214478D01*
X70167037Y-49304697D01*
X70006265Y-49421505D01*
X69865753Y-49562017D01*
X69748945Y-49722789D01*
X69658726Y-49899851D01*
X69658725Y-49899854D01*
X69597319Y-50088846D01*
X69566232Y-50285123D01*
X69566232Y-50483844D01*
X69597319Y-50680121D01*
X69658725Y-50869113D01*
X69658726Y-50869116D01*
X69748945Y-51046178D01*
X69865751Y-51206948D01*
X70006268Y-51347465D01*
X70167038Y-51464271D01*
X70285564Y-51524663D01*
X70323512Y-51543999D01*
X70374308Y-51591974D01*
X70391103Y-51659795D01*
X70368565Y-51725930D01*
X70323512Y-51764969D01*
X70167037Y-51844697D01*
X70006265Y-51961505D01*
X69865753Y-52102017D01*
X69748945Y-52262789D01*
X69658726Y-52439851D01*
X69658725Y-52439854D01*
X69597319Y-52628846D01*
X69566232Y-52825123D01*
X69566232Y-53023844D01*
X69597319Y-53220121D01*
X69658725Y-53409113D01*
X69658726Y-53409116D01*
X69721448Y-53532213D01*
X69748945Y-53586178D01*
X69865751Y-53746948D01*
X70006268Y-53887465D01*
X70167038Y-54004271D01*
X70285564Y-54064663D01*
X70323512Y-54083999D01*
X70374308Y-54131974D01*
X70391103Y-54199795D01*
X70368565Y-54265930D01*
X70323512Y-54304969D01*
X70167037Y-54384697D01*
X70006265Y-54501505D01*
X69865753Y-54642017D01*
X69748945Y-54802789D01*
X69658726Y-54979851D01*
X69658725Y-54979854D01*
X69597319Y-55168846D01*
X69566232Y-55365123D01*
X69566232Y-55563844D01*
X69597319Y-55760121D01*
X69658725Y-55949113D01*
X69658726Y-55949116D01*
X69708583Y-56046964D01*
X69748945Y-56126178D01*
X69865751Y-56286948D01*
X70006268Y-56427465D01*
X70167038Y-56544271D01*
X70285564Y-56604663D01*
X70323512Y-56623999D01*
X70374308Y-56671974D01*
X70391103Y-56739795D01*
X70368565Y-56805930D01*
X70323512Y-56844969D01*
X70167037Y-56924697D01*
X70006265Y-57041505D01*
X69865753Y-57182017D01*
X69748945Y-57342789D01*
X69658726Y-57519851D01*
X69658725Y-57519854D01*
X69597319Y-57708846D01*
X69566232Y-57905123D01*
X69566232Y-58103844D01*
X69597319Y-58300121D01*
X69658725Y-58489113D01*
X69658726Y-58489116D01*
X69748945Y-58666178D01*
X69865751Y-58826948D01*
X70006268Y-58967465D01*
X70167038Y-59084271D01*
X70285564Y-59144663D01*
X70323512Y-59163999D01*
X70374308Y-59211974D01*
X70391103Y-59279795D01*
X70368565Y-59345930D01*
X70323512Y-59384969D01*
X70167037Y-59464697D01*
X70006265Y-59581505D01*
X69865753Y-59722017D01*
X69748945Y-59882789D01*
X69658726Y-60059851D01*
X69658725Y-60059854D01*
X69597319Y-60248846D01*
X69566232Y-60445123D01*
X69566232Y-60643844D01*
X69597319Y-60840121D01*
X69658725Y-61029113D01*
X69658726Y-61029116D01*
X69748945Y-61206178D01*
X69865751Y-61366948D01*
X70006268Y-61507465D01*
X70167038Y-61624271D01*
X70285564Y-61684663D01*
X70323512Y-61703999D01*
X70374308Y-61751974D01*
X70391103Y-61819795D01*
X70368565Y-61885930D01*
X70323512Y-61924969D01*
X70167037Y-62004697D01*
X70006265Y-62121505D01*
X69865753Y-62262017D01*
X69748942Y-62422793D01*
X69747732Y-62424769D01*
X69747075Y-62425362D01*
X69746081Y-62426732D01*
X69745793Y-62426523D01*
X69695922Y-62471647D01*
X69642002Y-62483984D01*
X65326490Y-62483984D01*
X65326474Y-62483983D01*
X65318878Y-62483983D01*
X65160763Y-62483983D01*
X65084399Y-62504445D01*
X65008034Y-62524907D01*
X65008029Y-62524910D01*
X64871110Y-62603959D01*
X64871102Y-62603965D01*
X58249445Y-69225622D01*
X58249441Y-69225627D01*
X58201393Y-69308851D01*
X58201392Y-69308850D01*
X58170388Y-69362551D01*
X58170387Y-69362555D01*
X58129463Y-69515283D01*
X58129463Y-69515285D01*
X58129463Y-69683386D01*
X58129464Y-69683399D01*
X58129464Y-70631305D01*
X58109779Y-70698344D01*
X58056975Y-70744099D01*
X57987817Y-70754043D01*
X57966461Y-70749011D01*
X57960204Y-70746937D01*
X57960200Y-70746936D01*
X57857415Y-70736436D01*
X56657403Y-70736436D01*
X56657386Y-70736437D01*
X56554608Y-70746936D01*
X56554605Y-70746937D01*
X56388073Y-70802121D01*
X56388068Y-70802123D01*
X56238747Y-70894225D01*
X56114694Y-71018278D01*
X56022592Y-71167599D01*
X56022591Y-71167602D01*
X55967406Y-71334139D01*
X55967406Y-71334140D01*
X55967405Y-71334140D01*
X55956905Y-71436919D01*
X55956905Y-72636937D01*
X55956906Y-72636954D01*
X55967405Y-72739732D01*
X55967406Y-72739735D01*
X56015261Y-72884149D01*
X56022591Y-72906270D01*
X56114693Y-73055592D01*
X56238749Y-73179648D01*
X56388071Y-73271750D01*
X56554608Y-73326935D01*
X56657396Y-73337436D01*
X57857413Y-73337435D01*
X57960202Y-73326935D01*
X57966455Y-73324863D01*
X58036283Y-73322458D01*
X58096327Y-73358187D01*
X58127522Y-73420706D01*
X58129464Y-73442567D01*
X58129464Y-78439938D01*
X58109779Y-78506977D01*
X58056975Y-78552732D01*
X57987817Y-78562676D01*
X57943453Y-78546668D01*
X57943356Y-78546861D01*
X57941827Y-78546081D01*
X57940677Y-78545667D01*
X57939020Y-78544651D01*
X57756628Y-78451717D01*
X57561939Y-78388458D01*
X57387400Y-78360814D01*
X57359757Y-78356436D01*
X57155053Y-78356436D01*
X57130734Y-78360287D01*
X56952870Y-78388458D01*
X56758181Y-78451717D01*
X56575791Y-78544651D01*
X56410191Y-78664964D01*
X56265433Y-78809722D01*
X56145120Y-78975322D01*
X56052186Y-79157712D01*
X55988927Y-79352401D01*
X55956905Y-79554584D01*
X55956905Y-79759287D01*
X55988927Y-79961470D01*
X56052186Y-80156159D01*
X56145120Y-80338549D01*
X56265433Y-80504149D01*
X56410191Y-80648907D01*
X56549283Y-80749961D01*
X56575795Y-80769223D01*
X56692012Y-80828439D01*
X56758181Y-80862154D01*
X56758183Y-80862154D01*
X56758186Y-80862156D01*
X56862542Y-80896063D01*
X56952870Y-80925413D01*
X57021873Y-80936342D01*
X57155053Y-80957436D01*
X57155054Y-80957436D01*
X57359756Y-80957436D01*
X57359757Y-80957436D01*
X57561939Y-80925413D01*
X57756624Y-80862156D01*
X57939015Y-80769223D01*
X57939025Y-80769215D01*
X57940664Y-80768212D01*
X57941378Y-80768018D01*
X57943356Y-80767011D01*
X57943567Y-80767426D01*
X58008108Y-80749961D01*
X58074712Y-80771071D01*
X58119331Y-80824838D01*
X58129464Y-80873933D01*
X58129464Y-82317879D01*
X58109779Y-82384918D01*
X58093145Y-82405560D01*
X49358297Y-91140407D01*
X49358293Y-91140412D01*
X49339417Y-91173109D01*
X49339416Y-91173111D01*
X49279239Y-91277340D01*
X49238315Y-91430068D01*
X49238315Y-91430070D01*
X49238315Y-91598171D01*
X49238316Y-91598184D01*
X49238316Y-92239408D01*
X49218631Y-92306447D01*
X49165827Y-92352202D01*
X49114316Y-92363408D01*
X37434624Y-92363408D01*
X37367585Y-92343723D01*
X37324139Y-92295703D01*
X37237194Y-92125063D01*
X37135431Y-91984998D01*
X37089122Y-91921258D01*
X37089118Y-91921253D01*
X36910978Y-91743113D01*
X36910973Y-91743109D01*
X36707172Y-91595040D01*
X36707171Y-91595039D01*
X36707169Y-91595038D01*
X36631508Y-91556487D01*
X36482707Y-91480668D01*
X36243109Y-91402818D01*
X35994286Y-91363408D01*
X35742362Y-91363408D01*
X35617950Y-91383113D01*
X35493538Y-91402818D01*
X35253940Y-91480668D01*
X35029475Y-91595040D01*
X34825674Y-91743109D01*
X34825669Y-91743113D01*
X34647529Y-91921253D01*
X34647525Y-91921258D01*
X34499456Y-92125059D01*
X34385084Y-92349524D01*
X34307234Y-92589122D01*
X34267824Y-92837946D01*
X34267824Y-93089869D01*
X34307234Y-93338693D01*
X34385084Y-93578291D01*
X34450184Y-93706055D01*
X34491317Y-93786784D01*
X34499456Y-93802756D01*
X34647525Y-94006557D01*
X34647529Y-94006562D01*
X34647531Y-94006564D01*
X34825668Y-94184701D01*
X34825669Y-94184702D01*
X34825668Y-94184702D01*
X34831985Y-94189291D01*
X34874651Y-94244622D01*
X34880629Y-94314235D01*
X34848023Y-94376030D01*
X34787184Y-94410387D01*
X34739702Y-94412082D01*
X34684935Y-94403408D01*
X34511713Y-94403408D01*
X34472052Y-94409689D01*
X34340626Y-94430505D01*
X34175876Y-94484036D01*
X34021535Y-94562676D01*
X33964613Y-94604033D01*
X33881396Y-94664494D01*
X33881394Y-94664496D01*
X33881393Y-94664496D01*
X33758912Y-94786977D01*
X33758912Y-94786978D01*
X33758910Y-94786980D01*
X33715183Y-94847164D01*
X33657092Y-94927119D01*
X33578452Y-95081460D01*
X33524921Y-95246210D01*
X33497824Y-95417297D01*
X32354600Y-95417297D01*
X32354600Y-90297946D01*
X40617824Y-90297946D01*
X40617824Y-90549869D01*
X40657234Y-90798693D01*
X40735084Y-91038291D01*
X40849456Y-91262756D01*
X40997525Y-91466557D01*
X40997529Y-91466562D01*
X41175669Y-91644702D01*
X41175674Y-91644706D01*
X41343842Y-91766886D01*
X41379479Y-91792778D01*
X41522508Y-91865655D01*
X41603940Y-91907147D01*
X41603942Y-91907147D01*
X41603945Y-91907149D01*
X41843539Y-91984998D01*
X42092362Y-92024408D01*
X42092363Y-92024408D01*
X42344285Y-92024408D01*
X42344286Y-92024408D01*
X42593109Y-91984998D01*
X42832703Y-91907149D01*
X43057169Y-91792778D01*
X43260980Y-91644701D01*
X43439117Y-91466564D01*
X43587194Y-91262753D01*
X43701565Y-91038287D01*
X43779414Y-90798693D01*
X43818824Y-90549870D01*
X43818824Y-90297946D01*
X43779414Y-90049123D01*
X43701565Y-89809529D01*
X43701563Y-89809526D01*
X43701563Y-89809524D01*
X43660071Y-89728092D01*
X43587194Y-89585063D01*
X43568276Y-89559025D01*
X43439122Y-89381258D01*
X43439118Y-89381253D01*
X43260978Y-89203113D01*
X43260973Y-89203109D01*
X43057172Y-89055040D01*
X43057171Y-89055039D01*
X43057169Y-89055038D01*
X42987071Y-89019321D01*
X42832707Y-88940668D01*
X42593109Y-88862818D01*
X42344286Y-88823408D01*
X42092362Y-88823408D01*
X41967950Y-88843113D01*
X41843538Y-88862818D01*
X41603940Y-88940668D01*
X41379475Y-89055040D01*
X41175674Y-89203109D01*
X41175669Y-89203113D01*
X40997529Y-89381253D01*
X40997525Y-89381258D01*
X40849456Y-89585059D01*
X40735084Y-89809524D01*
X40657234Y-90049122D01*
X40617824Y-90297946D01*
X32354600Y-90297946D01*
X32354600Y-88676950D01*
X32374285Y-88609911D01*
X32390914Y-88589274D01*
X40029176Y-80951011D01*
X40090497Y-80917528D01*
X40155169Y-80920761D01*
X40169484Y-80925413D01*
X40371666Y-80957436D01*
X40371667Y-80957436D01*
X40576369Y-80957436D01*
X40576370Y-80957436D01*
X40778552Y-80925413D01*
X40973237Y-80862156D01*
X41155628Y-80769223D01*
X41248608Y-80701668D01*
X41321231Y-80648907D01*
X41321233Y-80648904D01*
X41321237Y-80648902D01*
X41465984Y-80504155D01*
X41465986Y-80504151D01*
X41465989Y-80504149D01*
X41518750Y-80431526D01*
X41586305Y-80338546D01*
X41679238Y-80156155D01*
X41742495Y-79961470D01*
X41774518Y-79759288D01*
X41774518Y-79554584D01*
X43369364Y-79554584D01*
X43369364Y-79759287D01*
X43401386Y-79961470D01*
X43464645Y-80156159D01*
X43557579Y-80338549D01*
X43677892Y-80504149D01*
X43822650Y-80648907D01*
X43961742Y-80749961D01*
X43988254Y-80769223D01*
X44104471Y-80828439D01*
X44170640Y-80862154D01*
X44170642Y-80862154D01*
X44170645Y-80862156D01*
X44275001Y-80896063D01*
X44365329Y-80925413D01*
X44434332Y-80936342D01*
X44567512Y-80957436D01*
X44567513Y-80957436D01*
X44772215Y-80957436D01*
X44772216Y-80957436D01*
X44974398Y-80925413D01*
X45169083Y-80862156D01*
X45351474Y-80769223D01*
X45444454Y-80701668D01*
X45517077Y-80648907D01*
X45517079Y-80648904D01*
X45517083Y-80648902D01*
X45661830Y-80504155D01*
X45661832Y-80504151D01*
X45661835Y-80504149D01*
X45714596Y-80431526D01*
X45782151Y-80338546D01*
X45875084Y-80156155D01*
X45938341Y-79961470D01*
X45970364Y-79759288D01*
X45970364Y-79554584D01*
X47565211Y-79554584D01*
X47565211Y-79759287D01*
X47597233Y-79961470D01*
X47660492Y-80156159D01*
X47753426Y-80338549D01*
X47873739Y-80504149D01*
X48018497Y-80648907D01*
X48157589Y-80749961D01*
X48184101Y-80769223D01*
X48300318Y-80828439D01*
X48366487Y-80862154D01*
X48366489Y-80862154D01*
X48366492Y-80862156D01*
X48470848Y-80896063D01*
X48561176Y-80925413D01*
X48630179Y-80936342D01*
X48763359Y-80957436D01*
X48763360Y-80957436D01*
X48968062Y-80957436D01*
X48968063Y-80957436D01*
X49170245Y-80925413D01*
X49364930Y-80862156D01*
X49547321Y-80769223D01*
X49640301Y-80701668D01*
X49712924Y-80648907D01*
X49712926Y-80648904D01*
X49712930Y-80648902D01*
X49857677Y-80504155D01*
X49857679Y-80504151D01*
X49857682Y-80504149D01*
X49910443Y-80431526D01*
X49977998Y-80338546D01*
X50070931Y-80156155D01*
X50134188Y-79961470D01*
X50166211Y-79759288D01*
X50166211Y-79554584D01*
X51761058Y-79554584D01*
X51761058Y-79759287D01*
X51793080Y-79961470D01*
X51856339Y-80156159D01*
X51949273Y-80338549D01*
X52069586Y-80504149D01*
X52214344Y-80648907D01*
X52353436Y-80749961D01*
X52379948Y-80769223D01*
X52496165Y-80828439D01*
X52562334Y-80862154D01*
X52562336Y-80862154D01*
X52562339Y-80862156D01*
X52666695Y-80896063D01*
X52757023Y-80925413D01*
X52826026Y-80936342D01*
X52959206Y-80957436D01*
X52959207Y-80957436D01*
X53163909Y-80957436D01*
X53163910Y-80957436D01*
X53366092Y-80925413D01*
X53560777Y-80862156D01*
X53743168Y-80769223D01*
X53836148Y-80701668D01*
X53908771Y-80648907D01*
X53908773Y-80648904D01*
X53908777Y-80648902D01*
X54053524Y-80504155D01*
X54053526Y-80504151D01*
X54053529Y-80504149D01*
X54106290Y-80431526D01*
X54173845Y-80338546D01*
X54266778Y-80156155D01*
X54330035Y-79961470D01*
X54362058Y-79759288D01*
X54362058Y-79554584D01*
X54330035Y-79352402D01*
X54266778Y-79157717D01*
X54266776Y-79157714D01*
X54266776Y-79157712D01*
X54233061Y-79091543D01*
X54173845Y-78975326D01*
X54142064Y-78931583D01*
X54053529Y-78809722D01*
X53908771Y-78664964D01*
X53743171Y-78544651D01*
X53743170Y-78544650D01*
X53743168Y-78544649D01*
X53669233Y-78506977D01*
X53560781Y-78451717D01*
X53366092Y-78388458D01*
X53191553Y-78360814D01*
X53163910Y-78356436D01*
X52959206Y-78356436D01*
X52934887Y-78360287D01*
X52757023Y-78388458D01*
X52562334Y-78451717D01*
X52379944Y-78544651D01*
X52214344Y-78664964D01*
X52069586Y-78809722D01*
X51949273Y-78975322D01*
X51856339Y-79157712D01*
X51793080Y-79352401D01*
X51761058Y-79554584D01*
X50166211Y-79554584D01*
X50134188Y-79352402D01*
X50070931Y-79157717D01*
X50070929Y-79157714D01*
X50070929Y-79157712D01*
X50037214Y-79091543D01*
X49977998Y-78975326D01*
X49946217Y-78931583D01*
X49857682Y-78809722D01*
X49712924Y-78664964D01*
X49547324Y-78544651D01*
X49547323Y-78544650D01*
X49547321Y-78544649D01*
X49473386Y-78506977D01*
X49364934Y-78451717D01*
X49170245Y-78388458D01*
X48995706Y-78360814D01*
X48968063Y-78356436D01*
X48763359Y-78356436D01*
X48739040Y-78360287D01*
X48561176Y-78388458D01*
X48366487Y-78451717D01*
X48184097Y-78544651D01*
X48018497Y-78664964D01*
X47873739Y-78809722D01*
X47753426Y-78975322D01*
X47660492Y-79157712D01*
X47597233Y-79352401D01*
X47565211Y-79554584D01*
X45970364Y-79554584D01*
X45938341Y-79352402D01*
X45875084Y-79157717D01*
X45875082Y-79157714D01*
X45875082Y-79157712D01*
X45841367Y-79091543D01*
X45782151Y-78975326D01*
X45750370Y-78931583D01*
X45661835Y-78809722D01*
X45517077Y-78664964D01*
X45351477Y-78544651D01*
X45351476Y-78544650D01*
X45351474Y-78544649D01*
X45277539Y-78506977D01*
X45169087Y-78451717D01*
X44974398Y-78388458D01*
X44799859Y-78360814D01*
X44772216Y-78356436D01*
X44567512Y-78356436D01*
X44543193Y-78360287D01*
X44365329Y-78388458D01*
X44170640Y-78451717D01*
X43988250Y-78544651D01*
X43822650Y-78664964D01*
X43677892Y-78809722D01*
X43557579Y-78975322D01*
X43464645Y-79157712D01*
X43401386Y-79352401D01*
X43369364Y-79554584D01*
X41774518Y-79554584D01*
X41742495Y-79352402D01*
X41679238Y-79157717D01*
X41679236Y-79157714D01*
X41679236Y-79157712D01*
X41645521Y-79091543D01*
X41586305Y-78975326D01*
X41554524Y-78931583D01*
X41465989Y-78809722D01*
X41321231Y-78664964D01*
X41155631Y-78544651D01*
X41155630Y-78544650D01*
X41155628Y-78544649D01*
X41081693Y-78506977D01*
X40973241Y-78451717D01*
X40778552Y-78388458D01*
X40604013Y-78360814D01*
X40576370Y-78356436D01*
X40371666Y-78356436D01*
X40347347Y-78360287D01*
X40169483Y-78388458D01*
X39974794Y-78451717D01*
X39792404Y-78544651D01*
X39626804Y-78664964D01*
X39482046Y-78809722D01*
X39361733Y-78975322D01*
X39268799Y-79157712D01*
X39205540Y-79352401D01*
X39173518Y-79554584D01*
X39173518Y-79759287D01*
X39205540Y-79961470D01*
X39210191Y-79975784D01*
X39212183Y-80045626D01*
X39179939Y-80101778D01*
X31385386Y-87896332D01*
X31273582Y-88008135D01*
X31273578Y-88008141D01*
X31223992Y-88094027D01*
X31194524Y-88145066D01*
X31194523Y-88145067D01*
X31174061Y-88221433D01*
X31153599Y-88297797D01*
X31153599Y-88455911D01*
X31153599Y-88455913D01*
X31153600Y-88465907D01*
X31153600Y-116345030D01*
X31153599Y-116345048D01*
X31153599Y-116510754D01*
X31153598Y-116510754D01*
X25342024Y-116510754D01*
X25342024Y-79554584D01*
X30781824Y-79554584D01*
X30781824Y-79759287D01*
X30813846Y-79961470D01*
X30877105Y-80156159D01*
X30970039Y-80338549D01*
X31090352Y-80504149D01*
X31235110Y-80648907D01*
X31374202Y-80749961D01*
X31400714Y-80769223D01*
X31516931Y-80828439D01*
X31583100Y-80862154D01*
X31583102Y-80862154D01*
X31583105Y-80862156D01*
X31687461Y-80896063D01*
X31777789Y-80925413D01*
X31846792Y-80936342D01*
X31979972Y-80957436D01*
X31979973Y-80957436D01*
X32184675Y-80957436D01*
X32184676Y-80957436D01*
X32386858Y-80925413D01*
X32581543Y-80862156D01*
X32763934Y-80769223D01*
X32856914Y-80701668D01*
X32929537Y-80648907D01*
X32929539Y-80648904D01*
X32929543Y-80648902D01*
X33074290Y-80504155D01*
X33074292Y-80504151D01*
X33074295Y-80504149D01*
X33127056Y-80431526D01*
X33194611Y-80338546D01*
X33287544Y-80156155D01*
X33350801Y-79961470D01*
X33382824Y-79759288D01*
X33382824Y-79554584D01*
X34977671Y-79554584D01*
X34977671Y-79759287D01*
X35009693Y-79961470D01*
X35072952Y-80156159D01*
X35165886Y-80338549D01*
X35286199Y-80504149D01*
X35430957Y-80648907D01*
X35570049Y-80749961D01*
X35596561Y-80769223D01*
X35712778Y-80828439D01*
X35778947Y-80862154D01*
X35778949Y-80862154D01*
X35778952Y-80862156D01*
X35883308Y-80896063D01*
X35973636Y-80925413D01*
X36042639Y-80936342D01*
X36175819Y-80957436D01*
X36175820Y-80957436D01*
X36380522Y-80957436D01*
X36380523Y-80957436D01*
X36582705Y-80925413D01*
X36777390Y-80862156D01*
X36959781Y-80769223D01*
X37052761Y-80701668D01*
X37125384Y-80648907D01*
X37125386Y-80648904D01*
X37125390Y-80648902D01*
X37270137Y-80504155D01*
X37270139Y-80504151D01*
X37270142Y-80504149D01*
X37322903Y-80431526D01*
X37390458Y-80338546D01*
X37483391Y-80156155D01*
X37546648Y-79961470D01*
X37578671Y-79759288D01*
X37578671Y-79554584D01*
X37546648Y-79352402D01*
X37483391Y-79157717D01*
X37483389Y-79157714D01*
X37483389Y-79157712D01*
X37449674Y-79091543D01*
X37390458Y-78975326D01*
X37358677Y-78931583D01*
X37270142Y-78809722D01*
X37125384Y-78664964D01*
X36959784Y-78544651D01*
X36959783Y-78544650D01*
X36959781Y-78544649D01*
X36885846Y-78506977D01*
X36777394Y-78451717D01*
X36582705Y-78388458D01*
X36408166Y-78360814D01*
X36380523Y-78356436D01*
X36175819Y-78356436D01*
X36151500Y-78360287D01*
X35973636Y-78388458D01*
X35778947Y-78451717D01*
X35596557Y-78544651D01*
X35430957Y-78664964D01*
X35286199Y-78809722D01*
X35165886Y-78975322D01*
X35072952Y-79157712D01*
X35009693Y-79352401D01*
X34977671Y-79554584D01*
X33382824Y-79554584D01*
X33350801Y-79352402D01*
X33287544Y-79157717D01*
X33287542Y-79157714D01*
X33287542Y-79157712D01*
X33253827Y-79091543D01*
X33194611Y-78975326D01*
X33162830Y-78931583D01*
X33074295Y-78809722D01*
X32929537Y-78664964D01*
X32763937Y-78544651D01*
X32763936Y-78544650D01*
X32763934Y-78544649D01*
X32689999Y-78506977D01*
X32581547Y-78451717D01*
X32386858Y-78388458D01*
X32212319Y-78360814D01*
X32184676Y-78356436D01*
X31979972Y-78356436D01*
X31955653Y-78360287D01*
X31777789Y-78388458D01*
X31583100Y-78451717D01*
X31400710Y-78544651D01*
X31235110Y-78664964D01*
X31090352Y-78809722D01*
X30970039Y-78975322D01*
X30877105Y-79157712D01*
X30813846Y-79352401D01*
X30781824Y-79554584D01*
X25342024Y-79554584D01*
X25342024Y-71436919D01*
X30781824Y-71436919D01*
X30781824Y-72636937D01*
X30781825Y-72636954D01*
X30792324Y-72739732D01*
X30792325Y-72739735D01*
X30840180Y-72884149D01*
X30847510Y-72906270D01*
X30939612Y-73055592D01*
X31063668Y-73179648D01*
X31212990Y-73271750D01*
X31379527Y-73326935D01*
X31482315Y-73337436D01*
X32682332Y-73337435D01*
X32785121Y-73326935D01*
X32951658Y-73271750D01*
X33100980Y-73179648D01*
X33225036Y-73055592D01*
X33317138Y-72906270D01*
X33372323Y-72739733D01*
X33382824Y-72636945D01*
X33382823Y-71436928D01*
X33382822Y-71436919D01*
X34977671Y-71436919D01*
X34977671Y-72636937D01*
X34977672Y-72636954D01*
X34988171Y-72739732D01*
X34988172Y-72739735D01*
X35036027Y-72884149D01*
X35043357Y-72906270D01*
X35135459Y-73055592D01*
X35259515Y-73179648D01*
X35408837Y-73271750D01*
X35575374Y-73326935D01*
X35678162Y-73337436D01*
X36878179Y-73337435D01*
X36980968Y-73326935D01*
X37147505Y-73271750D01*
X37296827Y-73179648D01*
X37420883Y-73055592D01*
X37512985Y-72906270D01*
X37568170Y-72739733D01*
X37578671Y-72636945D01*
X37578670Y-71436928D01*
X37578669Y-71436919D01*
X39173518Y-71436919D01*
X39173518Y-72636937D01*
X39173519Y-72636954D01*
X39184018Y-72739732D01*
X39184019Y-72739735D01*
X39231874Y-72884149D01*
X39239204Y-72906270D01*
X39331306Y-73055592D01*
X39455362Y-73179648D01*
X39604684Y-73271750D01*
X39771221Y-73326935D01*
X39874009Y-73337436D01*
X41074026Y-73337435D01*
X41176815Y-73326935D01*
X41343352Y-73271750D01*
X41492674Y-73179648D01*
X41616730Y-73055592D01*
X41708832Y-72906270D01*
X41764017Y-72739733D01*
X41774518Y-72636945D01*
X41774517Y-71436928D01*
X41774516Y-71436919D01*
X43369364Y-71436919D01*
X43369364Y-72636937D01*
X43369365Y-72636954D01*
X43379864Y-72739732D01*
X43379865Y-72739735D01*
X43427720Y-72884149D01*
X43435050Y-72906270D01*
X43527152Y-73055592D01*
X43651208Y-73179648D01*
X43800530Y-73271750D01*
X43967067Y-73326935D01*
X44069855Y-73337436D01*
X45269872Y-73337435D01*
X45372661Y-73326935D01*
X45539198Y-73271750D01*
X45688520Y-73179648D01*
X45812576Y-73055592D01*
X45904678Y-72906270D01*
X45959863Y-72739733D01*
X45970364Y-72636945D01*
X45970363Y-71436928D01*
X45970362Y-71436919D01*
X47565211Y-71436919D01*
X47565211Y-72636937D01*
X47565212Y-72636954D01*
X47575711Y-72739732D01*
X47575712Y-72739735D01*
X47623567Y-72884149D01*
X47630897Y-72906270D01*
X47722999Y-73055592D01*
X47847055Y-73179648D01*
X47996377Y-73271750D01*
X48162914Y-73326935D01*
X48265702Y-73337436D01*
X49465719Y-73337435D01*
X49568508Y-73326935D01*
X49735045Y-73271750D01*
X49884367Y-73179648D01*
X50008423Y-73055592D01*
X50100525Y-72906270D01*
X50155710Y-72739733D01*
X50166211Y-72636945D01*
X50166210Y-71436928D01*
X50166209Y-71436919D01*
X51761058Y-71436919D01*
X51761058Y-72636937D01*
X51761059Y-72636954D01*
X51771558Y-72739732D01*
X51771559Y-72739735D01*
X51819414Y-72884149D01*
X51826744Y-72906270D01*
X51918846Y-73055592D01*
X52042902Y-73179648D01*
X52192224Y-73271750D01*
X52358761Y-73326935D01*
X52461549Y-73337436D01*
X53661566Y-73337435D01*
X53764355Y-73326935D01*
X53930892Y-73271750D01*
X54080214Y-73179648D01*
X54204270Y-73055592D01*
X54296372Y-72906270D01*
X54351557Y-72739733D01*
X54362058Y-72636945D01*
X54362057Y-71436928D01*
X54351557Y-71334139D01*
X54296372Y-71167602D01*
X54204270Y-71018280D01*
X54080214Y-70894224D01*
X53930892Y-70802122D01*
X53764355Y-70746937D01*
X53764353Y-70746936D01*
X53661568Y-70736436D01*
X52461556Y-70736436D01*
X52461539Y-70736437D01*
X52358761Y-70746936D01*
X52358758Y-70746937D01*
X52192226Y-70802121D01*
X52192221Y-70802123D01*
X52042900Y-70894225D01*
X51918847Y-71018278D01*
X51826745Y-71167599D01*
X51826744Y-71167602D01*
X51771559Y-71334139D01*
X51771559Y-71334140D01*
X51771558Y-71334140D01*
X51761058Y-71436919D01*
X50166209Y-71436919D01*
X50155710Y-71334139D01*
X50100525Y-71167602D01*
X50008423Y-71018280D01*
X49884367Y-70894224D01*
X49735045Y-70802122D01*
X49568508Y-70746937D01*
X49568506Y-70746936D01*
X49465721Y-70736436D01*
X48265709Y-70736436D01*
X48265692Y-70736437D01*
X48162914Y-70746936D01*
X48162911Y-70746937D01*
X47996379Y-70802121D01*
X47996374Y-70802123D01*
X47847053Y-70894225D01*
X47723000Y-71018278D01*
X47630898Y-71167599D01*
X47630897Y-71167602D01*
X47575712Y-71334139D01*
X47575712Y-71334140D01*
X47575711Y-71334140D01*
X47565211Y-71436919D01*
X45970362Y-71436919D01*
X45959863Y-71334139D01*
X45904678Y-71167602D01*
X45812576Y-71018280D01*
X45688520Y-70894224D01*
X45539198Y-70802122D01*
X45372661Y-70746937D01*
X45372659Y-70746936D01*
X45269874Y-70736436D01*
X44069862Y-70736436D01*
X44069845Y-70736437D01*
X43967067Y-70746936D01*
X43967064Y-70746937D01*
X43800532Y-70802121D01*
X43800527Y-70802123D01*
X43651206Y-70894225D01*
X43527153Y-71018278D01*
X43435051Y-71167599D01*
X43435050Y-71167602D01*
X43379865Y-71334139D01*
X43379865Y-71334140D01*
X43379864Y-71334140D01*
X43369364Y-71436919D01*
X41774516Y-71436919D01*
X41764017Y-71334139D01*
X41708832Y-71167602D01*
X41616730Y-71018280D01*
X41492674Y-70894224D01*
X41343352Y-70802122D01*
X41176815Y-70746937D01*
X41176813Y-70746936D01*
X41074028Y-70736436D01*
X39874016Y-70736436D01*
X39873999Y-70736437D01*
X39771221Y-70746936D01*
X39771218Y-70746937D01*
X39604686Y-70802121D01*
X39604681Y-70802123D01*
X39455360Y-70894225D01*
X39331307Y-71018278D01*
X39239205Y-71167599D01*
X39239204Y-71167602D01*
X39184019Y-71334139D01*
X39184019Y-71334140D01*
X39184018Y-71334140D01*
X39173518Y-71436919D01*
X37578669Y-71436919D01*
X37568170Y-71334139D01*
X37512985Y-71167602D01*
X37420883Y-71018280D01*
X37296827Y-70894224D01*
X37147505Y-70802122D01*
X36980968Y-70746937D01*
X36980966Y-70746936D01*
X36878181Y-70736436D01*
X35678169Y-70736436D01*
X35678152Y-70736437D01*
X35575374Y-70746936D01*
X35575371Y-70746937D01*
X35408839Y-70802121D01*
X35408834Y-70802123D01*
X35259513Y-70894225D01*
X35135460Y-71018278D01*
X35043358Y-71167599D01*
X35043357Y-71167602D01*
X34988172Y-71334139D01*
X34988172Y-71334140D01*
X34988171Y-71334140D01*
X34977671Y-71436919D01*
X33382822Y-71436919D01*
X33372323Y-71334139D01*
X33317138Y-71167602D01*
X33225036Y-71018280D01*
X33100980Y-70894224D01*
X32951658Y-70802122D01*
X32785121Y-70746937D01*
X32785119Y-70746936D01*
X32682334Y-70736436D01*
X31482322Y-70736436D01*
X31482305Y-70736437D01*
X31379527Y-70746936D01*
X31379524Y-70746937D01*
X31212992Y-70802121D01*
X31212987Y-70802123D01*
X31063666Y-70894225D01*
X30939613Y-71018278D01*
X30847511Y-71167599D01*
X30847510Y-71167602D01*
X30792325Y-71334139D01*
X30792325Y-71334140D01*
X30792324Y-71334140D01*
X30781824Y-71436919D01*
X25342024Y-71436919D01*
X25342024Y-65643756D01*
X30581824Y-65643756D01*
X30581824Y-65848459D01*
X30613846Y-66050642D01*
X30677105Y-66245331D01*
X30741015Y-66370761D01*
X30769909Y-66427467D01*
X30770039Y-66427721D01*
X30890352Y-66593321D01*
X31035110Y-66738079D01*
X31190073Y-66850664D01*
X31200714Y-66858395D01*
X31292794Y-66905312D01*
X31383100Y-66951326D01*
X31383102Y-66951326D01*
X31383105Y-66951328D01*
X31487461Y-66985235D01*
X31577789Y-67014585D01*
X31678881Y-67030596D01*
X31779972Y-67046608D01*
X31779973Y-67046608D01*
X31984675Y-67046608D01*
X31984676Y-67046608D01*
X32186858Y-67014585D01*
X32381543Y-66951328D01*
X32563934Y-66858395D01*
X32656914Y-66790840D01*
X32729537Y-66738079D01*
X32729539Y-66738076D01*
X32729543Y-66738074D01*
X32874290Y-66593327D01*
X32874292Y-66593323D01*
X32874295Y-66593321D01*
X32927056Y-66520698D01*
X32994611Y-66427718D01*
X33087544Y-66245327D01*
X33150801Y-66050642D01*
X33182824Y-65848460D01*
X33182824Y-65643790D01*
X45582324Y-65643790D01*
X45582324Y-65848425D01*
X45614333Y-66050525D01*
X45677568Y-66245139D01*
X45770465Y-66427458D01*
X45770471Y-66427467D01*
X45802847Y-66472029D01*
X45802848Y-66472030D01*
X46482324Y-65792554D01*
X46482324Y-65798769D01*
X46509583Y-65900502D01*
X46562244Y-65991714D01*
X46636718Y-66066188D01*
X46727930Y-66118849D01*
X46829663Y-66146108D01*
X46835877Y-66146108D01*
X46156400Y-66825582D01*
X46200974Y-66857967D01*
X46383292Y-66950863D01*
X46577906Y-67014098D01*
X46780007Y-67046108D01*
X46984641Y-67046108D01*
X47186741Y-67014098D01*
X47381355Y-66950863D01*
X47563673Y-66857967D01*
X47608245Y-66825582D01*
X46928771Y-66146108D01*
X46934985Y-66146108D01*
X47036718Y-66118849D01*
X47127930Y-66066188D01*
X47202404Y-65991714D01*
X47255065Y-65900502D01*
X47282324Y-65798769D01*
X47282324Y-65792556D01*
X47961798Y-66472030D01*
X47961798Y-66472029D01*
X47994183Y-66427457D01*
X48087079Y-66245139D01*
X48150314Y-66050525D01*
X48182324Y-65848425D01*
X48182324Y-65643790D01*
X48150314Y-65441690D01*
X48087079Y-65247076D01*
X47994183Y-65064758D01*
X47961798Y-65020185D01*
X47961798Y-65020184D01*
X47282324Y-65699659D01*
X47282324Y-65693447D01*
X47255065Y-65591714D01*
X47202404Y-65500502D01*
X47127930Y-65426028D01*
X47036718Y-65373367D01*
X46934985Y-65346108D01*
X46928770Y-65346108D01*
X47608246Y-64666632D01*
X47608245Y-64666631D01*
X47563683Y-64634255D01*
X47563674Y-64634249D01*
X47381355Y-64541352D01*
X47186741Y-64478117D01*
X46984641Y-64446108D01*
X46780007Y-64446108D01*
X46577906Y-64478117D01*
X46383292Y-64541352D01*
X46200968Y-64634251D01*
X46156401Y-64666631D01*
X46156401Y-64666632D01*
X46835878Y-65346108D01*
X46829663Y-65346108D01*
X46727930Y-65373367D01*
X46636718Y-65426028D01*
X46562244Y-65500502D01*
X46509583Y-65591714D01*
X46482324Y-65693447D01*
X46482324Y-65699661D01*
X45802848Y-65020185D01*
X45802847Y-65020185D01*
X45770467Y-65064752D01*
X45677568Y-65247076D01*
X45614333Y-65441690D01*
X45582324Y-65643790D01*
X33182824Y-65643790D01*
X33182824Y-65643756D01*
X33164034Y-65525123D01*
X33150801Y-65441573D01*
X33114173Y-65328846D01*
X33087544Y-65246889D01*
X33087542Y-65246886D01*
X33087542Y-65246884D01*
X32994743Y-65064758D01*
X32994611Y-65064498D01*
X32962416Y-65020185D01*
X32874295Y-64898894D01*
X32729537Y-64754136D01*
X32563937Y-64633823D01*
X32563936Y-64633822D01*
X32563934Y-64633821D01*
X32506977Y-64604799D01*
X32381547Y-64540889D01*
X32186858Y-64477630D01*
X32012319Y-64449986D01*
X31984676Y-64445608D01*
X31779972Y-64445608D01*
X31755653Y-64449459D01*
X31577789Y-64477630D01*
X31383100Y-64540889D01*
X31200710Y-64633823D01*
X31035110Y-64754136D01*
X30890352Y-64898894D01*
X30770039Y-65064494D01*
X30677105Y-65246884D01*
X30613846Y-65441573D01*
X30581824Y-65643756D01*
X25342024Y-65643756D01*
X25342024Y-54873833D01*
X31251824Y-54873833D01*
X31251824Y-55086406D01*
X31285077Y-55296359D01*
X31350768Y-55498534D01*
X31447275Y-55687940D01*
X31572214Y-55859906D01*
X31722537Y-56010229D01*
X31894506Y-56135170D01*
X31903270Y-56139636D01*
X31954066Y-56187611D01*
X31970860Y-56255432D01*
X31948322Y-56321567D01*
X31903270Y-56360604D01*
X31894506Y-56365069D01*
X31722537Y-56490010D01*
X31572214Y-56640333D01*
X31447275Y-56812299D01*
X31350768Y-57001705D01*
X31285077Y-57203880D01*
X31251824Y-57413833D01*
X31251824Y-57626406D01*
X31285077Y-57836359D01*
X31350768Y-58038534D01*
X31447275Y-58227940D01*
X31572214Y-58399906D01*
X31722537Y-58550229D01*
X31894506Y-58675170D01*
X31903270Y-58679636D01*
X31954066Y-58727611D01*
X31970860Y-58795432D01*
X31948322Y-58861567D01*
X31903270Y-58900604D01*
X31894506Y-58905069D01*
X31722537Y-59030010D01*
X31572214Y-59180333D01*
X31447275Y-59352299D01*
X31350768Y-59541705D01*
X31285077Y-59743880D01*
X31251824Y-59953833D01*
X31251824Y-60166406D01*
X31285077Y-60376359D01*
X31350768Y-60578534D01*
X31447275Y-60767940D01*
X31572214Y-60939906D01*
X31722537Y-61090229D01*
X31894503Y-61215168D01*
X31894505Y-61215169D01*
X31894508Y-61215171D01*
X32083912Y-61311677D01*
X32286081Y-61377366D01*
X32496037Y-61410620D01*
X32496038Y-61410620D01*
X32708610Y-61410620D01*
X32708611Y-61410620D01*
X32918567Y-61377366D01*
X33120736Y-61311677D01*
X33310140Y-61215171D01*
X33332113Y-61199206D01*
X33482110Y-61090229D01*
X33482112Y-61090226D01*
X33482116Y-61090224D01*
X33632428Y-60939912D01*
X33632430Y-60939908D01*
X33632433Y-60939906D01*
X33757372Y-60767940D01*
X33757371Y-60767940D01*
X33757375Y-60767936D01*
X33853881Y-60578532D01*
X33919570Y-60376363D01*
X33952824Y-60166407D01*
X33952824Y-59953833D01*
X33919570Y-59743877D01*
X33853881Y-59541708D01*
X33757375Y-59352304D01*
X33757373Y-59352301D01*
X33757372Y-59352299D01*
X33632433Y-59180333D01*
X33482110Y-59030010D01*
X33310144Y-58905071D01*
X33309439Y-58904711D01*
X33301378Y-58900605D01*
X33250583Y-58852632D01*
X33233787Y-58784812D01*
X33256323Y-58718676D01*
X33301378Y-58679635D01*
X33310140Y-58675171D01*
X33332113Y-58659206D01*
X33482110Y-58550229D01*
X33482112Y-58550226D01*
X33482116Y-58550224D01*
X33632428Y-58399912D01*
X33632430Y-58399908D01*
X33632433Y-58399906D01*
X33757372Y-58227940D01*
X33757371Y-58227940D01*
X33757375Y-58227936D01*
X33853881Y-58038532D01*
X33919570Y-57836363D01*
X33952824Y-57626407D01*
X33952824Y-57413833D01*
X33919570Y-57203877D01*
X33853881Y-57001708D01*
X33757375Y-56812304D01*
X33757373Y-56812301D01*
X33757372Y-56812299D01*
X33632433Y-56640333D01*
X33482110Y-56490010D01*
X33310144Y-56365071D01*
X33309439Y-56364711D01*
X33301378Y-56360605D01*
X33250583Y-56312632D01*
X33233787Y-56244812D01*
X33256323Y-56178676D01*
X33301378Y-56139635D01*
X33310140Y-56135171D01*
X33332113Y-56119206D01*
X33482110Y-56010229D01*
X33482112Y-56010226D01*
X33482116Y-56010224D01*
X33632428Y-55859912D01*
X33632430Y-55859908D01*
X33632433Y-55859906D01*
X33757372Y-55687940D01*
X33757371Y-55687940D01*
X33757375Y-55687936D01*
X33853881Y-55498532D01*
X33919570Y-55296363D01*
X33952824Y-55086407D01*
X33952824Y-54873833D01*
X33919570Y-54663877D01*
X33853881Y-54461708D01*
X33757375Y-54272304D01*
X33757373Y-54272301D01*
X33757372Y-54272299D01*
X33632433Y-54100333D01*
X33518505Y-53986405D01*
X33485020Y-53925082D01*
X33490004Y-53855390D01*
X33531876Y-53799457D01*
X33562853Y-53782542D01*
X33694410Y-53733474D01*
X33694417Y-53733470D01*
X33809511Y-53647310D01*
X33809514Y-53647307D01*
X33895674Y-53532213D01*
X33895678Y-53532206D01*
X33945920Y-53397499D01*
X33945922Y-53397492D01*
X33952323Y-53337964D01*
X33952324Y-53337947D01*
X33952324Y-52690120D01*
X33035336Y-52690120D01*
X33068249Y-52633113D01*
X33102324Y-52505946D01*
X33102324Y-52374294D01*
X33068249Y-52247127D01*
X33035336Y-52190120D01*
X33952324Y-52190120D01*
X33952324Y-51542292D01*
X33952323Y-51542275D01*
X33945922Y-51482747D01*
X33945920Y-51482740D01*
X33895678Y-51348033D01*
X33895674Y-51348026D01*
X33809514Y-51232932D01*
X33809511Y-51232929D01*
X33694417Y-51146769D01*
X33694410Y-51146765D01*
X33559703Y-51096523D01*
X33559696Y-51096521D01*
X33500168Y-51090120D01*
X32852324Y-51090120D01*
X32852324Y-52007108D01*
X32795317Y-51974195D01*
X32668150Y-51940120D01*
X32536498Y-51940120D01*
X32409331Y-51974195D01*
X32352324Y-52007108D01*
X32352324Y-51090120D01*
X31704479Y-51090120D01*
X31644951Y-51096521D01*
X31644944Y-51096523D01*
X31510237Y-51146765D01*
X31510230Y-51146769D01*
X31395136Y-51232929D01*
X31395133Y-51232932D01*
X31308973Y-51348026D01*
X31308969Y-51348033D01*
X31258727Y-51482740D01*
X31258725Y-51482747D01*
X31252324Y-51542275D01*
X31252324Y-52190120D01*
X32169312Y-52190120D01*
X32136399Y-52247127D01*
X32102324Y-52374294D01*
X32102324Y-52505946D01*
X32136399Y-52633113D01*
X32169312Y-52690120D01*
X31252324Y-52690120D01*
X31252324Y-53337964D01*
X31258725Y-53397492D01*
X31258727Y-53397499D01*
X31308969Y-53532206D01*
X31308973Y-53532213D01*
X31395133Y-53647307D01*
X31395136Y-53647310D01*
X31510230Y-53733470D01*
X31510237Y-53733474D01*
X31641794Y-53782542D01*
X31697728Y-53824413D01*
X31722145Y-53889878D01*
X31707293Y-53958151D01*
X31686143Y-53986405D01*
X31572213Y-54100335D01*
X31447275Y-54272299D01*
X31350768Y-54461705D01*
X31285077Y-54663880D01*
X31251824Y-54873833D01*
X25342024Y-54873833D01*
X25342024Y-50511715D01*
X25361709Y-50444676D01*
X25414513Y-50398921D01*
X25483671Y-50388977D01*
X25547227Y-50418002D01*
X25573410Y-50449714D01*
X25675864Y-50627169D01*
X25675866Y-50627172D01*
X25675867Y-50627173D01*
X25823533Y-50819616D01*
X25823539Y-50819623D01*
X25995056Y-50991140D01*
X25995063Y-50991146D01*
X26108121Y-51077898D01*
X26187511Y-51138816D01*
X26397588Y-51260104D01*
X26621700Y-51352934D01*
X26856011Y-51415718D01*
X27036386Y-51439464D01*
X27096511Y-51447380D01*
X27096512Y-51447380D01*
X27339089Y-51447380D01*
X27464993Y-51430804D01*
X27579589Y-51415718D01*
X27813900Y-51352934D01*
X28038012Y-51260104D01*
X28248089Y-51138816D01*
X28440538Y-50991145D01*
X28612065Y-50819618D01*
X28759736Y-50627169D01*
X28881024Y-50417092D01*
X28973854Y-50192980D01*
X29036638Y-49958669D01*
X29068300Y-49718168D01*
X29068300Y-49475592D01*
X29036638Y-49235091D01*
X28973854Y-49000780D01*
X28881024Y-48776668D01*
X28759736Y-48566591D01*
X28612065Y-48374142D01*
X28612060Y-48374136D01*
X28440543Y-48202619D01*
X28440536Y-48202613D01*
X28339300Y-48124932D01*
X28298097Y-48068504D01*
X28293942Y-47998758D01*
X28328154Y-47937838D01*
X28389871Y-47905085D01*
X28414786Y-47902556D01*
X89166110Y-47902556D01*
X89194866Y-47910999D01*
G37*
G04 #@! TD.AperFunction*
M02*
