G04 #@! TF.GenerationSoftware,KiCad,Pcbnew,9.0.6*
G04 #@! TF.CreationDate,2025-12-30T14:31:12-05:00*
G04 #@! TF.ProjectId,keyboard,6b657962-6f61-4726-942e-6b696361645f,rev?*
G04 #@! TF.SameCoordinates,Original*
G04 #@! TF.FileFunction,Soldermask,Top*
G04 #@! TF.FilePolarity,Negative*
%FSLAX46Y46*%
G04 Gerber Fmt 4.6, Leading zero omitted, Abs format (unit mm)*
G04 Created by KiCad (PCBNEW 9.0.6) date 2025-12-30 14:31:12*
%MOMM*%
%LPD*%
G01*
G04 APERTURE LIST*
G04 Aperture macros list*
%AMRoundRect*
0 Rectangle with rounded corners*
0 $1 Rounding radius*
0 $2 $3 $4 $5 $6 $7 $8 $9 X,Y pos of 4 corners*
0 Add a 4 corners polygon primitive as box body*
4,1,4,$2,$3,$4,$5,$6,$7,$8,$9,$2,$3,0*
0 Add four circle primitives for the rounded corners*
1,1,$1+$1,$2,$3*
1,1,$1+$1,$4,$5*
1,1,$1+$1,$6,$7*
1,1,$1+$1,$8,$9*
0 Add four rect primitives between the rounded corners*
20,1,$1+$1,$2,$3,$4,$5,0*
20,1,$1+$1,$4,$5,$6,$7,0*
20,1,$1+$1,$6,$7,$8,$9,0*
20,1,$1+$1,$8,$9,$2,$3,0*%
G04 Aperture macros list end*
%ADD10R,1.600000X0.850000*%
%ADD11RoundRect,0.250000X-0.550000X0.550000X-0.550000X-0.550000X0.550000X-0.550000X0.550000X0.550000X0*%
%ADD12C,1.600000*%
%ADD13C,3.200000*%
%ADD14C,1.700000*%
%ADD15C,4.000000*%
%ADD16C,2.200000*%
%ADD17RoundRect,0.152400X1.063600X0.609600X-1.063600X0.609600X-1.063600X-0.609600X1.063600X-0.609600X0*%
%ADD18C,1.524000*%
%ADD19RoundRect,0.152400X-1.063600X-0.609600X1.063600X-0.609600X1.063600X0.609600X-1.063600X0.609600X0*%
%ADD20R,0.850000X1.600000*%
%ADD21R,2.000000X2.000000*%
%ADD22C,2.000000*%
%ADD23R,2.000000X3.200000*%
%ADD24R,1.700000X1.700000*%
G04 APERTURE END LIST*
D10*
X37806536Y-104246192D03*
X37806536Y-105996192D03*
X41306536Y-105996192D03*
X41306536Y-104246192D03*
D11*
X48865711Y-72036936D03*
D12*
X48865711Y-79656936D03*
D13*
X27217800Y-142560788D03*
D14*
X53649472Y-114556368D03*
D15*
X58729472Y-114556368D03*
D14*
X63809472Y-114556368D03*
D16*
X61269472Y-109476368D03*
X54919472Y-112016368D03*
D13*
X27217800Y-49596880D03*
D11*
X53061558Y-72036936D03*
D12*
X53061558Y-79656936D03*
D17*
X69993732Y-50384484D03*
D18*
X70828732Y-50384484D03*
D17*
X69993732Y-52924484D03*
D18*
X70828732Y-52924484D03*
D17*
X69993732Y-55464484D03*
D18*
X70828732Y-55464484D03*
D17*
X69993732Y-58004484D03*
D18*
X70828732Y-58004484D03*
D17*
X69993732Y-60544484D03*
D18*
X70828732Y-60544484D03*
D17*
X69993732Y-63084484D03*
D18*
X70828732Y-63084484D03*
D17*
X69993732Y-65624484D03*
D18*
X70828732Y-65624484D03*
X86068732Y-65624484D03*
D19*
X86903732Y-65624484D03*
D18*
X86068732Y-63084484D03*
D19*
X86903732Y-63084484D03*
D18*
X86068732Y-60544484D03*
D19*
X86903732Y-60544484D03*
D18*
X86068732Y-58004484D03*
D19*
X86903732Y-58004484D03*
D18*
X86068732Y-55464484D03*
D19*
X86903732Y-55464484D03*
D18*
X86068732Y-52924484D03*
D19*
X86903732Y-52924484D03*
D18*
X86068732Y-50384484D03*
D19*
X86903732Y-50384484D03*
D12*
X74040792Y-82196936D03*
X74040792Y-72036936D03*
D20*
X67411436Y-135843028D03*
X69161436Y-135843028D03*
X69161436Y-132343028D03*
X67411436Y-132343028D03*
X67411436Y-116669600D03*
X69161436Y-116669600D03*
X69161436Y-113169600D03*
X67411436Y-113169600D03*
D10*
X79290488Y-124927684D03*
X79290488Y-123177684D03*
X75790488Y-123177684D03*
X75790488Y-124927684D03*
X79048552Y-105996192D03*
X79048552Y-104246192D03*
X75548552Y-104246192D03*
X75548552Y-105996192D03*
D12*
X46882324Y-65746108D03*
X31882324Y-65746108D03*
D13*
X90363096Y-49596880D03*
D14*
X72701932Y-114556368D03*
D15*
X77781932Y-114556368D03*
D14*
X82861932Y-114556368D03*
D16*
X80321932Y-109476368D03*
X73971932Y-112016368D03*
D10*
X56919480Y-104246192D03*
X56919480Y-105996192D03*
X60419480Y-105996192D03*
X60419480Y-104246192D03*
D11*
X65649098Y-72036936D03*
D12*
X65649098Y-79656936D03*
D10*
X37746052Y-123177684D03*
X37746052Y-124927684D03*
X41246052Y-124927684D03*
X41246052Y-123177684D03*
D11*
X32082324Y-72036936D03*
D12*
X32082324Y-79656936D03*
D14*
X34598324Y-133608828D03*
D15*
X39678324Y-133608828D03*
D14*
X44758324Y-133608828D03*
D16*
X42218324Y-128528828D03*
X35868324Y-131068828D03*
D13*
X90363096Y-142560788D03*
D20*
X67504180Y-97068748D03*
X69254180Y-97068748D03*
X69254180Y-93568748D03*
X67504180Y-93568748D03*
X48358976Y-117939764D03*
X50108976Y-117939764D03*
X50108976Y-114439764D03*
X48358976Y-114439764D03*
D14*
X53650456Y-133608172D03*
D15*
X58730456Y-133608172D03*
D14*
X63810456Y-133608172D03*
D16*
X61270456Y-128528172D03*
X54920456Y-131068172D03*
D10*
X56919480Y-123177684D03*
X56919480Y-124927684D03*
X60419480Y-124927684D03*
X60419480Y-123177684D03*
D21*
X75307436Y-101310684D03*
D22*
X80307436Y-101310684D03*
X77807436Y-101310684D03*
D23*
X72207436Y-93810684D03*
X83407436Y-93810684D03*
D22*
X80307436Y-86810684D03*
X75307436Y-86810684D03*
D14*
X53649472Y-95503908D03*
D15*
X58729472Y-95503908D03*
D14*
X63809472Y-95503908D03*
D16*
X61269472Y-90423908D03*
X54919472Y-92963908D03*
D20*
X48358976Y-97068748D03*
X50108976Y-97068748D03*
X50108976Y-93568748D03*
X48358976Y-93568748D03*
D11*
X36278171Y-72036936D03*
D12*
X36278171Y-79656936D03*
D14*
X34598324Y-95503908D03*
D15*
X39678324Y-95503908D03*
D14*
X44758324Y-95503908D03*
D16*
X42218324Y-90423908D03*
X35868324Y-92963908D03*
D14*
X72702096Y-133608828D03*
D15*
X77782096Y-133608828D03*
D14*
X82862096Y-133608828D03*
D16*
X80322096Y-128528828D03*
X73972096Y-131068828D03*
D12*
X69844945Y-82196936D03*
X69844945Y-72036936D03*
D14*
X34598324Y-114556368D03*
D15*
X39678324Y-114556368D03*
D14*
X44758324Y-114556368D03*
D16*
X42218324Y-109476368D03*
X35868324Y-112016368D03*
D11*
X44669864Y-72036936D03*
D12*
X44669864Y-79656936D03*
D11*
X40474018Y-72036936D03*
D12*
X40474018Y-79656936D03*
D11*
X57257405Y-72036936D03*
D12*
X57257405Y-79656936D03*
D24*
X32602324Y-52440120D03*
D14*
X32602324Y-54980120D03*
X32602324Y-57520120D03*
X32602324Y-60060120D03*
D20*
X48358976Y-136326900D03*
X50108976Y-136326900D03*
X50108976Y-132826900D03*
X48358976Y-132826900D03*
D11*
X61453252Y-72036936D03*
D12*
X61453252Y-79656936D03*
M02*
